{"glyphs":{"0":{"ha":940,"x_min":100,"x_max":840,"o":"m 100 427 q 150 657 100 558 q 286 810 199 757 q 482 864 373 864 q 756 749 672 864 q 840 441 840 633 q 793 207 840 309 q 662 47 747 104 q 465 -11 576 -11 q 257 49 339 -11 q 138 208 176 109 q 100 427 100 307 m 686 427 q 663 597 686 522 q 593 716 640 672 q 473 760 545 760 q 311 676 367 760 q 254 442 254 591 q 279 270 254 349 q 353 141 303 190 q 476 92 403 92 q 633 180 580 92 q 686 427 686 268 z "},"1":{"ha":623,"x_min":88,"x_max":412,"o":"m 256 677 q 105 642 167 653 l 88 730 q 182 768 130 743 q 279 821 235 793 q 344 867 324 849 l 412 850 l 412 0 l 256 0 l 256 677 z "},"2":{"ha":861,"x_min":100,"x_max":763,"o":"m 763 120 l 763 0 l 122 0 l 100 77 q 329 236 224 149 q 499 419 433 323 q 564 605 564 515 q 523 716 564 675 q 404 758 481 758 q 277 730 339 758 q 176 661 215 702 l 113 745 q 239 837 161 798 q 420 876 317 876 q 647 803 577 876 q 716 613 716 729 q 670 438 716 527 q 541 268 625 350 q 346 116 458 185 l 763 120 z "},"3":{"ha":778,"x_min":71,"x_max":704,"o":"m 463 376 q 592 331 537 367 q 675 241 647 294 q 704 128 704 188 q 648 -50 704 32 q 489 -181 593 -132 q 247 -230 385 -230 q 104 -216 182 -230 l 103 -113 q 214 -125 161 -125 q 390 -93 313 -125 q 509 -5 467 -60 q 552 117 552 50 q 501 254 552 203 q 345 304 450 304 q 310 302 334 304 l 248 288 l 217 390 q 340 427 286 404 q 459 507 417 457 q 502 616 502 556 q 458 722 502 688 q 342 756 414 756 q 226 736 277 756 q 129 683 175 715 l 71 768 q 197 841 119 808 q 355 874 275 874 q 503 846 435 874 q 609 764 570 819 q 649 631 649 709 q 597 481 649 548 q 463 376 546 415 z "},"4":{"ha":908,"x_min":79,"x_max":862,"o":"m 862 0 l 705 0 l 705 -255 l 556 -255 l 556 0 l 115 0 l 79 71 l 475 881 l 528 881 l 621 824 l 304 218 l 244 115 l 556 115 l 568 409 l 705 409 l 705 115 l 862 115 l 862 0 z "},"5":{"ha":832,"x_min":138,"x_max":732,"o":"m 139 -127 q 184 -129 169 -129 q 388 -93 297 -129 q 529 7 478 -56 q 581 151 581 71 q 527 306 581 255 q 359 357 474 357 q 176 325 279 357 l 142 345 l 180 849 l 703 849 l 688 720 l 296 720 l 270 449 q 425 469 359 469 q 593 431 524 469 q 697 324 662 393 q 732 161 732 255 q 673 -30 732 61 q 497 -177 613 -120 q 222 -237 382 -235 q 138 -228 166 -237 l 139 -127 z "},"6":{"ha":931,"x_min":109,"x_max":819,"o":"m 711 970 q 487 857 587 937 q 331 670 388 777 q 271 454 274 563 l 270 422 q 317 183 270 274 q 477 93 365 93 q 581 127 538 93 q 646 217 625 161 q 668 337 668 273 q 625 504 668 454 q 515 554 582 554 q 447 545 478 554 q 396 523 415 535 l 355 611 q 430 651 378 633 q 546 670 481 670 q 692 629 630 670 q 787 519 754 589 q 819 368 819 450 q 779 181 819 268 q 656 42 738 95 q 457 -11 574 -11 q 272 43 351 -11 q 151 188 193 96 q 109 387 109 279 q 193 708 109 562 q 407 947 277 854 q 671 1067 537 1041 l 711 970 z "},"7":{"ha":842,"x_min":102,"x_max":777,"o":"m 102 741 l 102 862 l 746 862 l 777 823 l 390 -227 l 231 -181 q 613 740 411 203 l 102 741 z "},"8":{"ha":886,"x_min":103,"x_max":798,"o":"m 798 268 q 752 115 798 178 q 629 21 706 52 q 458 -11 551 -11 q 285 17 366 -11 q 154 106 205 45 q 103 261 103 168 q 154 418 103 343 q 313 545 205 493 q 188 659 233 596 q 143 810 143 721 q 185 947 143 890 q 299 1033 227 1004 q 458 1061 370 1061 q 614 1032 546 1061 q 719 948 682 1002 q 757 825 757 895 q 737 721 757 773 q 674 622 717 668 q 568 544 631 575 q 688 465 640 503 q 767 379 736 428 q 798 268 798 330 m 453 958 q 365 941 404 958 q 303 893 326 924 q 281 819 281 861 q 305 734 281 772 q 370 665 330 696 q 469 600 410 633 q 553 650 519 616 q 604 727 587 684 q 620 813 620 769 q 600 889 620 857 q 542 940 579 922 q 453 958 504 958 m 463 94 q 554 113 511 94 q 624 168 597 132 q 650 253 650 204 q 621 344 650 304 q 548 412 592 383 q 429 480 505 440 q 412 489 423 484 q 292 400 338 458 q 246 273 246 342 q 300 140 246 186 q 463 94 354 94 z "},"9":{"ha":949,"x_min":119,"x_max":825,"o":"m 481 863 q 668 809 591 863 q 785 665 746 755 q 825 464 825 574 q 737 122 825 279 q 514 -136 649 -35 q 245 -264 380 -237 l 195 -172 q 435 -45 328 -139 q 601 169 541 50 q 665 395 661 289 l 665 429 q 458 756 665 756 q 360 725 404 756 q 293 645 317 694 q 269 542 269 595 q 291 404 269 460 q 350 318 312 347 q 436 290 387 290 q 488 293 467 290 q 519 301 509 297 q 553 316 530 306 l 588 232 q 518 191 568 209 q 397 174 469 174 q 249 218 311 174 q 153 335 186 262 q 119 492 119 408 q 162 686 119 602 q 287 816 205 770 q 481 863 368 863 z "},"\u0000":{"ha":0,"x_min":0,"x_max":0,"o":""},"\r":{"ha":0,"x_min":0,"x_max":0,"o":""}," ":{"ha":444,"x_min":0,"x_max":0,"o":""},"A":{"ha":954,"x_min":14,"x_max":940,"o":"m 689 261 l 267 261 l 174 0 l 14 0 l 409 1043 l 555 1043 l 940 0 l 777 0 l 689 261 m 651 374 l 512 787 l 483 883 l 453 787 l 307 374 l 651 374 z "},"Á":{"ha":954,"x_min":14,"x_max":940,"o":"m 689 261 l 267 261 l 174 0 l 14 0 l 409 1043 l 555 1043 l 940 0 l 777 0 l 689 261 m 651 374 l 512 787 l 483 883 l 453 787 l 307 374 l 651 374 m 389 1129 q 524 1250 427 1163 q 622 1343 620 1337 l 721 1253 q 589 1144 671 1201 q 452 1067 508 1086 l 389 1129 z "},"Ă":{"ha":954,"x_min":14,"x_max":940,"o":"m 689 261 l 267 261 l 174 0 l 14 0 l 409 1043 l 555 1043 l 940 0 l 777 0 l 689 261 m 651 374 l 512 787 l 483 883 l 453 787 l 307 374 l 651 374 m 348 1336 q 355 1291 349 1314 q 390 1246 361 1268 q 476 1224 418 1224 q 582 1261 558 1224 q 607 1336 606 1299 l 708 1336 q 709 1316 709 1329 q 680 1211 709 1259 q 597 1135 650 1163 q 476 1107 545 1107 q 352 1135 404 1107 q 271 1210 299 1162 q 243 1316 243 1258 q 244 1336 243 1329 l 348 1336 z "},"Ǎ":{"ha":954,"x_min":14,"x_max":940,"o":"m 689 261 l 267 261 l 174 0 l 14 0 l 409 1043 l 555 1043 l 940 0 l 777 0 l 689 261 m 651 374 l 512 787 l 483 883 l 453 787 l 307 374 l 651 374 m 409 1350 l 543 1350 l 720 1147 l 623 1107 l 476 1244 l 326 1107 l 233 1145 l 409 1350 z "},"Â":{"ha":954,"x_min":14,"x_max":940,"o":"m 689 261 l 267 261 l 174 0 l 14 0 l 409 1043 l 555 1043 l 940 0 l 777 0 l 689 261 m 651 374 l 512 787 l 483 883 l 453 787 l 307 374 l 651 374 m 409 1350 l 543 1350 l 720 1147 l 623 1107 l 476 1244 l 326 1107 l 233 1145 l 409 1350 z "},"Ä":{"ha":954,"x_min":14,"x_max":940,"o":"m 689 261 l 267 261 l 174 0 l 14 0 l 409 1043 l 555 1043 l 940 0 l 777 0 l 689 261 m 651 374 l 512 787 l 483 883 l 453 787 l 307 374 l 651 374 m 208 1221 q 223 1274 208 1250 q 263 1312 238 1298 q 315 1326 288 1326 q 385 1300 361 1326 q 409 1235 409 1275 q 394 1181 409 1204 q 354 1144 379 1157 q 300 1131 329 1131 q 235 1155 262 1131 q 208 1221 208 1180 m 544 1221 q 559 1274 544 1250 q 600 1312 575 1298 q 652 1326 625 1326 q 722 1300 698 1326 q 745 1235 745 1275 q 730 1181 745 1204 q 690 1144 715 1157 q 637 1131 665 1131 q 571 1155 598 1131 q 544 1221 544 1180 z "},"À":{"ha":954,"x_min":14,"x_max":940,"o":"m 689 261 l 267 261 l 174 0 l 14 0 l 409 1043 l 555 1043 l 940 0 l 777 0 l 689 261 m 651 374 l 512 787 l 483 883 l 453 787 l 307 374 l 651 374 m 501 1067 q 415 1112 469 1078 q 309 1184 361 1145 q 232 1253 257 1224 l 331 1343 q 429 1250 333 1337 q 564 1129 526 1163 l 501 1067 z "},"Ā":{"ha":954,"x_min":14,"x_max":940,"o":"m 689 261 l 267 261 l 174 0 l 14 0 l 409 1043 l 555 1043 l 940 0 l 777 0 l 689 261 m 651 374 l 512 787 l 483 883 l 453 787 l 307 374 l 651 374 m 663 1282 l 663 1173 l 292 1173 l 292 1282 l 663 1282 z "},"Ą":{"ha":954,"x_min":14,"x_max":945,"o":"m 851 -247 q 945 -227 895 -247 l 945 -307 q 875 -337 918 -328 q 785 -347 831 -347 q 664 -309 711 -347 q 618 -203 618 -271 q 672 -91 618 -144 q 798 0 726 -37 l 777 0 l 689 261 l 267 261 l 174 0 l 14 0 l 409 1043 l 555 1043 l 940 0 l 914 0 q 807 -82 850 -35 q 764 -174 764 -130 q 787 -231 764 -216 q 851 -247 810 -247 m 651 374 l 512 787 l 483 883 l 453 787 l 307 374 l 651 374 z "},"Å":{"ha":954,"x_min":14,"x_max":940,"o":"m 689 261 l 267 261 l 174 0 l 14 0 l 387 985 q 293 1048 327 1004 q 258 1155 258 1093 q 289 1258 258 1217 q 369 1317 320 1299 q 475 1336 418 1336 q 634 1290 576 1336 q 693 1159 693 1244 q 661 1051 693 1094 q 574 989 629 1008 l 940 0 l 777 0 l 689 261 m 471 1252 q 395 1230 425 1252 q 364 1158 364 1208 q 395 1085 364 1112 q 477 1059 425 1059 q 559 1082 529 1059 q 589 1157 589 1105 q 556 1227 589 1203 q 471 1252 523 1252 m 651 374 l 512 787 l 483 883 l 453 787 l 307 374 l 651 374 z "},"Ã":{"ha":954,"x_min":14,"x_max":940,"o":"m 689 261 l 267 261 l 174 0 l 14 0 l 409 1043 l 555 1043 l 940 0 l 777 0 l 689 261 m 651 374 l 512 787 l 483 883 l 453 787 l 307 374 l 651 374 m 194 1201 q 241 1269 210 1238 q 311 1316 272 1299 q 385 1333 349 1333 q 450 1319 425 1333 q 507 1278 476 1305 q 546 1249 530 1258 q 583 1239 562 1239 q 645 1258 616 1239 q 701 1306 674 1277 l 760 1258 q 713 1191 744 1221 q 643 1143 682 1160 q 569 1126 605 1126 q 504 1141 530 1126 q 448 1183 477 1156 q 408 1214 425 1204 q 370 1224 391 1224 q 252 1155 315 1224 l 194 1201 z "},"Æ":{"ha":1261,"x_min":-50,"x_max":1211,"o":"m 1211 119 l 1211 0 l 568 0 l 568 261 l 241 261 l 117 0 l -50 0 l 442 1032 l 1162 1032 l 1162 916 l 719 916 l 719 590 l 1044 590 l 1044 473 l 719 473 l 719 119 l 1211 119 m 568 374 l 568 933 l 561 933 l 295 374 l 568 374 z "},"Ǽ":{"ha":1261,"x_min":-50,"x_max":1211,"o":"m 605 1129 q 739 1250 643 1163 q 838 1343 836 1337 l 937 1253 q 805 1144 886 1201 q 668 1067 724 1086 l 605 1129 m 1211 119 l 1211 0 l 568 0 l 568 261 l 241 261 l 117 0 l -50 0 l 442 1032 l 1162 1032 l 1162 916 l 719 916 l 719 590 l 1044 590 l 1044 473 l 719 473 l 719 119 l 1211 119 m 568 374 l 568 933 l 561 933 l 295 374 l 568 374 z "},"B":{"ha":908,"x_min":132,"x_max":846,"o":"m 202 1032 q 296 1036 230 1032 q 439 1042 389 1042 q 692 978 608 1042 q 776 798 776 913 q 759 698 776 748 q 708 610 743 648 q 619 558 673 572 q 733 520 681 555 q 815 428 785 485 q 846 309 846 372 q 751 74 846 157 q 429 -9 656 -9 q 207 0 342 -9 l 132 0 l 132 1033 l 202 1032 m 470 585 q 551 606 515 585 q 608 671 587 628 q 629 777 629 715 q 574 896 629 857 q 412 936 518 936 q 337 934 380 936 q 282 927 294 932 l 282 588 q 368 583 311 583 l 424 584 q 470 585 440 585 m 446 100 q 630 144 568 100 q 692 292 692 188 q 634 432 692 388 q 453 477 576 477 l 376 477 q 282 473 311 477 l 282 116 q 343 103 298 106 q 446 100 389 100 z "},"Ḃ":{"ha":908,"x_min":132,"x_max":846,"o":"m 347 1222 q 363 1275 347 1251 q 404 1313 378 1299 q 456 1326 429 1326 q 526 1301 502 1326 q 550 1236 550 1276 q 535 1182 550 1206 q 495 1145 519 1158 q 441 1132 470 1132 q 375 1157 402 1132 q 347 1222 347 1181 m 202 1032 q 296 1036 230 1032 q 439 1042 389 1042 q 692 978 608 1042 q 776 798 776 913 q 759 698 776 748 q 708 610 743 648 q 619 558 673 572 q 733 520 681 555 q 815 428 785 485 q 846 309 846 372 q 751 74 846 157 q 429 -9 656 -9 q 207 0 342 -9 l 132 0 l 132 1033 l 202 1032 m 470 585 q 551 606 515 585 q 608 671 587 628 q 629 777 629 715 q 574 896 629 857 q 412 936 518 936 q 337 934 380 936 q 282 927 294 932 l 282 588 q 368 583 311 583 l 424 584 q 470 585 440 585 m 446 100 q 630 144 568 100 q 692 292 692 188 q 634 432 692 388 q 453 477 576 477 l 376 477 q 282 473 311 477 l 282 116 q 343 103 298 106 q 446 100 389 100 z "},"C":{"ha":890,"x_min":64,"x_max":812,"o":"m 542 1043 q 686 1034 629 1043 q 792 1010 744 1024 l 812 1004 l 791 870 q 743 892 766 883 q 671 911 721 901 q 552 920 622 920 q 372 871 448 920 q 255 732 296 823 q 214 521 214 642 q 255 307 214 400 q 372 161 296 213 q 551 109 448 109 q 654 117 602 109 q 747 141 707 126 q 805 172 787 155 l 806 43 q 730 15 762 26 q 651 -3 699 5 q 545 -11 604 -11 q 292 54 401 -11 q 124 237 183 119 q 64 511 64 355 q 130 796 64 675 q 304 980 195 917 q 542 1043 413 1043 z "},"Ć":{"ha":890,"x_min":64,"x_max":812,"o":"m 542 1043 q 686 1034 629 1043 q 792 1010 744 1024 l 812 1004 l 791 870 q 743 892 766 883 q 671 911 721 901 q 552 920 622 920 q 372 871 448 920 q 255 732 296 823 q 214 521 214 642 q 255 307 214 400 q 372 161 296 213 q 551 109 448 109 q 654 117 602 109 q 747 141 707 126 q 805 172 787 155 l 806 43 q 730 15 762 26 q 651 -3 699 5 q 545 -11 604 -11 q 292 54 401 -11 q 124 237 183 119 q 64 511 64 355 q 130 796 64 675 q 304 980 195 917 q 542 1043 413 1043 m 452 1129 q 587 1250 490 1163 q 685 1343 683 1337 l 784 1253 q 652 1144 734 1201 q 515 1067 571 1086 l 452 1129 z "},"Č":{"ha":890,"x_min":64,"x_max":812,"o":"m 542 1043 q 686 1034 629 1043 q 792 1010 744 1024 l 812 1004 l 791 870 q 743 892 766 883 q 671 911 721 901 q 552 920 622 920 q 372 871 448 920 q 255 732 296 823 q 214 521 214 642 q 255 307 214 400 q 372 161 296 213 q 551 109 448 109 q 654 117 602 109 q 747 141 707 126 q 805 172 787 155 l 806 43 q 730 15 762 26 q 651 -3 699 5 q 545 -11 604 -11 q 292 54 401 -11 q 124 237 183 119 q 64 511 64 355 q 130 796 64 675 q 304 980 195 917 q 542 1043 413 1043 m 393 1350 l 540 1232 l 690 1350 l 771 1311 l 607 1133 l 473 1133 l 307 1309 l 393 1350 z "},"Ç":{"ha":890,"x_min":64,"x_max":812,"o":"m 806 43 q 737 18 764 27 q 671 1 711 9 q 583 -10 631 -7 q 604 -122 604 -53 q 602 -155 604 -132 q 550 -275 595 -236 q 439 -315 504 -315 q 381 -309 411 -315 q 340 -296 351 -304 l 350 -199 q 406 -209 365 -209 q 465 -184 441 -209 q 492 -107 488 -159 q 495 -60 495 -85 q 489 -8 495 -34 q 264 72 360 4 q 116 253 168 140 q 64 511 64 366 q 130 796 64 675 q 304 980 195 917 q 542 1043 413 1043 q 686 1034 629 1043 q 792 1010 744 1024 l 812 1004 l 791 870 q 743 892 766 883 q 671 911 721 901 q 552 920 622 920 q 372 871 448 920 q 255 732 296 823 q 214 521 214 642 q 255 307 214 400 q 372 161 296 213 q 551 109 448 109 q 654 117 602 109 q 747 141 707 126 q 805 172 787 155 l 806 43 z "},"Ĉ":{"ha":890,"x_min":64,"x_max":812,"o":"m 542 1043 q 686 1034 629 1043 q 792 1010 744 1024 l 812 1004 l 791 870 q 743 892 766 883 q 671 911 721 901 q 552 920 622 920 q 372 871 448 920 q 255 732 296 823 q 214 521 214 642 q 255 307 214 400 q 372 161 296 213 q 551 109 448 109 q 654 117 602 109 q 747 141 707 126 q 805 172 787 155 l 806 43 q 730 15 762 26 q 651 -3 699 5 q 545 -11 604 -11 q 292 54 401 -11 q 124 237 183 119 q 64 511 64 355 q 130 796 64 675 q 304 980 195 917 q 542 1043 413 1043 m 472 1350 l 606 1350 l 783 1147 l 686 1107 l 539 1244 l 389 1107 l 296 1145 l 472 1350 z "},"Ċ":{"ha":890,"x_min":64,"x_max":812,"o":"m 439 1222 q 454 1275 439 1251 q 495 1313 470 1299 q 547 1326 521 1326 q 617 1301 593 1326 q 642 1236 642 1276 q 626 1182 642 1206 q 586 1145 611 1158 q 533 1132 562 1132 q 466 1157 494 1132 q 439 1222 439 1181 m 542 1043 q 686 1034 629 1043 q 792 1010 744 1024 l 812 1004 l 791 870 q 743 892 766 883 q 671 911 721 901 q 552 920 622 920 q 372 871 448 920 q 255 732 296 823 q 214 521 214 642 q 255 307 214 400 q 372 161 296 213 q 551 109 448 109 q 654 117 602 109 q 747 141 707 126 q 805 172 787 155 l 806 43 q 730 15 762 26 q 651 -3 699 5 q 545 -11 604 -11 q 292 54 401 -11 q 124 237 183 119 q 64 511 64 355 q 130 796 64 675 q 304 980 195 917 q 542 1043 413 1043 z "},"D":{"ha":998,"x_min":132,"x_max":941,"o":"m 208 1032 q 314 1037 246 1032 q 368 1040 323 1038 q 452 1043 412 1043 q 819 914 696 1043 q 941 545 941 785 q 882 248 941 373 q 711 56 822 123 q 448 -11 600 -11 q 329 -5 417 -11 q 189 0 231 0 l 132 0 l 132 1032 l 208 1032 m 459 101 q 697 207 610 104 q 784 523 784 310 q 743 764 784 673 q 622 894 703 854 q 416 934 541 934 q 283 923 336 934 l 283 114 q 363 103 315 106 q 459 101 411 100 z "},"Ǳ":{"ha":1876,"x_min":132,"x_max":1823,"o":"m 208 1032 q 314 1037 246 1032 q 368 1040 323 1038 q 452 1043 412 1043 q 819 914 696 1043 q 941 545 941 785 q 882 248 941 373 q 711 56 822 123 q 448 -11 600 -11 q 329 -5 417 -11 q 189 0 231 0 l 132 0 l 132 1032 l 208 1032 m 459 101 q 697 207 610 104 q 784 523 784 310 q 743 764 784 673 q 622 894 703 854 q 416 934 541 934 q 283 923 336 934 l 283 114 q 363 103 315 106 q 459 101 411 100 m 1586 863 l 1625 911 l 1116 911 l 1116 1032 l 1792 1032 l 1823 977 l 1308 176 l 1257 119 l 1783 119 l 1783 0 l 1089 0 l 1059 57 l 1586 863 z "},"Ǆ":{"ha":1876,"x_min":132,"x_max":1823,"o":"m 208 1032 q 314 1037 246 1032 q 368 1040 323 1038 q 452 1043 412 1043 q 819 914 696 1043 q 941 545 941 785 q 882 248 941 373 q 711 56 822 123 q 448 -11 600 -11 q 329 -5 417 -11 q 189 0 231 0 l 132 0 l 132 1032 l 208 1032 m 459 101 q 697 207 610 104 q 784 523 784 310 q 743 764 784 673 q 622 894 703 854 q 416 934 541 934 q 283 923 336 934 l 283 114 q 363 103 315 106 q 459 101 411 100 m 1586 863 l 1625 911 l 1116 911 l 1116 1032 l 1792 1032 l 1823 977 l 1308 176 l 1257 119 l 1783 119 l 1783 0 l 1089 0 l 1059 57 l 1586 863 m 1313 1350 l 1459 1232 l 1609 1350 l 1691 1311 l 1527 1133 l 1393 1133 l 1226 1309 l 1313 1350 z "},"Ð":{"ha":998,"x_min":45,"x_max":941,"o":"m 452 1043 q 819 914 696 1043 q 941 545 941 785 q 882 248 941 373 q 711 56 822 123 q 448 -11 600 -11 q 329 -5 417 -11 q 189 0 231 0 l 132 0 l 132 488 l 45 488 l 45 589 l 132 589 l 132 1032 l 208 1032 q 314 1037 246 1032 q 368 1040 323 1038 q 452 1043 412 1043 m 459 101 q 697 207 610 104 q 784 523 784 310 q 743 764 784 673 q 622 894 703 854 q 416 934 541 934 q 283 923 336 934 l 283 589 l 551 589 l 551 488 l 283 488 l 283 114 q 363 103 315 106 q 459 101 411 100 z "},"Ď":{"ha":998,"x_min":132,"x_max":941,"o":"m 351 1350 l 497 1232 l 647 1350 l 728 1311 l 564 1133 l 431 1133 l 264 1309 l 351 1350 m 208 1032 q 314 1037 246 1032 q 368 1040 323 1038 q 452 1043 412 1043 q 819 914 696 1043 q 941 545 941 785 q 882 248 941 373 q 711 56 822 123 q 448 -11 600 -11 q 329 -5 417 -11 q 189 0 231 0 l 132 0 l 132 1032 l 208 1032 m 459 101 q 697 207 610 104 q 784 523 784 310 q 743 764 784 673 q 622 894 703 854 q 416 934 541 934 q 283 923 336 934 l 283 114 q 363 103 315 106 q 459 101 411 100 z "},"Đ":{"ha":998,"x_min":45,"x_max":941,"o":"m 452 1043 q 819 914 696 1043 q 941 545 941 785 q 882 248 941 373 q 711 56 822 123 q 448 -11 600 -11 q 329 -5 417 -11 q 189 0 231 0 l 132 0 l 132 488 l 45 488 l 45 589 l 132 589 l 132 1032 l 208 1032 q 314 1037 246 1032 q 368 1040 323 1038 q 452 1043 412 1043 m 459 101 q 697 207 610 104 q 784 523 784 310 q 743 764 784 673 q 622 894 703 854 q 416 934 541 934 q 283 923 336 934 l 283 589 l 551 589 l 551 488 l 283 488 l 283 114 q 363 103 315 106 q 459 101 411 100 z "},"Ḋ":{"ha":998,"x_min":132,"x_max":941,"o":"m 394 1222 q 410 1275 394 1251 q 451 1313 425 1299 q 503 1326 476 1326 q 573 1301 549 1326 q 597 1236 597 1276 q 582 1182 597 1206 q 542 1145 566 1158 q 488 1132 517 1132 q 421 1157 449 1132 q 394 1222 394 1181 m 208 1032 q 314 1037 246 1032 q 368 1040 323 1038 q 452 1043 412 1043 q 819 914 696 1043 q 941 545 941 785 q 882 248 941 373 q 711 56 822 123 q 448 -11 600 -11 q 329 -5 417 -11 q 189 0 231 0 l 132 0 l 132 1032 l 208 1032 m 459 101 q 697 207 610 104 q 784 523 784 310 q 743 764 784 673 q 622 894 703 854 q 416 934 541 934 q 283 923 336 934 l 283 114 q 363 103 315 106 q 459 101 411 100 z "},"ǲ":{"ha":1718,"x_min":132,"x_max":1669,"o":"m 208 1032 q 314 1037 246 1032 q 368 1040 323 1038 q 452 1043 412 1043 q 819 914 696 1043 q 941 545 941 785 q 882 248 941 373 q 711 56 822 123 q 448 -11 600 -11 q 329 -5 417 -11 q 189 0 231 0 l 132 0 l 132 1032 l 208 1032 m 459 101 q 697 207 610 104 q 784 523 784 310 q 743 764 784 673 q 622 894 703 854 q 416 934 541 934 q 283 923 336 934 l 283 114 q 363 103 315 106 q 459 101 411 100 m 1468 659 l 1095 659 l 1095 773 l 1645 773 l 1669 709 l 1296 165 l 1256 109 l 1655 109 l 1655 0 l 1082 0 l 1054 56 l 1468 659 z "},"ǅ":{"ha":1718,"x_min":132,"x_max":1669,"o":"m 208 1032 q 314 1037 246 1032 q 368 1040 323 1038 q 452 1043 412 1043 q 819 914 696 1043 q 941 545 941 785 q 882 248 941 373 q 711 56 822 123 q 448 -11 600 -11 q 329 -5 417 -11 q 189 0 231 0 l 132 0 l 132 1032 l 208 1032 m 459 101 q 697 207 610 104 q 784 523 784 310 q 743 764 784 673 q 622 894 703 854 q 416 934 541 934 q 283 923 336 934 l 283 114 q 363 103 315 106 q 459 101 411 100 m 1468 659 l 1095 659 l 1095 773 l 1645 773 l 1669 709 l 1296 165 l 1256 109 l 1655 109 l 1655 0 l 1082 0 l 1054 56 l 1468 659 m 1363 1008 l 1520 1159 l 1612 1121 l 1430 896 l 1296 896 l 1109 1122 l 1194 1160 l 1363 1008 z "},"E":{"ha":825,"x_min":132,"x_max":775,"o":"m 726 1032 l 726 916 l 283 916 l 283 590 l 608 590 l 608 473 l 283 473 l 283 119 l 775 119 l 775 0 l 132 0 l 132 1032 l 726 1032 z "},"É":{"ha":825,"x_min":132,"x_max":775,"o":"m 374 1129 q 509 1250 412 1163 q 607 1343 605 1337 l 706 1253 q 574 1144 656 1201 q 437 1067 493 1086 l 374 1129 m 726 1032 l 726 916 l 283 916 l 283 590 l 608 590 l 608 473 l 283 473 l 283 119 l 775 119 l 775 0 l 132 0 l 132 1032 l 726 1032 z "},"Ĕ":{"ha":825,"x_min":132,"x_max":775,"o":"m 333 1336 q 340 1291 334 1314 q 375 1246 347 1268 q 461 1224 404 1224 q 567 1261 543 1224 q 592 1336 591 1299 l 693 1336 q 694 1316 694 1329 q 665 1211 694 1259 q 583 1135 635 1163 q 461 1107 530 1107 q 337 1135 389 1107 q 256 1210 284 1162 q 229 1316 229 1258 q 229 1336 229 1329 l 333 1336 m 726 1032 l 726 916 l 283 916 l 283 590 l 608 590 l 608 473 l 283 473 l 283 119 l 775 119 l 775 0 l 132 0 l 132 1032 l 726 1032 z "},"Ě":{"ha":825,"x_min":132,"x_max":775,"o":"m 315 1350 l 462 1232 l 612 1350 l 693 1311 l 529 1133 l 395 1133 l 229 1309 l 315 1350 m 726 1032 l 726 916 l 283 916 l 283 590 l 608 590 l 608 473 l 283 473 l 283 119 l 775 119 l 775 0 l 132 0 l 132 1032 l 726 1032 z "},"Ê":{"ha":825,"x_min":132,"x_max":775,"o":"m 726 1032 l 726 916 l 283 916 l 283 590 l 608 590 l 608 473 l 283 473 l 283 119 l 775 119 l 775 0 l 132 0 l 132 1032 l 726 1032 m 394 1350 l 528 1350 l 705 1147 l 608 1107 l 461 1244 l 311 1107 l 218 1145 l 394 1350 z "},"Ë":{"ha":825,"x_min":132,"x_max":775,"o":"m 193 1221 q 208 1274 193 1250 q 248 1312 223 1298 q 300 1326 273 1326 q 370 1300 347 1326 q 394 1235 394 1275 q 379 1181 394 1204 q 339 1144 364 1157 q 286 1131 314 1131 q 220 1155 247 1131 q 193 1221 193 1180 m 529 1221 q 545 1274 529 1250 q 585 1312 560 1298 q 637 1326 610 1326 q 707 1300 683 1326 q 730 1235 730 1275 q 715 1181 730 1204 q 675 1144 701 1157 q 622 1131 650 1131 q 556 1155 583 1131 q 529 1221 529 1180 m 726 1032 l 726 916 l 283 916 l 283 590 l 608 590 l 608 473 l 283 473 l 283 119 l 775 119 l 775 0 l 132 0 l 132 1032 l 726 1032 z "},"Ė":{"ha":825,"x_min":132,"x_max":775,"o":"m 361 1222 q 376 1275 361 1251 q 417 1313 392 1299 q 469 1326 443 1326 q 539 1301 515 1326 q 564 1236 564 1276 q 548 1182 564 1206 q 508 1145 533 1158 q 455 1132 484 1132 q 388 1157 416 1132 q 361 1222 361 1181 m 726 1032 l 726 916 l 283 916 l 283 590 l 608 590 l 608 473 l 283 473 l 283 119 l 775 119 l 775 0 l 132 0 l 132 1032 l 726 1032 z "},"È":{"ha":825,"x_min":132,"x_max":775,"o":"m 486 1067 q 400 1112 454 1078 q 294 1184 346 1145 q 217 1253 242 1224 l 316 1343 q 414 1250 318 1337 q 549 1129 511 1163 l 486 1067 m 726 1032 l 726 916 l 283 916 l 283 590 l 608 590 l 608 473 l 283 473 l 283 119 l 775 119 l 775 0 l 132 0 l 132 1032 l 726 1032 z "},"Ē":{"ha":825,"x_min":132,"x_max":775,"o":"m 648 1282 l 648 1173 l 277 1173 l 277 1282 l 648 1282 m 726 1032 l 726 916 l 283 916 l 283 590 l 608 590 l 608 473 l 283 473 l 283 119 l 775 119 l 775 0 l 132 0 l 132 1032 l 726 1032 z "},"Ę":{"ha":825,"x_min":132,"x_max":775,"o":"m 742 0 q 635 -82 678 -35 q 592 -174 592 -130 q 615 -231 592 -216 q 679 -247 637 -247 q 773 -227 722 -247 l 773 -307 q 703 -337 746 -328 q 612 -347 659 -347 q 491 -312 537 -347 q 446 -210 446 -277 q 469 -127 446 -168 q 534 -54 493 -87 q 625 0 574 -21 l 132 0 l 132 1032 l 726 1032 l 726 916 l 283 916 l 283 590 l 608 590 l 608 473 l 283 473 l 283 119 l 775 119 l 775 0 l 742 0 z "},"F":{"ha":734,"x_min":132,"x_max":724,"o":"m 724 1032 l 724 916 l 283 916 l 283 577 l 614 577 l 614 460 l 283 460 l 283 0 l 132 0 l 132 1032 l 724 1032 z "},"Ḟ":{"ha":734,"x_min":132,"x_max":724,"o":"m 357 1222 q 373 1275 357 1251 q 414 1313 389 1299 q 466 1326 439 1326 q 536 1301 512 1326 q 560 1236 560 1276 q 545 1182 560 1206 q 505 1145 530 1158 q 452 1132 480 1132 q 385 1157 412 1132 q 357 1222 357 1181 m 724 1032 l 724 916 l 283 916 l 283 577 l 614 577 l 614 460 l 283 460 l 283 0 l 132 0 l 132 1032 l 724 1032 z "},"G":{"ha":972,"x_min":67,"x_max":893,"o":"m 893 516 l 893 64 q 864 58 880 63 q 824 43 849 54 q 699 4 761 19 q 545 -11 637 -11 q 288 56 396 -11 q 124 242 180 123 q 67 511 67 360 q 130 802 67 682 q 301 983 193 922 q 545 1043 409 1043 q 670 1036 623 1043 q 772 1016 717 1029 q 834 1002 812 1006 l 827 867 q 706 910 771 896 q 536 925 641 925 q 375 878 446 925 q 264 741 304 830 q 224 529 224 651 q 259 311 224 406 q 366 160 294 215 q 543 104 438 104 q 662 114 604 104 q 747 143 720 124 l 747 399 l 559 408 l 559 516 l 893 516 z "},"Ǵ":{"ha":972,"x_min":67,"x_max":893,"o":"m 893 516 l 893 64 q 864 58 880 63 q 824 43 849 54 q 699 4 761 19 q 545 -11 637 -11 q 288 56 396 -11 q 124 242 180 123 q 67 511 67 360 q 130 802 67 682 q 301 983 193 922 q 545 1043 409 1043 q 670 1036 623 1043 q 772 1016 717 1029 q 834 1002 812 1006 l 827 867 q 706 910 771 896 q 536 925 641 925 q 375 878 446 925 q 264 741 304 830 q 224 529 224 651 q 259 311 224 406 q 366 160 294 215 q 543 104 438 104 q 662 114 604 104 q 747 143 720 124 l 747 399 l 559 408 l 559 516 l 893 516 m 460 1129 q 595 1250 498 1163 q 693 1343 691 1337 l 792 1253 q 661 1144 742 1201 q 524 1067 579 1086 l 460 1129 z "},"Ğ":{"ha":972,"x_min":67,"x_max":893,"o":"m 419 1336 q 426 1291 420 1314 q 461 1246 433 1268 q 547 1224 490 1224 q 653 1261 629 1224 q 678 1336 677 1299 l 779 1336 q 780 1316 780 1329 q 751 1211 780 1259 q 669 1135 722 1163 q 547 1107 616 1107 q 423 1135 475 1107 q 342 1210 370 1162 q 315 1316 315 1258 q 315 1336 315 1329 l 419 1336 m 893 516 l 893 64 q 864 58 880 63 q 824 43 849 54 q 699 4 761 19 q 545 -11 637 -11 q 288 56 396 -11 q 124 242 180 123 q 67 511 67 360 q 130 802 67 682 q 301 983 193 922 q 545 1043 409 1043 q 670 1036 623 1043 q 772 1016 717 1029 q 834 1002 812 1006 l 827 867 q 706 910 771 896 q 536 925 641 925 q 375 878 446 925 q 264 741 304 830 q 224 529 224 651 q 259 311 224 406 q 366 160 294 215 q 543 104 438 104 q 662 114 604 104 q 747 143 720 124 l 747 399 l 559 408 l 559 516 l 893 516 z "},"Ǧ":{"ha":972,"x_min":67,"x_max":893,"o":"m 893 516 l 893 64 q 864 58 880 63 q 824 43 849 54 q 699 4 761 19 q 545 -11 637 -11 q 288 56 396 -11 q 124 242 180 123 q 67 511 67 360 q 130 802 67 682 q 301 983 193 922 q 545 1043 409 1043 q 670 1036 623 1043 q 772 1016 717 1029 q 834 1002 812 1006 l 827 867 q 706 910 771 896 q 536 925 641 925 q 375 878 446 925 q 264 741 304 830 q 224 529 224 651 q 259 311 224 406 q 366 160 294 215 q 543 104 438 104 q 662 114 604 104 q 747 143 720 124 l 747 399 l 559 408 l 559 516 l 893 516 m 401 1350 l 548 1232 l 698 1350 l 779 1311 l 615 1133 l 481 1133 l 315 1309 l 401 1350 z "},"Ĝ":{"ha":972,"x_min":67,"x_max":893,"o":"m 893 516 l 893 64 q 864 58 880 63 q 824 43 849 54 q 699 4 761 19 q 545 -11 637 -11 q 288 56 396 -11 q 124 242 180 123 q 67 511 67 360 q 130 802 67 682 q 301 983 193 922 q 545 1043 409 1043 q 670 1036 623 1043 q 772 1016 717 1029 q 834 1002 812 1006 l 827 867 q 706 910 771 896 q 536 925 641 925 q 375 878 446 925 q 264 741 304 830 q 224 529 224 651 q 259 311 224 406 q 366 160 294 215 q 543 104 438 104 q 662 114 604 104 q 747 143 720 124 l 747 399 l 559 408 l 559 516 l 893 516 m 480 1350 l 614 1350 l 791 1147 l 694 1107 l 547 1244 l 397 1107 l 304 1145 l 480 1350 z "},"Ģ":{"ha":972,"x_min":67,"x_max":893,"o":"m 486 -334 q 505 -294 497 -321 q 513 -236 513 -267 q 500 -182 513 -208 q 467 -152 487 -156 l 467 -118 l 574 -56 q 621 -107 602 -68 q 640 -199 640 -146 q 624 -281 640 -243 q 584 -344 608 -319 q 537 -380 560 -370 l 486 -352 l 486 -334 m 893 516 l 893 64 q 864 58 880 63 q 824 43 849 54 q 699 4 761 19 q 545 -11 637 -11 q 288 56 396 -11 q 124 242 180 123 q 67 511 67 360 q 130 802 67 682 q 301 983 193 922 q 545 1043 409 1043 q 670 1036 623 1043 q 772 1016 717 1029 q 834 1002 812 1006 l 827 867 q 706 910 771 896 q 536 925 641 925 q 375 878 446 925 q 264 741 304 830 q 224 529 224 651 q 259 311 224 406 q 366 160 294 215 q 543 104 438 104 q 662 114 604 104 q 747 143 720 124 l 747 399 l 559 408 l 559 516 l 893 516 z "},"Ġ":{"ha":972,"x_min":67,"x_max":893,"o":"m 447 1222 q 463 1275 447 1251 q 504 1313 478 1299 q 555 1326 529 1326 q 626 1301 602 1326 q 650 1236 650 1276 q 634 1182 650 1206 q 594 1145 619 1158 q 541 1132 570 1132 q 474 1157 502 1132 q 447 1222 447 1181 m 893 516 l 893 64 q 864 58 880 63 q 824 43 849 54 q 699 4 761 19 q 545 -11 637 -11 q 288 56 396 -11 q 124 242 180 123 q 67 511 67 360 q 130 802 67 682 q 301 983 193 922 q 545 1043 409 1043 q 670 1036 623 1043 q 772 1016 717 1029 q 834 1002 812 1006 l 827 867 q 706 910 771 896 q 536 925 641 925 q 375 878 446 925 q 264 741 304 830 q 224 529 224 651 q 259 311 224 406 q 366 160 294 215 q 543 104 438 104 q 662 114 604 104 q 747 143 720 124 l 747 399 l 559 408 l 559 516 l 893 516 z "},"Ḡ":{"ha":972,"x_min":67,"x_max":893,"o":"m 893 516 l 893 64 q 864 58 880 63 q 824 43 849 54 q 699 4 761 19 q 545 -11 637 -11 q 288 56 396 -11 q 124 242 180 123 q 67 511 67 360 q 130 802 67 682 q 301 983 193 922 q 545 1043 409 1043 q 670 1036 623 1043 q 772 1016 717 1029 q 834 1002 812 1006 l 827 867 q 706 910 771 896 q 536 925 641 925 q 375 878 446 925 q 264 741 304 830 q 224 529 224 651 q 259 311 224 406 q 366 160 294 215 q 543 104 438 104 q 662 114 604 104 q 747 143 720 124 l 747 399 l 559 408 l 559 516 l 893 516 m 734 1282 l 734 1173 l 363 1173 l 363 1282 l 734 1282 z "},"H":{"ha":1053,"x_min":132,"x_max":921,"o":"m 283 1032 l 283 580 l 770 580 l 770 1032 l 921 1032 l 921 0 l 770 0 l 770 463 l 283 463 l 283 0 l 132 0 l 132 1032 l 283 1032 z "},"Ħ":{"ha":1060,"x_min":5,"x_max":1057,"o":"m 1057 722 l 928 722 l 928 0 l 777 0 l 777 457 l 283 457 l 283 0 l 132 0 l 132 722 l 5 722 l 5 819 l 132 819 l 132 1032 l 283 1032 l 283 819 l 777 819 l 777 1032 l 928 1032 l 928 819 l 1057 819 l 1057 722 m 777 722 l 283 722 l 283 573 l 777 573 l 777 722 z "},"Ĥ":{"ha":1053,"x_min":132,"x_max":921,"o":"m 283 1032 l 283 580 l 770 580 l 770 1032 l 921 1032 l 921 0 l 770 0 l 770 463 l 283 463 l 283 0 l 132 0 l 132 1032 l 283 1032 m 459 1350 l 593 1350 l 770 1147 l 673 1107 l 526 1244 l 376 1107 l 283 1145 l 459 1350 z "},"I":{"ha":434,"x_min":140,"x_max":294,"o":"m 294 1032 l 294 0 l 140 0 l 140 1032 l 294 1032 z "},"Ĳ":{"ha":918,"x_min":140,"x_max":770,"o":"m 294 1032 l 294 0 l 140 0 l 140 1032 l 294 1032 m 406 -146 q 522 -76 469 -123 q 594 45 574 -28 q 612 177 608 96 q 616 388 616 257 l 616 412 l 616 1032 l 769 1032 l 769 416 l 770 271 q 767 153 770 203 q 756 58 764 102 q 692 -85 741 -24 q 578 -181 643 -146 q 452 -225 514 -216 l 406 -146 z "},"Í":{"ha":434,"x_min":131,"x_max":463,"o":"m 294 1032 l 294 0 l 140 0 l 140 1032 l 294 1032 m 131 1129 q 265 1250 169 1163 q 363 1343 361 1337 l 463 1253 q 331 1144 412 1201 q 194 1067 250 1086 l 131 1129 z "},"Ĭ":{"ha":434,"x_min":-15,"x_max":450,"o":"m 294 1032 l 294 0 l 140 0 l 140 1032 l 294 1032 m 90 1336 q 97 1291 90 1314 q 132 1246 103 1268 q 218 1224 160 1224 q 323 1261 300 1224 q 349 1336 347 1299 l 450 1336 q 450 1316 450 1329 q 421 1211 450 1259 q 339 1135 392 1163 q 218 1107 286 1107 q 93 1135 146 1107 q 13 1210 41 1162 q -15 1316 -15 1258 q -14 1336 -15 1329 l 90 1336 z "},"Ǐ":{"ha":434,"x_min":-15,"x_max":450,"o":"m 294 1032 l 294 0 l 140 0 l 140 1032 l 294 1032 m 72 1350 l 218 1232 l 368 1350 l 450 1311 l 286 1133 l 152 1133 l -15 1309 l 72 1350 z "},"Î":{"ha":434,"x_min":-25,"x_max":462,"o":"m 294 1032 l 294 0 l 140 0 l 140 1032 l 294 1032 m 151 1350 l 284 1350 l 462 1147 l 364 1107 l 218 1244 l 68 1107 l -25 1145 l 151 1350 z "},"Ï":{"ha":434,"x_min":-51,"x_max":487,"o":"m 294 1032 l 294 0 l 140 0 l 140 1032 l 294 1032 m -51 1221 q -36 1274 -51 1250 q 5 1312 -20 1298 q 57 1326 30 1326 q 127 1300 103 1326 q 151 1235 151 1275 q 136 1181 151 1204 q 96 1144 121 1157 q 42 1131 71 1131 q -24 1155 3 1131 q -51 1221 -51 1180 m 286 1221 q 301 1274 286 1250 q 342 1312 317 1298 q 393 1326 367 1326 q 463 1300 439 1326 q 487 1235 487 1275 q 472 1181 487 1204 q 432 1144 457 1157 q 378 1131 407 1131 q 313 1155 340 1131 q 286 1221 286 1180 z "},"İ":{"ha":434,"x_min":117,"x_max":320,"o":"m 294 1032 l 294 0 l 140 0 l 140 1032 l 294 1032 m 117 1222 q 133 1275 117 1251 q 174 1313 149 1299 q 226 1326 199 1326 q 296 1301 272 1326 q 320 1236 320 1276 q 305 1182 320 1206 q 265 1145 290 1158 q 212 1132 240 1132 q 145 1157 172 1132 q 117 1222 117 1181 z "},"Ì":{"ha":434,"x_min":-26,"x_max":305,"o":"m 294 1032 l 294 0 l 140 0 l 140 1032 l 294 1032 m 243 1067 q 157 1112 211 1078 q 51 1184 102 1145 q -26 1253 -1 1224 l 73 1343 q 171 1250 75 1337 q 305 1129 267 1163 l 243 1067 z "},"Ī":{"ha":434,"x_min":34,"x_max":405,"o":"m 294 1032 l 294 0 l 140 0 l 140 1032 l 294 1032 m 405 1282 l 405 1173 l 34 1173 l 34 1282 l 405 1282 z "},"Į":{"ha":434,"x_min":29,"x_max":363,"o":"m 269 -247 q 363 -227 313 -247 l 363 -307 q 296 -338 336 -328 q 210 -347 256 -347 q 117 -329 158 -347 q 53 -276 76 -311 q 29 -195 29 -241 q 68 -87 29 -140 q 163 0 108 -34 l 140 0 l 140 1032 l 294 1032 l 294 0 l 277 0 q 176 -164 176 -64 q 202 -227 176 -208 q 269 -247 229 -247 z "},"Ĩ":{"ha":434,"x_min":-64,"x_max":501,"o":"m 294 1032 l 294 0 l 140 0 l 140 1032 l 294 1032 m -64 1201 q -18 1269 -49 1238 q 52 1316 14 1299 q 127 1333 91 1333 q 192 1319 166 1333 q 248 1278 218 1305 q 288 1249 272 1258 q 324 1239 304 1239 q 387 1258 357 1239 q 443 1306 416 1277 l 501 1258 q 454 1191 486 1221 q 385 1143 423 1160 q 311 1126 347 1126 q 245 1141 271 1126 q 189 1183 219 1156 q 150 1214 166 1204 q 112 1224 133 1224 q -7 1155 56 1224 l -64 1201 z "},"J":{"ha":484,"x_min":-28,"x_max":336,"o":"m -28 -146 q 87 -76 35 -123 q 160 45 140 -28 q 178 177 174 96 q 182 388 182 257 l 182 412 l 182 1032 l 335 1032 l 335 416 l 336 271 q 333 153 336 203 q 322 58 330 102 q 258 -85 307 -24 q 144 -181 209 -146 q 18 -225 80 -216 l -28 -146 z "},"Ĵ":{"ha":484,"x_min":-28,"x_max":499,"o":"m -28 -146 q 87 -76 35 -123 q 160 45 140 -28 q 178 177 174 96 q 182 388 182 257 l 182 412 l 182 1032 l 335 1032 l 335 416 l 336 271 q 333 153 336 203 q 322 58 330 102 q 258 -85 307 -24 q 144 -181 209 -146 q 18 -225 80 -216 l -28 -146 m 188 1350 l 321 1350 l 499 1147 l 401 1107 l 255 1244 l 105 1107 l 12 1145 l 188 1350 z "},"K":{"ha":930,"x_min":132,"x_max":883,"o":"m 883 0 l 709 0 q 691 31 702 10 q 667 77 680 56 q 603 184 640 127 q 505 332 566 241 q 458 403 488 359 q 412 475 429 447 l 283 326 l 283 0 l 132 0 l 132 1032 l 283 1032 l 283 514 l 692 1032 l 870 1032 l 505 587 q 571 484 527 550 q 628 401 616 418 q 759 206 710 279 q 839 75 807 132 l 883 0 z "},"Ķ":{"ha":930,"x_min":132,"x_max":883,"o":"m 410 -334 q 429 -294 421 -321 q 437 -236 437 -267 q 424 -182 437 -208 q 391 -152 411 -156 l 391 -118 l 498 -56 q 545 -107 526 -68 q 564 -199 564 -146 q 548 -281 564 -243 q 508 -344 532 -319 q 461 -380 484 -370 l 410 -352 l 410 -334 m 883 0 l 709 0 q 691 31 702 10 q 667 77 680 56 q 603 184 640 127 q 505 332 566 241 q 458 403 488 359 q 412 475 429 447 l 283 326 l 283 0 l 132 0 l 132 1032 l 283 1032 l 283 514 l 692 1032 l 870 1032 l 505 587 q 571 484 527 550 q 628 401 616 418 q 759 206 710 279 q 839 75 807 132 l 883 0 z "},"L":{"ha":732,"x_min":132,"x_max":696,"o":"m 286 1032 l 286 119 l 696 119 l 696 0 l 132 0 l 132 1032 l 286 1032 z "},"Ǉ":{"ha":1216,"x_min":132,"x_max":1068,"o":"m 286 1032 l 286 119 l 696 119 l 696 0 l 132 0 l 132 1032 l 286 1032 m 704 -146 q 820 -76 767 -123 q 892 45 873 -28 q 910 177 907 96 q 914 388 914 257 l 914 412 l 914 1032 l 1067 1032 l 1067 416 l 1068 271 q 1065 153 1068 203 q 1055 58 1063 102 q 990 -85 1040 -24 q 877 -181 941 -146 q 750 -225 812 -216 l 704 -146 z "},"Ĺ":{"ha":732,"x_min":121,"x_max":696,"o":"m 121 1129 q 255 1250 159 1163 q 353 1343 351 1337 l 452 1253 q 321 1144 402 1201 q 184 1067 239 1086 l 121 1129 m 286 1032 l 286 119 l 696 119 l 696 0 l 132 0 l 132 1032 l 286 1032 z "},"Ľ":{"ha":732,"x_min":132,"x_max":696,"o":"m 286 1032 l 286 119 l 696 119 l 696 0 l 132 0 l 132 1032 l 286 1032 m 494 743 l 502 771 q 520 844 514 810 q 526 938 526 878 q 514 1017 526 976 q 489 1075 503 1058 l 498 1107 l 618 1144 q 649 1081 639 1125 q 660 981 660 1038 q 635 820 660 896 q 574 701 610 744 l 499 724 l 494 743 z "},"Ļ":{"ha":732,"x_min":132,"x_max":696,"o":"m 350 -334 q 369 -294 361 -321 q 376 -236 376 -267 q 363 -182 376 -208 q 331 -152 351 -156 l 331 -118 l 438 -56 q 485 -107 465 -68 q 504 -199 504 -146 q 488 -281 504 -243 q 448 -344 471 -319 q 401 -380 424 -370 l 350 -352 l 350 -334 m 286 1032 l 286 119 l 696 119 l 696 0 l 132 0 l 132 1032 l 286 1032 z "},"Ŀ":{"ha":920,"x_min":132,"x_max":823,"o":"m 614 569 q 629 627 614 600 q 670 669 645 653 q 723 685 695 685 q 797 654 770 685 q 823 579 823 624 q 807 521 823 547 q 767 479 792 494 q 713 464 741 464 q 664 478 687 464 q 627 516 641 492 q 614 569 614 540 m 286 1032 l 286 119 l 696 119 l 696 0 l 132 0 l 132 1032 l 286 1032 z "},"ǈ":{"ha":1122,"x_min":132,"x_max":1043,"o":"m 286 1032 l 286 119 l 696 119 l 696 0 l 132 0 l 132 1032 l 286 1032 m 679 -224 q 715 -235 690 -230 q 758 -239 741 -239 q 840 -189 817 -239 q 863 -33 863 -139 l 863 772 l 1013 772 l 1013 25 q 952 -257 1013 -170 q 773 -344 892 -344 q 718 -341 751 -344 q 679 -335 686 -339 l 679 -224 m 838 1005 q 853 1058 838 1034 q 895 1097 869 1082 q 947 1111 921 1111 q 1018 1085 994 1111 q 1043 1019 1043 1059 q 1027 965 1043 989 q 987 927 1012 941 q 933 913 962 913 q 886 925 907 913 q 851 957 864 936 q 838 1005 838 978 z "},"Ł":{"ha":732,"x_min":12,"x_max":696,"o":"m 696 119 l 696 0 l 132 0 l 132 416 l 48 385 l 12 477 l 132 522 l 132 1032 l 286 1032 l 286 578 l 551 676 l 587 583 l 286 473 l 286 119 l 696 119 z "},"M":{"ha":1304,"x_min":91,"x_max":1214,"o":"m 409 1032 l 600 443 l 654 224 l 705 443 l 888 1032 l 1090 1032 l 1214 0 l 1062 0 l 999 642 l 979 920 l 910 642 l 694 -10 l 613 -10 l 388 642 l 312 919 l 294 642 l 237 0 l 91 -1 l 195 1032 l 409 1032 z "},"Ṁ":{"ha":1304,"x_min":91,"x_max":1214,"o":"m 554 1222 q 570 1275 554 1251 q 611 1313 585 1299 q 663 1326 636 1326 q 733 1301 709 1326 q 757 1236 757 1276 q 742 1182 757 1206 q 702 1145 726 1158 q 648 1132 677 1132 q 582 1157 609 1132 q 554 1222 554 1181 m 409 1032 l 600 443 l 654 224 l 705 443 l 888 1032 l 1090 1032 l 1214 0 l 1062 0 l 999 642 l 979 920 l 910 642 l 694 -10 l 613 -10 l 388 642 l 312 919 l 294 642 l 237 0 l 91 -1 l 195 1032 l 409 1032 z "},"N":{"ha":1055,"x_min":131,"x_max":924,"o":"m 924 1032 l 924 0 l 784 0 l 357 656 l 262 825 l 270 646 l 270 0 l 131 0 l 131 1032 l 269 1032 l 711 351 l 795 198 l 785 370 l 785 1032 l 924 1032 z "},"Ǌ":{"ha":1539,"x_min":131,"x_max":1391,"o":"m 924 1032 l 924 0 l 784 0 l 357 656 l 262 825 l 270 646 l 270 0 l 131 0 l 131 1032 l 269 1032 l 711 351 l 795 198 l 785 370 l 785 1032 l 924 1032 m 1027 -146 q 1143 -76 1090 -123 q 1215 45 1196 -28 q 1233 177 1230 96 q 1237 388 1237 257 l 1237 412 l 1237 1032 l 1390 1032 l 1390 416 l 1391 271 q 1388 153 1391 203 q 1377 58 1385 102 q 1313 -85 1362 -24 q 1200 -181 1264 -146 q 1073 -225 1135 -216 l 1027 -146 z "},"Ń":{"ha":1055,"x_min":131,"x_max":924,"o":"m 450 1129 q 585 1250 488 1163 q 683 1343 681 1337 l 782 1253 q 650 1144 732 1201 q 513 1067 569 1086 l 450 1129 m 924 1032 l 924 0 l 784 0 l 357 656 l 262 825 l 270 646 l 270 0 l 131 0 l 131 1032 l 269 1032 l 711 351 l 795 198 l 785 370 l 785 1032 l 924 1032 z "},"Ň":{"ha":1055,"x_min":131,"x_max":924,"o":"m 391 1350 l 538 1232 l 688 1350 l 769 1311 l 605 1133 l 471 1133 l 304 1309 l 391 1350 m 924 1032 l 924 0 l 784 0 l 357 656 l 262 825 l 270 646 l 270 0 l 131 0 l 131 1032 l 269 1032 l 711 351 l 795 198 l 785 370 l 785 1032 l 924 1032 z "},"Ņ":{"ha":1055,"x_min":131,"x_max":924,"o":"m 445 -334 q 464 -294 456 -321 q 471 -236 471 -267 q 458 -182 471 -208 q 426 -152 446 -156 l 426 -118 l 533 -56 q 579 -107 560 -68 q 599 -199 599 -146 q 583 -281 599 -243 q 543 -344 566 -319 q 496 -380 519 -370 l 445 -352 l 445 -334 m 924 1032 l 924 0 l 784 0 l 357 656 l 262 825 l 270 646 l 270 0 l 131 0 l 131 1032 l 269 1032 l 711 351 l 795 198 l 785 370 l 785 1032 l 924 1032 z "},"Ṅ":{"ha":1055,"x_min":131,"x_max":924,"o":"m 924 1032 l 924 0 l 784 0 l 357 656 l 262 825 l 270 646 l 270 0 l 131 0 l 131 1032 l 269 1032 l 711 351 l 795 198 l 785 370 l 785 1032 l 924 1032 m 437 1222 q 452 1275 437 1251 q 493 1313 468 1299 q 545 1326 519 1326 q 615 1301 591 1326 q 640 1236 640 1276 q 624 1182 640 1206 q 584 1145 609 1158 q 531 1132 559 1132 q 464 1157 492 1132 q 437 1222 437 1181 z "},"Ŋ":{"ha":1074,"x_min":131,"x_max":943,"o":"m 943 271 q 940 138 943 192 q 926 37 937 83 q 850 -118 909 -51 q 713 -226 791 -186 q 559 -275 635 -266 l 520 -204 q 641 -149 580 -187 q 742 -63 702 -111 q 782 31 782 -15 l 356 662 l 273 810 l 279 648 l 279 0 l 132 0 l 131 1032 l 270 1032 l 729 345 l 804 204 l 794 367 l 794 1032 l 943 1032 l 943 366 l 943 271 z "},"ǋ":{"ha":1444,"x_min":131,"x_max":1366,"o":"m 924 1032 l 924 0 l 784 0 l 357 656 l 262 825 l 270 646 l 270 0 l 131 0 l 131 1032 l 269 1032 l 711 351 l 795 198 l 785 370 l 785 1032 l 924 1032 m 1002 -224 q 1038 -235 1013 -230 q 1081 -239 1064 -239 q 1163 -189 1140 -239 q 1186 -33 1186 -139 l 1186 772 l 1335 772 l 1335 25 q 1275 -257 1335 -170 q 1096 -344 1215 -344 q 1041 -341 1074 -344 q 1002 -335 1008 -339 l 1002 -224 m 1160 1005 q 1176 1058 1160 1034 q 1218 1097 1192 1082 q 1270 1111 1244 1111 q 1341 1085 1316 1111 q 1366 1019 1366 1059 q 1350 965 1366 989 q 1310 927 1335 941 q 1256 913 1284 913 q 1208 925 1230 913 q 1174 957 1187 936 q 1160 1005 1160 978 z "},"Ñ":{"ha":1055,"x_min":131,"x_max":924,"o":"m 255 1201 q 302 1269 271 1238 q 372 1316 333 1299 q 446 1333 410 1333 q 511 1319 486 1333 q 568 1278 537 1305 q 607 1249 591 1258 q 644 1239 623 1239 q 706 1258 677 1239 q 762 1306 735 1277 l 821 1258 q 774 1191 805 1221 q 704 1143 743 1160 q 630 1126 666 1126 q 565 1141 591 1126 q 509 1183 538 1156 q 469 1214 486 1204 q 431 1224 452 1224 q 313 1155 376 1224 l 255 1201 m 924 1032 l 924 0 l 784 0 l 357 656 l 262 825 l 270 646 l 270 0 l 131 0 l 131 1032 l 269 1032 l 711 351 l 795 198 l 785 370 l 785 1032 l 924 1032 z "},"O":{"ha":1064,"x_min":68,"x_max":996,"o":"m 68 508 q 131 801 68 680 q 303 982 195 922 q 548 1043 412 1043 q 783 980 682 1043 q 940 801 884 917 q 996 532 996 686 q 935 235 996 357 q 765 51 873 113 q 517 -11 656 -11 q 280 56 382 -11 q 123 240 178 122 q 68 508 68 358 m 843 524 q 808 726 843 634 q 706 873 774 819 q 543 928 639 928 q 380 882 453 928 q 263 743 307 836 q 220 514 220 650 q 256 311 220 404 q 363 161 292 218 q 532 105 433 105 q 697 153 627 105 q 805 295 767 201 q 843 524 843 389 z "},"Ó":{"ha":1064,"x_min":68,"x_max":996,"o":"m 461 1129 q 595 1250 499 1163 q 694 1343 692 1337 l 793 1253 q 661 1144 743 1201 q 524 1067 580 1086 l 461 1129 m 68 508 q 131 801 68 680 q 303 982 195 922 q 548 1043 412 1043 q 783 980 682 1043 q 940 801 884 917 q 996 532 996 686 q 935 235 996 357 q 765 51 873 113 q 517 -11 656 -11 q 280 56 382 -11 q 123 240 178 122 q 68 508 68 358 m 843 524 q 808 726 843 634 q 706 873 774 819 q 543 928 639 928 q 380 882 453 928 q 263 743 307 836 q 220 514 220 650 q 256 311 220 404 q 363 161 292 218 q 532 105 433 105 q 697 153 627 105 q 805 295 767 201 q 843 524 843 389 z "},"Ŏ":{"ha":1064,"x_min":68,"x_max":996,"o":"m 420 1336 q 427 1291 420 1314 q 462 1246 433 1268 q 548 1224 490 1224 q 654 1261 630 1224 q 679 1336 677 1299 l 780 1336 q 781 1316 781 1329 q 751 1211 781 1259 q 669 1135 722 1163 q 548 1107 616 1107 q 424 1135 476 1107 q 343 1210 371 1162 q 315 1316 315 1258 q 316 1336 315 1329 l 420 1336 m 68 508 q 131 801 68 680 q 303 982 195 922 q 548 1043 412 1043 q 783 980 682 1043 q 940 801 884 917 q 996 532 996 686 q 935 235 996 357 q 765 51 873 113 q 517 -11 656 -11 q 280 56 382 -11 q 123 240 178 122 q 68 508 68 358 m 843 524 q 808 726 843 634 q 706 873 774 819 q 543 928 639 928 q 380 882 453 928 q 263 743 307 836 q 220 514 220 650 q 256 311 220 404 q 363 161 292 218 q 532 105 433 105 q 697 153 627 105 q 805 295 767 201 q 843 524 843 389 z "},"Ǒ":{"ha":1064,"x_min":68,"x_max":996,"o":"m 68 508 q 131 801 68 680 q 303 982 195 922 q 548 1043 412 1043 q 783 980 682 1043 q 940 801 884 917 q 996 532 996 686 q 935 235 996 357 q 765 51 873 113 q 517 -11 656 -11 q 280 56 382 -11 q 123 240 178 122 q 68 508 68 358 m 843 524 q 808 726 843 634 q 706 873 774 819 q 543 928 639 928 q 380 882 453 928 q 263 743 307 836 q 220 514 220 650 q 256 311 220 404 q 363 161 292 218 q 532 105 433 105 q 697 153 627 105 q 805 295 767 201 q 843 524 843 389 m 402 1350 l 549 1232 l 699 1350 l 780 1311 l 616 1133 l 482 1133 l 315 1309 l 402 1350 z "},"Ô":{"ha":1064,"x_min":68,"x_max":996,"o":"m 68 508 q 131 801 68 680 q 303 982 195 922 q 548 1043 412 1043 q 783 980 682 1043 q 940 801 884 917 q 996 532 996 686 q 935 235 996 357 q 765 51 873 113 q 517 -11 656 -11 q 280 56 382 -11 q 123 240 178 122 q 68 508 68 358 m 843 524 q 808 726 843 634 q 706 873 774 819 q 543 928 639 928 q 380 882 453 928 q 263 743 307 836 q 220 514 220 650 q 256 311 220 404 q 363 161 292 218 q 532 105 433 105 q 697 153 627 105 q 805 295 767 201 q 843 524 843 389 m 481 1350 l 614 1350 l 792 1147 l 694 1107 l 548 1244 l 398 1107 l 305 1145 l 481 1350 z "},"Ö":{"ha":1064,"x_min":68,"x_max":996,"o":"m 279 1221 q 295 1274 279 1250 q 335 1312 310 1298 q 387 1326 360 1326 q 457 1300 433 1326 q 481 1235 481 1275 q 466 1181 481 1204 q 426 1144 451 1157 q 372 1131 401 1131 q 307 1155 334 1131 q 279 1221 279 1180 m 616 1221 q 631 1274 616 1250 q 672 1312 647 1298 q 724 1326 697 1326 q 793 1300 770 1326 q 817 1235 817 1275 q 802 1181 817 1204 q 762 1144 787 1157 q 709 1131 737 1131 q 643 1155 670 1131 q 616 1221 616 1180 m 68 508 q 131 801 68 680 q 303 982 195 922 q 548 1043 412 1043 q 783 980 682 1043 q 940 801 884 917 q 996 532 996 686 q 935 235 996 357 q 765 51 873 113 q 517 -11 656 -11 q 280 56 382 -11 q 123 240 178 122 q 68 508 68 358 m 843 524 q 808 726 843 634 q 706 873 774 819 q 543 928 639 928 q 380 882 453 928 q 263 743 307 836 q 220 514 220 650 q 256 311 220 404 q 363 161 292 218 q 532 105 433 105 q 697 153 627 105 q 805 295 767 201 q 843 524 843 389 z "},"Ò":{"ha":1064,"x_min":68,"x_max":996,"o":"m 573 1067 q 487 1112 541 1078 q 381 1184 433 1145 q 304 1253 329 1224 l 403 1343 q 501 1250 405 1337 q 635 1129 597 1163 l 573 1067 m 68 508 q 131 801 68 680 q 303 982 195 922 q 548 1043 412 1043 q 783 980 682 1043 q 940 801 884 917 q 996 532 996 686 q 935 235 996 357 q 765 51 873 113 q 517 -11 656 -11 q 280 56 382 -11 q 123 240 178 122 q 68 508 68 358 m 843 524 q 808 726 843 634 q 706 873 774 819 q 543 928 639 928 q 380 882 453 928 q 263 743 307 836 q 220 514 220 650 q 256 311 220 404 q 363 161 292 218 q 532 105 433 105 q 697 153 627 105 q 805 295 767 201 q 843 524 843 389 z "},"Ő":{"ha":1064,"x_min":68,"x_max":996,"o":"m 68 508 q 131 801 68 680 q 303 982 195 922 q 548 1043 412 1043 q 783 980 682 1043 q 940 801 884 917 q 996 532 996 686 q 935 235 996 357 q 765 51 873 113 q 517 -11 656 -11 q 280 56 382 -11 q 123 240 178 122 q 68 508 68 358 m 843 524 q 808 726 843 634 q 706 873 774 819 q 543 928 639 928 q 380 882 453 928 q 263 743 307 836 q 220 514 220 650 q 256 311 220 404 q 363 161 292 218 q 532 105 433 105 q 697 153 627 105 q 805 295 767 201 q 843 524 843 389 m 304 1160 q 376 1257 309 1164 q 445 1356 443 1350 l 562 1297 q 470 1185 517 1236 q 389 1113 424 1135 l 304 1160 m 622 1160 q 696 1255 627 1164 q 768 1351 766 1345 l 879 1291 q 793 1186 841 1236 q 707 1113 745 1135 l 622 1160 z "},"Ō":{"ha":1064,"x_min":68,"x_max":996,"o":"m 735 1282 l 735 1173 l 364 1173 l 364 1282 l 735 1282 m 68 508 q 131 801 68 680 q 303 982 195 922 q 548 1043 412 1043 q 783 980 682 1043 q 940 801 884 917 q 996 532 996 686 q 935 235 996 357 q 765 51 873 113 q 517 -11 656 -11 q 280 56 382 -11 q 123 240 178 122 q 68 508 68 358 m 843 524 q 808 726 843 634 q 706 873 774 819 q 543 928 639 928 q 380 882 453 928 q 263 743 307 836 q 220 514 220 650 q 256 311 220 404 q 363 161 292 218 q 532 105 433 105 q 697 153 627 105 q 805 295 767 201 q 843 524 843 389 z "},"Ø":{"ha":1064,"x_min":68,"x_max":996,"o":"m 751 998 q 882 893 827 960 q 967 735 937 827 q 996 533 996 643 q 934 235 996 357 q 763 51 872 113 q 515 -11 654 -11 q 393 5 453 -11 l 342 -136 l 258 -111 l 311 37 q 180 147 235 77 q 97 309 125 216 q 68 509 68 401 q 131 801 68 681 q 303 982 195 922 q 548 1043 412 1043 q 668 1029 612 1043 l 722 1179 l 807 1154 l 751 998 m 220 514 q 256 312 220 405 q 357 165 291 220 l 627 915 q 543 928 589 928 q 380 882 453 928 q 263 743 307 836 q 220 514 220 650 m 532 105 q 697 153 627 105 q 805 295 767 201 q 843 524 843 389 q 808 728 843 635 q 706 873 772 821 l 435 121 q 532 105 479 105 z "},"Ǿ":{"ha":1064,"x_min":68,"x_max":996,"o":"m 751 998 q 882 893 827 960 q 967 735 937 827 q 996 533 996 643 q 934 235 996 357 q 763 51 872 113 q 515 -11 654 -11 q 393 5 453 -11 l 342 -136 l 258 -111 l 311 37 q 180 147 235 77 q 97 309 125 216 q 68 509 68 401 q 131 801 68 681 q 303 982 195 922 q 548 1043 412 1043 q 668 1029 612 1043 l 722 1179 l 807 1154 l 751 998 m 220 514 q 256 312 220 405 q 357 165 291 220 l 627 915 q 543 928 589 928 q 380 882 453 928 q 263 743 307 836 q 220 514 220 650 m 532 105 q 697 153 627 105 q 805 295 767 201 q 843 524 843 389 q 808 728 843 635 q 706 873 772 821 l 435 121 q 532 105 479 105 m 393 1129 q 528 1250 431 1163 q 626 1343 624 1337 l 725 1253 q 593 1144 675 1201 q 456 1067 512 1086 l 393 1129 z "},"Õ":{"ha":1064,"x_min":68,"x_max":996,"o":"m 266 1201 q 313 1269 281 1238 q 382 1316 344 1299 q 457 1333 421 1333 q 522 1319 496 1333 q 578 1278 548 1305 q 618 1249 602 1258 q 654 1239 634 1239 q 717 1258 688 1239 q 773 1306 746 1277 l 831 1258 q 785 1191 816 1221 q 715 1143 753 1160 q 641 1126 677 1126 q 575 1141 602 1126 q 519 1183 549 1156 q 480 1214 496 1204 q 442 1224 463 1224 q 323 1155 387 1224 l 266 1201 m 68 508 q 131 801 68 680 q 303 982 195 922 q 548 1043 412 1043 q 783 980 682 1043 q 940 801 884 917 q 996 532 996 686 q 935 235 996 357 q 765 51 873 113 q 517 -11 656 -11 q 280 56 382 -11 q 123 240 178 122 q 68 508 68 358 m 843 524 q 808 726 843 634 q 706 873 774 819 q 543 928 639 928 q 380 882 453 928 q 263 743 307 836 q 220 514 220 650 q 256 311 220 404 q 363 161 292 218 q 532 105 433 105 q 697 153 627 105 q 805 295 767 201 q 843 524 843 389 z "},"Œ":{"ha":1399,"x_min":65,"x_max":1349,"o":"m 1349 119 l 1349 0 l 705 0 l 705 35 q 620 1 665 12 q 515 -11 574 -11 q 276 58 378 -11 q 119 248 174 127 q 68 522 65 370 q 132 803 71 688 q 299 978 193 918 q 546 1043 405 1038 q 627 1038 585 1044 q 705 1016 669 1032 l 705 1032 l 1299 1032 l 1299 916 l 857 916 l 857 590 l 1181 590 l 1181 473 l 857 473 l 857 119 l 1349 119 m 532 103 q 705 157 636 103 l 705 888 q 543 928 643 928 q 381 883 454 928 q 264 745 308 838 q 220 514 220 652 q 256 309 220 403 q 362 159 292 215 q 532 103 433 103 z "},"P":{"ha":861,"x_min":132,"x_max":811,"o":"m 203 1032 q 317 1038 239 1032 q 451 1043 401 1043 q 718 961 624 1043 q 811 709 811 880 q 766 517 811 596 q 632 396 721 437 q 416 354 544 354 q 309 357 360 354 l 283 357 l 283 0 l 132 0 l 132 1032 l 203 1032 m 408 465 q 537 485 482 465 q 627 558 593 505 q 661 707 661 612 q 601 880 661 825 q 424 935 542 935 q 283 922 334 935 l 283 472 q 408 465 333 465 z "},"Ṗ":{"ha":861,"x_min":132,"x_max":811,"o":"m 369 1222 q 385 1275 369 1251 q 426 1313 400 1299 q 477 1326 451 1326 q 548 1301 524 1326 q 572 1236 572 1276 q 556 1182 572 1206 q 516 1145 541 1158 q 463 1132 492 1132 q 396 1157 424 1132 q 369 1222 369 1181 m 203 1032 q 317 1038 239 1032 q 451 1043 401 1043 q 718 961 624 1043 q 811 709 811 880 q 766 517 811 596 q 632 396 721 437 q 416 354 544 354 q 309 357 360 354 l 283 357 l 283 0 l 132 0 l 132 1032 l 203 1032 m 408 465 q 537 485 482 465 q 627 558 593 505 q 661 707 661 612 q 601 880 661 825 q 424 935 542 935 q 283 922 334 935 l 283 472 q 408 465 333 465 z "},"Þ":{"ha":856,"x_min":132,"x_max":802,"o":"m 441 854 q 802 538 802 854 q 756 352 802 429 q 623 234 711 275 q 408 193 535 193 q 302 197 367 193 q 283 198 289 198 l 283 0 l 132 0 l 132 1032 l 283 1032 l 283 846 l 307 848 q 356 851 314 848 q 441 854 399 854 m 393 303 q 526 321 470 303 q 617 391 583 340 q 651 536 651 442 q 592 694 651 644 q 410 745 532 745 q 283 734 332 745 l 283 309 q 393 303 329 303 z "},"Q":{"ha":1064,"x_min":68,"x_max":1025,"o":"m 900 -77 q 1025 -64 987 -77 l 1025 -172 q 973 -191 1008 -183 q 901 -199 938 -199 q 759 -183 823 -199 q 635 -125 695 -167 q 520 -11 575 -84 q 282 55 385 -12 q 123 239 179 121 q 68 508 68 357 q 131 801 68 680 q 303 982 195 922 q 548 1043 412 1043 q 783 980 682 1043 q 940 801 884 917 q 996 532 996 686 q 955 282 996 390 q 839 106 913 174 q 664 9 764 37 q 768 -56 705 -35 q 900 -77 830 -77 m 220 514 q 256 311 220 404 q 363 161 292 218 q 532 105 433 105 q 697 153 627 105 q 805 295 767 201 q 843 524 843 389 q 808 726 843 634 q 706 873 774 819 q 543 928 639 928 q 380 882 453 928 q 263 743 307 836 q 220 514 220 650 z "},"R":{"ha":927,"x_min":132,"x_max":886,"o":"m 844 76 q 886 0 867 34 l 714 0 q 692 43 704 15 l 677 76 q 637 174 664 103 q 586 300 608 250 q 532 389 563 350 q 463 441 501 429 q 283 439 422 439 l 283 0 l 132 0 l 132 1032 l 197 1032 q 304 1037 234 1032 q 460 1043 412 1043 q 719 972 626 1043 q 812 753 812 901 q 763 570 812 642 q 625 467 715 498 q 682 407 656 446 q 730 325 709 368 q 781 211 751 281 q 844 76 823 115 m 283 547 q 442 543 319 543 q 602 592 546 543 q 657 745 657 641 q 635 851 657 810 q 565 912 613 892 q 438 932 517 932 q 283 920 343 932 l 283 547 z "},"Ŕ":{"ha":927,"x_min":132,"x_max":886,"o":"m 844 76 q 886 0 867 34 l 714 0 q 692 43 704 15 l 677 76 q 637 174 664 103 q 586 300 608 250 q 532 389 563 350 q 463 441 501 429 q 283 439 422 439 l 283 0 l 132 0 l 132 1032 l 197 1032 q 304 1037 234 1032 q 460 1043 412 1043 q 719 972 626 1043 q 812 753 812 901 q 763 570 812 642 q 625 467 715 498 q 682 407 656 446 q 730 325 709 368 q 781 211 751 281 q 844 76 823 115 m 283 547 q 442 543 319 543 q 602 592 546 543 q 657 745 657 641 q 635 851 657 810 q 565 912 613 892 q 438 932 517 932 q 283 920 343 932 l 283 547 m 395 1129 q 529 1250 433 1163 q 627 1343 625 1337 l 726 1253 q 595 1144 676 1201 q 458 1067 513 1086 l 395 1129 z "},"Ř":{"ha":927,"x_min":132,"x_max":886,"o":"m 336 1350 l 482 1232 l 632 1350 l 713 1311 l 549 1133 l 416 1133 l 249 1309 l 336 1350 m 844 76 q 886 0 867 34 l 714 0 q 692 43 704 15 l 677 76 q 637 174 664 103 q 586 300 608 250 q 532 389 563 350 q 463 441 501 429 q 283 439 422 439 l 283 0 l 132 0 l 132 1032 l 197 1032 q 304 1037 234 1032 q 460 1043 412 1043 q 719 972 626 1043 q 812 753 812 901 q 763 570 812 642 q 625 467 715 498 q 682 407 656 446 q 730 325 709 368 q 781 211 751 281 q 844 76 823 115 m 283 547 q 442 543 319 543 q 602 592 546 543 q 657 745 657 641 q 635 851 657 810 q 565 912 613 892 q 438 932 517 932 q 283 920 343 932 l 283 547 z "},"Ŗ":{"ha":927,"x_min":132,"x_max":886,"o":"m 408 -334 q 427 -294 419 -321 q 435 -236 435 -267 q 422 -182 435 -208 q 389 -152 409 -156 l 389 -118 l 496 -56 q 543 -107 524 -68 q 562 -199 562 -146 q 546 -281 562 -243 q 506 -344 530 -319 q 459 -380 482 -370 l 408 -352 l 408 -334 m 844 76 q 886 0 867 34 l 714 0 q 692 43 704 15 l 677 76 q 637 174 664 103 q 586 300 608 250 q 532 389 563 350 q 463 441 501 429 q 283 439 422 439 l 283 0 l 132 0 l 132 1032 l 197 1032 q 304 1037 234 1032 q 460 1043 412 1043 q 719 972 626 1043 q 812 753 812 901 q 763 570 812 642 q 625 467 715 498 q 682 407 656 446 q 730 325 709 368 q 781 211 751 281 q 844 76 823 115 m 283 547 q 442 543 319 543 q 602 592 546 543 q 657 745 657 641 q 635 851 657 810 q 565 912 613 892 q 438 932 517 932 q 283 920 343 932 l 283 547 z "},"S":{"ha":768,"x_min":85,"x_max":720,"o":"m 123 172 q 232 128 164 146 q 366 109 300 109 q 519 144 467 109 q 572 252 572 178 q 546 336 572 301 q 476 397 521 370 q 343 467 431 425 q 157 599 230 522 q 85 778 85 675 q 134 931 85 871 q 260 1017 182 990 q 428 1043 337 1043 q 574 1027 513 1043 q 668 989 635 1011 l 637 870 q 547 910 593 897 q 426 924 501 924 q 330 911 374 924 q 257 869 285 897 q 229 798 229 840 q 249 716 229 749 q 310 655 269 683 q 435 585 351 628 q 580 500 522 540 q 680 403 639 460 q 720 270 720 345 q 677 114 720 177 q 557 20 634 51 q 376 -11 479 -11 q 253 -1 313 -11 q 150 22 194 8 q 87 48 106 35 l 123 172 z "},"Ś":{"ha":768,"x_min":85,"x_max":720,"o":"m 123 172 q 232 128 164 146 q 366 109 300 109 q 519 144 467 109 q 572 252 572 178 q 546 336 572 301 q 476 397 521 370 q 343 467 431 425 q 157 599 230 522 q 85 778 85 675 q 134 931 85 871 q 260 1017 182 990 q 428 1043 337 1043 q 574 1027 513 1043 q 668 989 635 1011 l 637 870 q 547 910 593 897 q 426 924 501 924 q 330 911 374 924 q 257 869 285 897 q 229 798 229 840 q 249 716 229 749 q 310 655 269 683 q 435 585 351 628 q 580 500 522 540 q 680 403 639 460 q 720 270 720 345 q 677 114 720 177 q 557 20 634 51 q 376 -11 479 -11 q 253 -1 313 -11 q 150 22 194 8 q 87 48 106 35 l 123 172 m 322 1129 q 456 1250 360 1163 q 555 1343 553 1337 l 654 1253 q 522 1144 604 1201 q 385 1067 441 1086 l 322 1129 z "},"Š":{"ha":768,"x_min":85,"x_max":720,"o":"m 123 172 q 232 128 164 146 q 366 109 300 109 q 519 144 467 109 q 572 252 572 178 q 546 336 572 301 q 476 397 521 370 q 343 467 431 425 q 157 599 230 522 q 85 778 85 675 q 134 931 85 871 q 260 1017 182 990 q 428 1043 337 1043 q 574 1027 513 1043 q 668 989 635 1011 l 637 870 q 547 910 593 897 q 426 924 501 924 q 330 911 374 924 q 257 869 285 897 q 229 798 229 840 q 249 716 229 749 q 310 655 269 683 q 435 585 351 628 q 580 500 522 540 q 680 403 639 460 q 720 270 720 345 q 677 114 720 177 q 557 20 634 51 q 376 -11 479 -11 q 253 -1 313 -11 q 150 22 194 8 q 87 48 106 35 l 123 172 m 263 1350 l 410 1232 l 559 1350 l 641 1311 l 477 1133 l 343 1133 l 176 1309 l 263 1350 z "},"Ş":{"ha":768,"x_min":85,"x_max":720,"o":"m 720 270 q 643 74 720 144 q 431 -9 566 3 q 452 -122 452 -52 q 450 -155 452 -132 q 398 -275 444 -236 q 288 -315 352 -315 q 229 -309 259 -315 q 188 -296 199 -304 l 198 -199 q 254 -209 213 -209 q 313 -184 290 -209 q 340 -107 336 -159 q 343 -60 343 -85 q 338 -10 343 -32 q 185 12 255 -6 q 87 48 115 30 l 123 172 q 232 128 164 146 q 366 109 300 109 q 519 144 467 109 q 572 252 572 178 q 546 336 572 301 q 476 397 521 370 q 343 467 431 425 q 157 599 230 522 q 85 778 85 675 q 134 931 85 871 q 260 1017 182 990 q 428 1043 337 1043 q 574 1027 513 1043 q 668 989 635 1011 l 637 870 q 547 910 593 897 q 426 924 501 924 q 330 911 374 924 q 257 869 285 897 q 229 798 229 840 q 249 716 229 749 q 310 655 269 683 q 435 585 351 628 q 580 500 522 540 q 680 403 639 460 q 720 270 720 345 z "},"Ŝ":{"ha":768,"x_min":85,"x_max":720,"o":"m 123 172 q 232 128 164 146 q 366 109 300 109 q 519 144 467 109 q 572 252 572 178 q 546 336 572 301 q 476 397 521 370 q 343 467 431 425 q 157 599 230 522 q 85 778 85 675 q 134 931 85 871 q 260 1017 182 990 q 428 1043 337 1043 q 574 1027 513 1043 q 668 989 635 1011 l 637 870 q 547 910 593 897 q 426 924 501 924 q 330 911 374 924 q 257 869 285 897 q 229 798 229 840 q 249 716 229 749 q 310 655 269 683 q 435 585 351 628 q 580 500 522 540 q 680 403 639 460 q 720 270 720 345 q 677 114 720 177 q 557 20 634 51 q 376 -11 479 -11 q 253 -1 313 -11 q 150 22 194 8 q 87 48 106 35 l 123 172 m 342 1350 l 475 1350 l 653 1147 l 555 1107 l 409 1244 l 259 1107 l 166 1145 l 342 1350 z "},"Ș":{"ha":774,"x_min":88,"x_max":724,"o":"m 323 -334 q 342 -294 334 -321 q 350 -236 350 -267 q 337 -182 350 -208 q 304 -152 324 -156 l 304 -118 l 412 -56 q 458 -107 439 -68 q 477 -199 477 -146 q 461 -281 477 -243 q 421 -344 445 -319 q 374 -380 397 -370 l 323 -352 l 323 -334 m 126 172 q 235 128 168 146 q 370 109 303 109 q 523 144 470 109 q 575 252 575 178 q 550 336 575 301 q 479 397 524 370 q 347 467 435 425 q 161 599 233 522 q 88 778 88 675 q 137 931 88 871 q 263 1017 186 990 q 431 1043 340 1043 q 577 1027 516 1043 q 671 989 638 1011 l 641 870 q 551 910 597 897 q 429 924 505 924 q 333 911 378 924 q 260 869 288 897 q 233 798 233 840 q 252 716 233 749 q 313 655 272 683 q 438 585 354 628 q 584 500 525 540 q 683 403 642 460 q 724 270 724 345 q 681 114 724 177 q 560 20 637 51 q 380 -11 483 -11 q 257 -1 316 -11 q 154 22 197 8 q 90 48 110 35 l 126 172 z "},"Ṡ":{"ha":768,"x_min":85,"x_max":720,"o":"m 309 1222 q 324 1275 309 1251 q 365 1313 340 1299 q 417 1326 391 1326 q 487 1301 463 1326 q 511 1236 511 1276 q 496 1182 511 1206 q 456 1145 481 1158 q 403 1132 431 1132 q 336 1157 363 1132 q 309 1222 309 1181 m 123 172 q 232 128 164 146 q 366 109 300 109 q 519 144 467 109 q 572 252 572 178 q 546 336 572 301 q 476 397 521 370 q 343 467 431 425 q 157 599 230 522 q 85 778 85 675 q 134 931 85 871 q 260 1017 182 990 q 428 1043 337 1043 q 574 1027 513 1043 q 668 989 635 1011 l 637 870 q 547 910 593 897 q 426 924 501 924 q 330 911 374 924 q 257 869 285 897 q 229 798 229 840 q 249 716 229 749 q 310 655 269 683 q 435 585 351 628 q 580 500 522 540 q 680 403 639 460 q 720 270 720 345 q 677 114 720 177 q 557 20 634 51 q 376 -11 479 -11 q 253 -1 313 -11 q 150 22 194 8 q 87 48 106 35 l 123 172 z "},"ẞ":{"ha":1014,"x_min":71,"x_max":958,"o":"m 71 511 q 123 797 71 677 q 279 979 174 916 q 540 1043 384 1043 q 668 1032 616 1043 q 777 1001 721 1021 q 826 985 807 990 q 862 981 844 981 l 861 913 l 684 623 q 821 588 759 623 q 921 485 884 554 q 958 315 958 416 q 921 151 958 227 q 809 30 883 75 q 632 -16 736 -16 q 473 0 532 -16 q 368 43 414 15 l 423 161 q 504 119 448 137 q 612 101 559 101 q 709 125 664 101 q 782 197 754 149 q 810 314 810 245 q 783 444 810 397 q 691 513 755 492 q 514 535 627 534 l 520 591 l 691 890 q 627 921 665 910 q 544 932 588 932 q 382 894 454 932 q 268 779 310 856 q 226 589 226 701 l 226 0 l 71 0 l 71 511 z "},"T":{"ha":884,"x_min":43,"x_max":841,"o":"m 43 916 l 43 1032 l 841 1032 l 841 916 l 517 916 l 517 0 l 365 0 l 365 916 l 43 916 z "},"Ŧ":{"ha":884,"x_min":43,"x_max":841,"o":"m 517 916 l 517 540 l 718 540 l 718 441 l 517 441 l 517 0 l 365 0 l 365 441 l 169 441 l 169 540 l 365 540 l 365 916 l 43 916 l 43 1032 l 841 1032 l 841 916 l 517 916 z "},"Ť":{"ha":884,"x_min":43,"x_max":841,"o":"m 290 1350 l 437 1232 l 587 1350 l 668 1311 l 504 1133 l 370 1133 l 203 1309 l 290 1350 m 43 916 l 43 1032 l 841 1032 l 841 916 l 517 916 l 517 0 l 365 0 l 365 916 l 43 916 z "},"Ţ":{"ha":884,"x_min":43,"x_max":841,"o":"m 841 1032 l 841 916 l 517 916 l 517 0 l 484 0 q 509 -121 509 -46 q 507 -155 509 -132 q 455 -275 500 -236 q 345 -315 409 -315 q 286 -309 316 -315 q 245 -296 256 -304 l 255 -199 q 311 -209 270 -209 q 370 -184 347 -209 q 397 -107 393 -159 q 400 -60 400 -85 q 391 0 400 -25 l 365 0 l 365 916 l 43 916 l 43 1032 l 841 1032 z "},"Ț":{"ha":884,"x_min":43,"x_max":841,"o":"m 377 -334 q 396 -294 388 -321 q 404 -236 404 -267 q 391 -182 404 -208 q 358 -152 378 -156 l 358 -118 l 465 -56 q 512 -107 492 -68 q 531 -199 531 -146 q 515 -281 531 -243 q 475 -344 498 -319 q 428 -380 451 -370 l 377 -352 l 377 -334 m 43 916 l 43 1032 l 841 1032 l 841 916 l 517 916 l 517 0 l 365 0 l 365 916 l 43 916 z "},"Ṫ":{"ha":884,"x_min":43,"x_max":841,"o":"m 336 1222 q 351 1275 336 1251 q 392 1313 367 1299 q 444 1326 418 1326 q 514 1301 490 1326 q 538 1236 538 1276 q 523 1182 538 1206 q 483 1145 508 1158 q 430 1132 458 1132 q 363 1157 391 1132 q 336 1222 336 1181 m 43 916 l 43 1032 l 841 1032 l 841 916 l 517 916 l 517 0 l 365 0 l 365 916 l 43 916 z "},"U":{"ha":992,"x_min":107,"x_max":885,"o":"m 108 1032 l 259 1032 l 258 465 q 287 248 258 326 q 369 138 315 170 q 507 107 423 107 q 631 139 582 107 q 708 249 681 170 q 734 465 734 328 l 734 1032 l 885 1032 l 885 427 q 789 101 885 214 q 503 -11 694 -11 q 201 101 296 -11 q 108 429 107 213 l 108 1032 z "},"Ú":{"ha":992,"x_min":107,"x_max":885,"o":"m 418 1129 q 553 1250 456 1163 q 651 1343 649 1337 l 750 1253 q 618 1144 700 1201 q 481 1067 537 1086 l 418 1129 m 108 1032 l 259 1032 l 258 465 q 287 248 258 326 q 369 138 315 170 q 507 107 423 107 q 631 139 582 107 q 708 249 681 170 q 734 465 734 328 l 734 1032 l 885 1032 l 885 427 q 789 101 885 214 q 503 -11 694 -11 q 201 101 296 -11 q 108 429 107 213 l 108 1032 z "},"Ŭ":{"ha":992,"x_min":107,"x_max":885,"o":"m 377 1336 q 384 1291 378 1314 q 419 1246 391 1268 q 505 1224 448 1224 q 611 1261 587 1224 q 636 1336 635 1299 l 737 1336 q 738 1316 738 1329 q 709 1211 738 1259 q 627 1135 680 1163 q 505 1107 574 1107 q 381 1135 433 1107 q 300 1210 328 1162 q 273 1316 273 1258 q 273 1336 273 1329 l 377 1336 m 108 1032 l 259 1032 l 258 465 q 287 248 258 326 q 369 138 315 170 q 507 107 423 107 q 631 139 582 107 q 708 249 681 170 q 734 465 734 328 l 734 1032 l 885 1032 l 885 427 q 789 101 885 214 q 503 -11 694 -11 q 201 101 296 -11 q 108 429 107 213 l 108 1032 z "},"Ǔ":{"ha":992,"x_min":107,"x_max":885,"o":"m 108 1032 l 259 1032 l 258 465 q 287 248 258 326 q 369 138 315 170 q 507 107 423 107 q 631 139 582 107 q 708 249 681 170 q 734 465 734 328 l 734 1032 l 885 1032 l 885 427 q 789 101 885 214 q 503 -11 694 -11 q 201 101 296 -11 q 108 429 107 213 l 108 1032 m 359 1350 l 506 1232 l 656 1350 l 737 1311 l 573 1133 l 439 1133 l 273 1309 l 359 1350 z "},"Û":{"ha":992,"x_min":107,"x_max":885,"o":"m 108 1032 l 259 1032 l 258 465 q 287 248 258 326 q 369 138 315 170 q 507 107 423 107 q 631 139 582 107 q 708 249 681 170 q 734 465 734 328 l 734 1032 l 885 1032 l 885 427 q 789 101 885 214 q 503 -11 694 -11 q 201 101 296 -11 q 108 429 107 213 l 108 1032 m 438 1350 l 572 1350 l 749 1147 l 652 1107 l 505 1244 l 355 1107 l 262 1145 l 438 1350 z "},"Ü":{"ha":992,"x_min":107,"x_max":885,"o":"m 237 1221 q 252 1274 237 1250 q 292 1312 267 1298 q 345 1326 317 1326 q 414 1300 391 1326 q 438 1235 438 1275 q 423 1181 438 1204 q 383 1144 408 1157 q 330 1131 358 1131 q 264 1155 291 1131 q 237 1221 237 1180 m 573 1221 q 589 1274 573 1250 q 629 1312 604 1298 q 681 1326 654 1326 q 751 1300 727 1326 q 774 1235 774 1275 q 760 1181 774 1204 q 720 1144 745 1157 q 666 1131 694 1131 q 600 1155 627 1131 q 573 1221 573 1180 m 108 1032 l 259 1032 l 258 465 q 287 248 258 326 q 369 138 315 170 q 507 107 423 107 q 631 139 582 107 q 708 249 681 170 q 734 465 734 328 l 734 1032 l 885 1032 l 885 427 q 789 101 885 214 q 503 -11 694 -11 q 201 101 296 -11 q 108 429 107 213 l 108 1032 z "},"Ù":{"ha":992,"x_min":107,"x_max":885,"o":"m 530 1067 q 444 1112 498 1078 q 338 1184 390 1145 q 261 1253 286 1224 l 360 1343 q 458 1250 362 1337 q 593 1129 555 1163 l 530 1067 m 108 1032 l 259 1032 l 258 465 q 287 248 258 326 q 369 138 315 170 q 507 107 423 107 q 631 139 582 107 q 708 249 681 170 q 734 465 734 328 l 734 1032 l 885 1032 l 885 427 q 789 101 885 214 q 503 -11 694 -11 q 201 101 296 -11 q 108 429 107 213 l 108 1032 z "},"Ű":{"ha":992,"x_min":107,"x_max":885,"o":"m 108 1032 l 259 1032 l 258 465 q 287 248 258 326 q 369 138 315 170 q 507 107 423 107 q 631 139 582 107 q 708 249 681 170 q 734 465 734 328 l 734 1032 l 885 1032 l 885 427 q 789 101 885 214 q 503 -11 694 -11 q 201 101 296 -11 q 108 429 107 213 l 108 1032 m 262 1160 q 333 1257 266 1164 q 402 1356 400 1350 l 519 1297 q 428 1185 474 1236 q 346 1113 381 1135 l 262 1160 m 579 1160 q 653 1255 584 1164 q 726 1351 723 1345 l 836 1291 q 750 1186 798 1236 q 664 1113 702 1135 l 579 1160 z "},"Ū":{"ha":992,"x_min":107,"x_max":885,"o":"m 692 1282 l 692 1173 l 321 1173 l 321 1282 l 692 1282 m 108 1032 l 259 1032 l 258 465 q 287 248 258 326 q 369 138 315 170 q 507 107 423 107 q 631 139 582 107 q 708 249 681 170 q 734 465 734 328 l 734 1032 l 885 1032 l 885 427 q 789 101 885 214 q 503 -11 694 -11 q 201 101 296 -11 q 108 429 107 213 l 108 1032 z "},"Ų":{"ha":992,"x_min":107,"x_max":885,"o":"m 885 1032 l 885 427 q 823 148 885 254 q 635 6 760 41 q 561 -86 589 -37 q 532 -173 532 -135 q 555 -231 532 -215 q 619 -247 578 -247 q 713 -227 663 -247 l 713 -307 q 643 -337 686 -328 q 553 -347 600 -347 q 432 -309 478 -347 q 386 -201 386 -271 q 402 -135 386 -171 q 446 -66 418 -99 q 508 -11 474 -33 l 503 -11 q 201 101 296 -11 q 108 429 107 213 l 108 1032 l 259 1032 l 258 465 q 287 248 258 326 q 369 138 315 170 q 507 107 423 107 q 631 139 582 107 q 708 249 681 170 q 734 465 734 328 l 734 1032 l 885 1032 z "},"Ů":{"ha":992,"x_min":107,"x_max":885,"o":"m 108 1032 l 259 1032 l 258 465 q 287 248 258 326 q 369 138 315 170 q 507 107 423 107 q 631 139 582 107 q 708 249 681 170 q 734 465 734 328 l 734 1032 l 885 1032 l 885 427 q 789 101 885 214 q 503 -11 694 -11 q 201 101 296 -11 q 108 429 107 213 l 108 1032 m 288 1222 q 318 1326 288 1285 q 398 1385 349 1367 q 505 1404 448 1404 q 664 1358 605 1404 q 722 1227 722 1312 q 693 1123 722 1164 q 613 1061 663 1081 q 503 1041 564 1041 q 390 1063 438 1041 q 314 1126 341 1085 q 288 1222 288 1167 m 618 1225 q 585 1295 618 1271 q 500 1320 552 1320 q 424 1298 454 1320 q 393 1226 393 1276 q 424 1153 393 1180 q 506 1126 454 1126 q 588 1150 558 1126 q 618 1225 618 1173 z "},"Ũ":{"ha":992,"x_min":107,"x_max":885,"o":"m 223 1201 q 270 1269 239 1238 q 340 1316 301 1299 q 414 1333 378 1333 q 479 1319 454 1333 q 536 1278 505 1305 q 575 1249 559 1258 q 612 1239 591 1239 q 674 1258 645 1239 q 730 1306 703 1277 l 789 1258 q 742 1191 773 1221 q 672 1143 711 1160 q 598 1126 634 1126 q 533 1141 559 1126 q 477 1183 507 1156 q 437 1214 454 1204 q 399 1224 420 1224 q 281 1155 344 1224 l 223 1201 m 108 1032 l 259 1032 l 258 465 q 287 248 258 326 q 369 138 315 170 q 507 107 423 107 q 631 139 582 107 q 708 249 681 170 q 734 465 734 328 l 734 1032 l 885 1032 l 885 427 q 789 101 885 214 q 503 -11 694 -11 q 201 101 296 -11 q 108 429 107 213 l 108 1032 z "},"V":{"ha":919,"x_min":15,"x_max":904,"o":"m 176 1032 l 420 338 l 465 178 l 512 338 l 745 1032 l 904 1032 l 528 -9 l 401 -9 l 15 1032 l 176 1032 z "},"W":{"ha":1301,"x_min":15,"x_max":1286,"o":"m 1286 1032 l 1019 -11 l 871 -11 l 675 666 l 652 789 l 628 665 l 429 -11 l 299 -11 l 15 1032 l 170 1032 l 334 362 l 369 175 l 403 362 l 597 1032 l 707 1032 l 904 362 l 949 174 l 981 361 l 1134 1032 l 1286 1032 z "},"Ẃ":{"ha":1301,"x_min":15,"x_max":1286,"o":"m 564 1129 q 699 1250 602 1163 q 797 1343 795 1337 l 896 1253 q 764 1144 846 1201 q 627 1067 683 1086 l 564 1129 m 1286 1032 l 1019 -11 l 871 -11 l 675 666 l 652 789 l 628 665 l 429 -11 l 299 -11 l 15 1032 l 170 1032 l 334 362 l 369 175 l 403 362 l 597 1032 l 707 1032 l 904 362 l 949 174 l 981 361 l 1134 1032 l 1286 1032 z "},"Ŵ":{"ha":1301,"x_min":15,"x_max":1286,"o":"m 1286 1032 l 1019 -11 l 871 -11 l 675 666 l 652 789 l 628 665 l 429 -11 l 299 -11 l 15 1032 l 170 1032 l 334 362 l 369 175 l 403 362 l 597 1032 l 707 1032 l 904 362 l 949 174 l 981 361 l 1134 1032 l 1286 1032 m 584 1350 l 718 1350 l 895 1147 l 798 1107 l 651 1244 l 501 1107 l 408 1145 l 584 1350 z "},"Ẅ":{"ha":1301,"x_min":15,"x_max":1286,"o":"m 382 1221 q 398 1274 382 1250 q 438 1312 413 1298 q 490 1326 463 1326 q 560 1300 536 1326 q 584 1235 584 1275 q 569 1181 584 1204 q 529 1144 554 1157 q 475 1131 504 1131 q 410 1155 437 1131 q 382 1221 382 1180 m 719 1221 q 734 1274 719 1250 q 775 1312 750 1298 q 827 1326 800 1326 q 897 1300 873 1326 q 920 1235 920 1275 q 905 1181 920 1204 q 865 1144 890 1157 q 812 1131 840 1131 q 746 1155 773 1131 q 719 1221 719 1180 m 1286 1032 l 1019 -11 l 871 -11 l 675 666 l 652 789 l 628 665 l 429 -11 l 299 -11 l 15 1032 l 170 1032 l 334 362 l 369 175 l 403 362 l 597 1032 l 707 1032 l 904 362 l 949 174 l 981 361 l 1134 1032 l 1286 1032 z "},"Ẁ":{"ha":1301,"x_min":15,"x_max":1286,"o":"m 676 1067 q 590 1112 644 1078 q 484 1184 536 1145 q 407 1253 432 1224 l 506 1343 q 604 1250 508 1337 q 739 1129 701 1163 l 676 1067 m 1286 1032 l 1019 -11 l 871 -11 l 675 666 l 652 789 l 628 665 l 429 -11 l 299 -11 l 15 1032 l 170 1032 l 334 362 l 369 175 l 403 362 l 597 1032 l 707 1032 l 904 362 l 949 174 l 981 361 l 1134 1032 l 1286 1032 z "},"X":{"ha":891,"x_min":29,"x_max":863,"o":"m 863 0 l 690 0 l 508 304 l 437 420 l 369 304 l 191 0 l 29 0 l 355 533 l 31 1032 l 201 1033 l 369 760 l 452 623 l 694 1032 l 856 1032 l 532 511 l 863 0 z "},"Y":{"ha":857,"x_min":15,"x_max":842,"o":"m 508 403 l 508 0 l 355 0 l 355 403 l 15 1032 l 176 1032 l 406 585 l 435 513 l 459 585 l 684 1032 l 842 1032 l 508 403 z "},"Ý":{"ha":857,"x_min":15,"x_max":842,"o":"m 508 403 l 508 0 l 355 0 l 355 403 l 15 1032 l 176 1032 l 406 585 l 435 513 l 459 585 l 684 1032 l 842 1032 l 508 403 m 354 1129 q 488 1250 392 1163 q 587 1343 585 1337 l 686 1253 q 554 1144 635 1201 q 417 1067 473 1086 l 354 1129 z "},"Ŷ":{"ha":857,"x_min":15,"x_max":842,"o":"m 508 403 l 508 0 l 355 0 l 355 403 l 15 1032 l 176 1032 l 406 585 l 435 513 l 459 585 l 684 1032 l 842 1032 l 508 403 m 374 1350 l 507 1350 l 685 1147 l 587 1107 l 441 1244 l 291 1107 l 198 1145 l 374 1350 z "},"Ÿ":{"ha":857,"x_min":15,"x_max":842,"o":"m 508 403 l 508 0 l 355 0 l 355 403 l 15 1032 l 176 1032 l 406 585 l 435 513 l 459 585 l 684 1032 l 842 1032 l 508 403 m 172 1221 q 188 1274 172 1250 q 228 1312 203 1298 q 280 1326 253 1326 q 350 1300 326 1326 q 374 1235 374 1275 q 359 1181 374 1204 q 319 1144 344 1157 q 265 1131 294 1131 q 199 1155 227 1131 q 172 1221 172 1180 m 509 1221 q 524 1274 509 1250 q 565 1312 540 1298 q 616 1326 590 1326 q 686 1300 663 1326 q 710 1235 710 1275 q 695 1181 710 1204 q 655 1144 680 1157 q 602 1131 630 1131 q 536 1155 563 1131 q 509 1221 509 1180 z "},"Ẏ":{"ha":857,"x_min":15,"x_max":842,"o":"m 508 403 l 508 0 l 355 0 l 355 403 l 15 1032 l 176 1032 l 406 585 l 435 513 l 459 585 l 684 1032 l 842 1032 l 508 403 m 340 1222 q 356 1275 340 1251 q 397 1313 372 1299 q 449 1326 422 1326 q 519 1301 495 1326 q 543 1236 543 1276 q 528 1182 543 1206 q 488 1145 513 1158 q 435 1132 463 1132 q 368 1157 395 1132 q 340 1222 340 1181 z "},"Ỳ":{"ha":857,"x_min":15,"x_max":842,"o":"m 508 403 l 508 0 l 355 0 l 355 403 l 15 1032 l 176 1032 l 406 585 l 435 513 l 459 585 l 684 1032 l 842 1032 l 508 403 m 466 1067 q 380 1112 434 1078 q 274 1184 326 1145 q 197 1253 222 1224 l 296 1343 q 394 1250 298 1337 q 528 1129 490 1163 l 466 1067 z "},"Z":{"ha":878,"x_min":60,"x_max":825,"o":"m 587 863 l 627 911 l 118 911 l 118 1032 l 793 1032 l 825 977 l 309 176 l 259 119 l 785 119 l 785 0 l 91 0 l 60 57 l 587 863 z "},"Ź":{"ha":878,"x_min":60,"x_max":825,"o":"m 587 863 l 627 911 l 118 911 l 118 1032 l 793 1032 l 825 977 l 309 176 l 259 119 l 785 119 l 785 0 l 91 0 l 60 57 l 587 863 m 374 1129 q 508 1250 412 1163 q 606 1343 604 1337 l 705 1253 q 574 1144 655 1201 q 437 1067 492 1086 l 374 1129 z "},"Ž":{"ha":878,"x_min":60,"x_max":825,"o":"m 315 1350 l 461 1232 l 611 1350 l 692 1311 l 528 1133 l 395 1133 l 228 1309 l 315 1350 m 587 863 l 627 911 l 118 911 l 118 1032 l 793 1032 l 825 977 l 309 176 l 259 119 l 785 119 l 785 0 l 91 0 l 60 57 l 587 863 z "},"Ż":{"ha":878,"x_min":60,"x_max":825,"o":"m 360 1222 q 376 1275 360 1251 q 417 1313 391 1299 q 469 1326 442 1326 q 539 1301 515 1326 q 563 1236 563 1276 q 548 1182 563 1206 q 508 1145 532 1158 q 454 1132 483 1132 q 388 1157 415 1132 q 360 1222 360 1181 m 587 863 l 627 911 l 118 911 l 118 1032 l 793 1032 l 825 977 l 309 176 l 259 119 l 785 119 l 785 0 l 91 0 l 60 57 l 587 863 z "},"a":{"ha":767,"x_min":64,"x_max":658,"o":"m 382 785 q 532 764 472 785 q 625 690 591 744 q 658 538 658 636 l 658 -11 l 597 -11 q 551 -7 566 -11 q 526 12 535 -3 q 517 60 517 27 l 517 65 q 424 12 484 34 q 300 -11 365 -11 q 178 16 232 -11 q 94 91 124 42 q 64 207 64 140 q 103 334 64 280 q 214 416 143 387 q 357 454 277 441 q 509 467 437 467 l 509 545 q 491 626 509 599 q 439 663 474 653 q 344 672 405 672 q 269 663 311 672 q 190 641 227 654 q 135 616 153 628 l 98 713 q 162 741 116 724 q 268 771 209 758 q 382 785 328 785 m 345 100 q 412 110 376 100 q 474 133 447 119 q 509 155 500 146 l 509 372 q 397 362 459 372 q 297 334 335 353 q 233 288 256 315 q 211 220 211 262 q 345 100 211 100 z "},"á":{"ha":767,"x_min":64,"x_max":658,"o":"m 382 785 q 532 764 472 785 q 625 690 591 744 q 658 538 658 636 l 658 -11 l 597 -11 q 551 -7 566 -11 q 526 12 535 -3 q 517 60 517 27 l 517 65 q 424 12 484 34 q 300 -11 365 -11 q 178 16 232 -11 q 94 91 124 42 q 64 207 64 140 q 103 334 64 280 q 214 416 143 387 q 357 454 277 441 q 509 467 437 467 l 509 545 q 491 626 509 599 q 439 663 474 653 q 344 672 405 672 q 269 663 311 672 q 190 641 227 654 q 135 616 153 628 l 98 713 q 162 741 116 724 q 268 771 209 758 q 382 785 328 785 m 345 100 q 412 110 376 100 q 474 133 447 119 q 509 155 500 146 l 509 372 q 397 362 459 372 q 297 334 335 353 q 233 288 256 315 q 211 220 211 262 q 345 100 211 100 m 310 954 q 437 1097 391 1043 q 525 1209 484 1151 l 631 1118 q 561 1036 614 1090 q 451 934 507 981 q 371 878 395 886 l 296 939 l 310 954 z "},"ă":{"ha":767,"x_min":64,"x_max":658,"o":"m 382 785 q 532 764 472 785 q 625 690 591 744 q 658 538 658 636 l 658 -11 l 597 -11 q 551 -7 566 -11 q 526 12 535 -3 q 517 60 517 27 l 517 65 q 424 12 484 34 q 300 -11 365 -11 q 178 16 232 -11 q 94 91 124 42 q 64 207 64 140 q 103 334 64 280 q 214 416 143 387 q 357 454 277 441 q 509 467 437 467 l 509 545 q 491 626 509 599 q 439 663 474 653 q 344 672 405 672 q 269 663 311 672 q 190 641 227 654 q 135 616 153 628 l 98 713 q 162 741 116 724 q 268 771 209 758 q 382 785 328 785 m 345 100 q 412 110 376 100 q 474 133 447 119 q 509 155 500 146 l 509 372 q 397 362 459 372 q 297 334 335 353 q 233 288 256 315 q 211 220 211 262 q 345 100 211 100 m 256 1143 q 263 1087 256 1116 q 298 1031 269 1059 q 385 1004 326 1004 q 489 1050 466 1004 q 515 1143 513 1097 l 616 1143 q 617 1122 617 1136 q 587 1007 617 1061 q 504 920 557 953 q 384 887 451 887 q 260 920 313 887 q 179 1006 208 952 q 151 1122 151 1060 q 151 1143 151 1136 l 256 1143 z "},"ǎ":{"ha":767,"x_min":64,"x_max":658,"o":"m 382 785 q 532 764 472 785 q 625 690 591 744 q 658 538 658 636 l 658 -11 l 597 -11 q 551 -7 566 -11 q 526 12 535 -3 q 517 60 517 27 l 517 65 q 424 12 484 34 q 300 -11 365 -11 q 178 16 232 -11 q 94 91 124 42 q 64 207 64 140 q 103 334 64 280 q 214 416 143 387 q 357 454 277 441 q 509 467 437 467 l 509 545 q 491 626 509 599 q 439 663 474 653 q 344 672 405 672 q 269 663 311 672 q 190 641 227 654 q 135 616 153 628 l 98 713 q 162 741 116 724 q 268 771 209 758 q 382 785 328 785 m 345 100 q 412 110 376 100 q 474 133 447 119 q 509 155 500 146 l 509 372 q 397 362 459 372 q 297 334 335 353 q 233 288 256 315 q 211 220 211 262 q 345 100 211 100 m 386 1008 l 543 1159 l 635 1121 l 453 896 l 319 896 l 132 1122 l 217 1160 l 386 1008 z "},"â":{"ha":767,"x_min":64,"x_max":658,"o":"m 382 785 q 532 764 472 785 q 625 690 591 744 q 658 538 658 636 l 658 -11 l 597 -11 q 551 -7 566 -11 q 526 12 535 -3 q 517 60 517 27 l 517 65 q 424 12 484 34 q 300 -11 365 -11 q 178 16 232 -11 q 94 91 124 42 q 64 207 64 140 q 103 334 64 280 q 214 416 143 387 q 357 454 277 441 q 509 467 437 467 l 509 545 q 491 626 509 599 q 439 663 474 653 q 344 672 405 672 q 269 663 311 672 q 190 641 227 654 q 135 616 153 628 l 98 713 q 162 741 116 724 q 268 771 209 758 q 382 785 328 785 m 345 100 q 412 110 376 100 q 474 133 447 119 q 509 155 500 146 l 509 372 q 397 362 459 372 q 297 334 335 353 q 233 288 256 315 q 211 220 211 262 q 345 100 211 100 m 317 1141 l 452 1141 l 633 916 l 542 878 l 385 1028 l 216 877 l 130 915 l 317 1141 z "},"ä":{"ha":767,"x_min":64,"x_max":658,"o":"m 382 785 q 532 764 472 785 q 625 690 591 744 q 658 538 658 636 l 658 -11 l 597 -11 q 551 -7 566 -11 q 526 12 535 -3 q 517 60 517 27 l 517 65 q 424 12 484 34 q 300 -11 365 -11 q 178 16 232 -11 q 94 91 124 42 q 64 207 64 140 q 103 334 64 280 q 214 416 143 387 q 357 454 277 441 q 509 467 437 467 l 509 545 q 491 626 509 599 q 439 663 474 653 q 344 672 405 672 q 269 663 311 672 q 190 641 227 654 q 135 616 153 628 l 98 713 q 162 741 116 724 q 268 771 209 758 q 382 785 328 785 m 345 100 q 412 110 376 100 q 474 133 447 119 q 509 155 500 146 l 509 372 q 397 362 459 372 q 297 334 335 353 q 233 288 256 315 q 211 220 211 262 q 345 100 211 100 m 132 1013 q 148 1063 132 1040 q 187 1100 163 1086 q 237 1114 212 1114 q 303 1089 281 1114 q 326 1025 326 1065 q 311 973 326 996 q 272 937 296 950 q 221 924 248 924 q 158 948 183 924 q 132 1013 132 972 m 443 1013 q 458 1063 443 1040 q 498 1100 473 1086 q 548 1114 522 1114 q 614 1089 591 1114 q 636 1025 636 1064 q 622 973 636 996 q 583 937 607 950 q 532 924 559 924 q 468 948 494 924 q 443 1013 443 972 z "},"à":{"ha":767,"x_min":64,"x_max":658,"o":"m 382 785 q 532 764 472 785 q 625 690 591 744 q 658 538 658 636 l 658 -11 l 597 -11 q 551 -7 566 -11 q 526 12 535 -3 q 517 60 517 27 l 517 65 q 424 12 484 34 q 300 -11 365 -11 q 178 16 232 -11 q 94 91 124 42 q 64 207 64 140 q 103 334 64 280 q 214 416 143 387 q 357 454 277 441 q 509 467 437 467 l 509 545 q 491 626 509 599 q 439 663 474 653 q 344 672 405 672 q 269 663 311 672 q 190 641 227 654 q 135 616 153 628 l 98 713 q 162 741 116 724 q 268 771 209 758 q 382 785 328 785 m 345 100 q 412 110 376 100 q 474 133 447 119 q 509 155 500 146 l 509 372 q 397 362 459 372 q 297 334 335 353 q 233 288 256 315 q 211 220 211 262 q 345 100 211 100 m 383 878 q 302 935 357 890 q 196 1032 248 980 q 123 1118 144 1084 l 229 1209 q 437 964 295 1124 l 458 939 l 383 878 z "},"ā":{"ha":767,"x_min":64,"x_max":658,"o":"m 382 785 q 532 764 472 785 q 625 690 591 744 q 658 538 658 636 l 658 -11 l 597 -11 q 551 -7 566 -11 q 526 12 535 -3 q 517 60 517 27 l 517 65 q 424 12 484 34 q 300 -11 365 -11 q 178 16 232 -11 q 94 91 124 42 q 64 207 64 140 q 103 334 64 280 q 214 416 143 387 q 357 454 277 441 q 509 467 437 467 l 509 545 q 491 626 509 599 q 439 663 474 653 q 344 672 405 672 q 269 663 311 672 q 190 641 227 654 q 135 616 153 628 l 98 713 q 162 741 116 724 q 268 771 209 758 q 382 785 328 785 m 345 100 q 412 110 376 100 q 474 133 447 119 q 509 155 500 146 l 509 372 q 397 362 459 372 q 297 334 335 353 q 233 288 256 315 q 211 220 211 262 q 345 100 211 100 m 570 1077 l 570 966 l 199 966 l 199 1077 l 570 1077 z "},"ą":{"ha":767,"x_min":64,"x_max":707,"o":"m 612 -247 q 707 -227 656 -247 l 707 -307 q 636 -337 680 -328 q 546 -347 593 -347 q 425 -309 471 -347 q 379 -202 379 -271 q 401 -125 379 -164 q 460 -55 424 -87 q 538 -1 496 -22 q 523 21 528 7 q 517 60 517 35 l 517 65 q 424 12 484 34 q 300 -11 365 -11 q 178 16 232 -11 q 94 91 124 42 q 64 207 64 140 q 103 334 64 280 q 214 416 143 387 q 357 454 277 441 q 509 467 437 467 l 509 545 q 491 626 509 599 q 439 663 474 653 q 344 672 405 672 q 269 663 311 672 q 190 641 227 654 q 135 616 153 628 l 98 713 q 162 741 116 724 q 268 771 209 758 q 382 785 328 785 q 532 764 472 785 q 625 690 591 744 q 658 538 658 636 l 658 -11 l 648 -11 q 559 -87 592 -46 q 526 -174 526 -129 q 548 -231 526 -216 q 612 -247 571 -247 m 345 100 q 412 110 376 100 q 474 133 447 119 q 509 155 500 146 l 509 372 q 397 362 459 372 q 297 334 335 353 q 233 288 256 315 q 211 220 211 262 q 345 100 211 100 z "},"å":{"ha":767,"x_min":64,"x_max":658,"o":"m 382 785 q 532 764 472 785 q 625 690 591 744 q 658 538 658 636 l 658 -11 l 597 -11 q 551 -7 566 -11 q 526 12 535 -3 q 517 60 517 27 l 517 65 q 424 12 484 34 q 300 -11 365 -11 q 178 16 232 -11 q 94 91 124 42 q 64 207 64 140 q 103 334 64 280 q 214 416 143 387 q 357 454 277 441 q 509 467 437 467 l 509 545 q 491 626 509 599 q 439 663 474 653 q 344 672 405 672 q 269 663 311 672 q 190 641 227 654 q 135 616 153 628 l 98 713 q 162 741 116 724 q 268 771 209 758 q 382 785 328 785 m 345 100 q 412 110 376 100 q 474 133 447 119 q 509 155 500 146 l 509 372 q 397 362 459 372 q 297 334 335 353 q 233 288 256 315 q 211 220 211 262 q 345 100 211 100 m 167 1086 q 198 1190 167 1149 q 278 1251 229 1232 q 384 1270 327 1270 q 543 1223 484 1270 q 602 1090 602 1176 q 572 985 602 1028 q 493 922 543 943 q 382 901 443 901 q 269 923 318 901 q 194 988 220 946 q 167 1086 167 1030 m 497 1088 q 464 1160 497 1135 q 380 1186 431 1186 q 304 1163 335 1186 q 273 1090 273 1140 q 303 1015 273 1044 q 385 986 334 986 q 467 1011 437 986 q 497 1088 497 1036 z "},"ã":{"ha":767,"x_min":64,"x_max":665,"o":"m 382 785 q 532 764 472 785 q 625 690 591 744 q 658 538 658 636 l 658 -11 l 597 -11 q 551 -7 566 -11 q 526 12 535 -3 q 517 60 517 27 l 517 65 q 424 12 484 34 q 300 -11 365 -11 q 178 16 232 -11 q 94 91 124 42 q 64 207 64 140 q 103 334 64 280 q 214 416 143 387 q 357 454 277 441 q 509 467 437 467 l 509 545 q 491 626 509 599 q 439 663 474 653 q 344 672 405 672 q 269 663 311 672 q 190 641 227 654 q 135 616 153 628 l 98 713 q 162 741 116 724 q 268 771 209 758 q 382 785 328 785 m 345 100 q 412 110 376 100 q 474 133 447 119 q 509 155 500 146 l 509 372 q 397 362 459 372 q 297 334 335 353 q 233 288 256 315 q 211 220 211 262 q 345 100 211 100 m 100 985 q 143 1051 115 1021 q 207 1099 171 1081 q 283 1118 243 1118 q 350 1104 323 1118 q 407 1063 376 1090 q 446 1034 430 1044 q 483 1025 462 1025 q 551 1042 524 1025 q 607 1091 578 1060 l 665 1042 q 589 948 637 985 q 482 911 541 911 q 412 926 439 911 q 355 967 385 941 q 318 996 333 987 q 281 1005 302 1005 q 215 986 245 1005 q 157 939 184 968 l 100 985 z "},"æ":{"ha":1207,"x_min":64,"x_max":1141,"o":"m 1141 492 q 1140 407 1141 437 q 1134 354 1139 377 l 658 354 q 659 340 659 349 q 726 156 665 209 q 892 102 788 102 q 998 115 934 102 q 1088 144 1061 128 l 1117 58 q 1003 9 1080 28 q 854 -11 926 -11 q 585 110 673 -11 q 461 19 532 49 q 304 -11 389 -11 q 181 16 236 -11 q 95 91 126 42 q 64 207 64 140 q 104 333 64 279 q 214 416 145 387 q 509 467 334 467 l 509 545 q 493 626 509 599 q 445 663 477 653 q 357 672 414 672 q 239 653 309 672 q 138 614 170 633 l 102 713 q 169 741 120 724 q 279 771 218 758 q 394 785 340 785 q 534 763 480 785 q 616 688 589 742 q 723 759 661 734 q 863 784 785 784 q 1002 750 940 784 q 1101 651 1064 717 q 1141 492 1139 585 m 1002 453 q 1003 485 1003 475 q 968 625 1003 571 q 848 678 933 678 q 724 625 773 678 q 662 453 674 572 l 1002 453 m 342 100 q 456 126 397 100 q 543 189 515 151 q 511 373 513 269 l 511 372 q 393 362 450 372 q 297 334 336 353 q 235 288 256 315 q 214 220 214 262 q 244 130 214 160 q 342 100 275 100 z "},"ǽ":{"ha":1207,"x_min":64,"x_max":1141,"o":"m 539 954 q 666 1097 620 1043 q 754 1209 713 1151 l 860 1118 q 790 1036 844 1090 q 680 934 736 981 q 600 878 624 886 l 525 939 l 539 954 m 1141 492 q 1140 407 1141 437 q 1134 354 1139 377 l 658 354 q 659 340 659 349 q 726 156 665 209 q 892 102 788 102 q 998 115 934 102 q 1088 144 1061 128 l 1117 58 q 1003 9 1080 28 q 854 -11 926 -11 q 585 110 673 -11 q 461 19 532 49 q 304 -11 389 -11 q 181 16 236 -11 q 95 91 126 42 q 64 207 64 140 q 104 333 64 279 q 214 416 145 387 q 509 467 334 467 l 509 545 q 493 626 509 599 q 445 663 477 653 q 357 672 414 672 q 239 653 309 672 q 138 614 170 633 l 102 713 q 169 741 120 724 q 279 771 218 758 q 394 785 340 785 q 534 763 480 785 q 616 688 589 742 q 723 759 661 734 q 863 784 785 784 q 1002 750 940 784 q 1101 651 1064 717 q 1141 492 1139 585 m 1002 453 q 1003 485 1003 475 q 968 625 1003 571 q 848 678 933 678 q 724 625 773 678 q 662 453 674 572 l 1002 453 m 342 100 q 456 126 397 100 q 543 189 515 151 q 511 373 513 269 l 511 372 q 393 362 450 372 q 297 334 336 353 q 235 288 256 315 q 214 220 214 262 q 244 130 214 160 q 342 100 275 100 z "},"b":{"ha":840,"x_min":113,"x_max":774,"o":"m 469 784 q 622 743 553 784 q 732 619 691 702 q 774 415 774 536 q 725 194 774 291 q 588 42 677 96 q 384 -12 499 -12 q 276 -3 334 -12 q 174 20 219 7 q 113 43 128 33 l 113 1126 l 262 1126 l 262 806 l 256 699 q 342 760 292 735 q 469 784 392 784 m 622 402 q 572 601 622 536 q 427 667 522 667 q 336 648 378 667 q 262 604 294 629 l 262 125 q 401 98 300 98 q 515 133 465 98 q 593 237 565 168 q 622 402 622 305 z "},"ḃ":{"ha":840,"x_min":113,"x_max":774,"o":"m 469 784 q 622 743 553 784 q 732 619 691 702 q 774 415 774 536 q 725 194 774 291 q 588 42 677 96 q 384 -12 499 -12 q 276 -3 334 -12 q 174 20 219 7 q 113 43 128 33 l 113 1126 l 262 1126 l 262 806 l 256 699 q 342 760 292 735 q 469 784 392 784 m 622 402 q 572 601 622 536 q 427 667 522 667 q 336 648 378 667 q 262 604 294 629 l 262 125 q 401 98 300 98 q 515 133 465 98 q 593 237 565 168 q 622 402 622 305 m 401 1005 q 417 1058 401 1034 q 458 1097 433 1082 q 511 1111 484 1111 q 582 1085 557 1111 q 606 1019 606 1059 q 591 965 606 989 q 550 927 575 941 q 496 913 525 913 q 449 925 471 913 q 414 957 427 936 q 401 1005 401 978 z "},"c":{"ha":680,"x_min":66,"x_max":643,"o":"m 439 784 q 556 771 505 784 q 629 744 607 759 l 606 626 q 532 658 574 648 q 432 669 490 669 q 323 639 374 669 q 241 546 273 609 q 210 386 210 482 q 239 232 210 296 q 317 135 267 168 q 428 102 366 102 q 532 116 481 102 q 612 147 583 130 l 643 62 q 543 9 607 29 q 406 -11 478 -11 q 223 40 300 -11 q 106 178 146 90 q 66 378 66 267 q 108 586 66 494 q 235 731 151 678 q 439 784 319 784 z "},"ć":{"ha":680,"x_min":66,"x_max":662,"o":"m 341 954 q 468 1097 422 1043 q 556 1209 515 1151 l 662 1118 q 592 1036 646 1090 q 482 934 538 981 q 402 878 426 886 l 327 939 l 341 954 m 439 784 q 556 771 505 784 q 629 744 607 759 l 606 626 q 532 658 574 648 q 432 669 490 669 q 323 639 374 669 q 241 546 273 609 q 210 386 210 482 q 239 232 210 296 q 317 135 267 168 q 428 102 366 102 q 532 116 481 102 q 612 147 583 130 l 643 62 q 543 9 607 29 q 406 -11 478 -11 q 223 40 300 -11 q 106 178 146 90 q 66 378 66 267 q 108 586 66 494 q 235 731 151 678 q 439 784 319 784 z "},"č":{"ha":680,"x_min":66,"x_max":666,"o":"m 417 1008 l 574 1159 l 666 1121 l 484 896 l 350 896 l 163 1122 l 248 1160 l 417 1008 m 439 784 q 556 771 505 784 q 629 744 607 759 l 606 626 q 532 658 574 648 q 432 669 490 669 q 323 639 374 669 q 241 546 273 609 q 210 386 210 482 q 239 232 210 296 q 317 135 267 168 q 428 102 366 102 q 532 116 481 102 q 612 147 583 130 l 643 62 q 543 9 607 29 q 406 -11 478 -11 q 223 40 300 -11 q 106 178 146 90 q 66 378 66 267 q 108 586 66 494 q 235 731 151 678 q 439 784 319 784 z "},"ç":{"ha":680,"x_min":66,"x_max":643,"o":"m 643 62 q 557 14 612 33 q 439 -9 503 -5 q 459 -122 459 -54 q 458 -155 459 -132 q 405 -275 451 -236 q 295 -315 359 -315 q 237 -309 267 -315 q 195 -296 207 -304 l 205 -199 q 261 -209 220 -209 q 320 -184 297 -209 q 347 -107 344 -159 q 351 -60 351 -78 q 344 -6 351 -30 q 194 61 256 8 q 98 196 131 114 q 66 378 66 278 q 108 586 66 494 q 235 731 151 678 q 439 784 319 784 q 556 771 505 784 q 629 744 607 759 l 606 626 q 532 658 574 648 q 432 669 490 669 q 323 639 374 669 q 241 546 273 609 q 210 386 210 482 q 239 232 210 296 q 317 135 267 168 q 428 102 366 102 q 532 116 481 102 q 612 147 583 130 l 643 62 z "},"ĉ":{"ha":680,"x_min":66,"x_max":665,"o":"m 349 1141 l 483 1141 l 665 916 l 573 878 l 416 1028 l 247 877 l 161 915 l 349 1141 m 439 784 q 556 771 505 784 q 629 744 607 759 l 606 626 q 532 658 574 648 q 432 669 490 669 q 323 639 374 669 q 241 546 273 609 q 210 386 210 482 q 239 232 210 296 q 317 135 267 168 q 428 102 366 102 q 532 116 481 102 q 612 147 583 130 l 643 62 q 543 9 607 29 q 406 -11 478 -11 q 223 40 300 -11 q 106 178 146 90 q 66 378 66 267 q 108 586 66 494 q 235 731 151 678 q 439 784 319 784 z "},"ċ":{"ha":680,"x_min":66,"x_max":643,"o":"m 439 784 q 556 771 505 784 q 629 744 607 759 l 606 626 q 532 658 574 648 q 432 669 490 669 q 323 639 374 669 q 241 546 273 609 q 210 386 210 482 q 239 232 210 296 q 317 135 267 168 q 428 102 366 102 q 532 116 481 102 q 612 147 583 130 l 643 62 q 543 9 607 29 q 406 -11 478 -11 q 223 40 300 -11 q 106 178 146 90 q 66 378 66 267 q 108 586 66 494 q 235 731 151 678 q 439 784 319 784 m 312 1005 q 328 1058 312 1034 q 370 1097 344 1082 q 422 1111 395 1111 q 493 1085 468 1111 q 517 1019 517 1059 q 502 965 517 989 q 461 927 486 941 q 408 913 436 913 q 360 925 382 913 q 325 957 338 936 q 312 1005 312 978 z "},"d":{"ha":839,"x_min":66,"x_max":726,"o":"m 726 1128 l 726 -11 l 662 -11 q 620 -7 635 -11 q 594 10 604 -3 q 585 49 585 23 l 585 77 q 498 14 549 39 q 370 -11 448 -11 q 217 30 286 -11 q 107 154 149 71 q 66 358 66 237 q 114 579 66 482 q 250 730 162 676 q 453 784 338 784 q 579 765 518 784 l 577 806 l 577 1128 l 726 1128 m 218 371 q 268 172 218 237 q 412 106 317 106 q 504 125 461 106 q 577 169 546 144 l 577 642 q 523 667 557 659 q 438 675 489 675 q 325 640 375 675 q 246 536 275 605 q 218 371 218 467 z "},"ð":{"ha":807,"x_min":64,"x_max":755,"o":"m 457 1061 q 679 782 602 949 q 755 412 755 616 q 712 174 755 271 q 591 30 669 77 q 406 -18 513 -18 q 225 30 302 -18 q 106 167 148 78 q 64 375 64 256 q 107 592 64 500 q 229 733 151 684 q 410 783 307 783 q 491 769 454 783 q 556 732 528 756 q 483 870 530 806 q 375 987 436 935 l 284 886 l 206 947 l 296 1044 q 151 1116 223 1091 l 186 1201 q 368 1121 283 1171 q 421 1182 392 1147 q 458 1228 450 1217 l 538 1167 q 502 1126 530 1158 q 448 1067 474 1094 l 457 1061 m 608 469 q 604 576 608 530 q 577 621 599 599 q 515 657 555 642 q 417 671 474 671 q 264 592 316 671 q 212 380 212 513 q 235 227 212 294 q 305 122 258 160 q 418 84 351 84 q 517 120 475 84 q 584 222 560 156 q 607 376 607 288 l 608 469 z "},"ď":{"ha":1118,"x_min":66,"x_max":1048,"o":"m 726 1128 l 726 -11 l 662 -11 q 620 -7 635 -11 q 594 10 604 -3 q 585 49 585 23 l 585 77 q 498 14 549 39 q 370 -11 448 -11 q 217 30 286 -11 q 107 154 149 71 q 66 358 66 237 q 114 579 66 482 q 250 730 162 676 q 453 784 338 784 q 579 765 518 784 l 577 806 l 577 1128 l 726 1128 m 218 371 q 268 172 218 237 q 412 106 317 106 q 504 125 461 106 q 577 169 546 144 l 577 642 q 523 667 557 659 q 438 675 489 675 q 325 640 375 675 q 246 536 275 605 q 218 371 218 467 m 882 743 l 890 771 q 908 844 902 810 q 914 938 914 878 q 902 1017 914 976 q 877 1075 890 1058 l 886 1107 l 1006 1144 q 1037 1081 1027 1125 q 1048 981 1048 1038 q 1023 820 1048 896 q 962 701 998 744 l 887 724 l 882 743 z "},"đ":{"ha":839,"x_min":66,"x_max":822,"o":"m 822 886 l 726 886 l 726 -11 l 662 -11 q 620 -7 635 -11 q 594 10 604 -3 q 585 49 585 23 l 585 77 q 498 14 549 39 q 370 -11 448 -11 q 217 30 286 -11 q 107 154 149 71 q 66 358 66 237 q 114 579 66 482 q 250 730 162 676 q 453 784 338 784 q 579 765 518 784 l 577 806 l 577 886 l 394 886 l 394 981 l 577 981 l 577 1128 l 726 1128 l 726 981 l 822 981 l 822 886 m 218 371 q 268 172 218 237 q 412 106 317 106 q 504 125 461 106 q 577 169 546 144 l 577 642 q 523 667 557 659 q 438 675 489 675 q 325 640 375 675 q 246 536 275 605 q 218 371 218 467 z "},"ḋ":{"ha":839,"x_min":66,"x_max":726,"o":"m 726 1128 l 726 -11 l 662 -11 q 620 -7 635 -11 q 594 10 604 -3 q 585 49 585 23 l 585 77 q 498 14 549 39 q 370 -11 448 -11 q 217 30 286 -11 q 107 154 149 71 q 66 358 66 237 q 114 579 66 482 q 250 730 162 676 q 453 784 338 784 q 579 765 518 784 l 577 806 l 577 1128 l 726 1128 m 218 371 q 268 172 218 237 q 412 106 317 106 q 504 125 461 106 q 577 169 546 144 l 577 642 q 523 667 557 659 q 438 675 489 675 q 325 640 375 675 q 246 536 275 605 q 218 371 218 467 m 142 1005 q 158 1058 142 1034 q 199 1097 174 1082 q 252 1111 225 1111 q 322 1085 298 1111 q 347 1019 347 1059 q 332 965 347 989 q 291 927 316 941 q 237 913 266 913 q 190 925 212 913 q 155 957 168 936 q 142 1005 142 978 z "},"ǳ":{"ha":1558,"x_min":66,"x_max":1510,"o":"m 726 1128 l 726 -11 l 662 -11 q 620 -7 635 -11 q 594 10 604 -3 q 585 49 585 23 l 585 77 q 498 14 549 39 q 370 -11 448 -11 q 217 30 286 -11 q 107 154 149 71 q 66 358 66 237 q 114 579 66 482 q 250 730 162 676 q 453 784 338 784 q 579 765 518 784 l 577 806 l 577 1128 l 726 1128 m 218 371 q 268 172 218 237 q 412 106 317 106 q 504 125 461 106 q 577 169 546 144 l 577 642 q 523 667 557 659 q 438 675 489 675 q 325 640 375 675 q 246 536 275 605 q 218 371 218 467 m 1308 659 l 935 659 l 935 773 l 1486 773 l 1510 709 l 1137 165 l 1097 109 l 1496 109 l 1496 0 l 923 0 l 895 56 l 1308 659 z "},"ǆ":{"ha":1558,"x_min":66,"x_max":1510,"o":"m 726 1128 l 726 -11 l 662 -11 q 620 -7 635 -11 q 594 10 604 -3 q 585 49 585 23 l 585 77 q 498 14 549 39 q 370 -11 448 -11 q 217 30 286 -11 q 107 154 149 71 q 66 358 66 237 q 114 579 66 482 q 250 730 162 676 q 453 784 338 784 q 579 765 518 784 l 577 806 l 577 1128 l 726 1128 m 218 371 q 268 172 218 237 q 412 106 317 106 q 504 125 461 106 q 577 169 546 144 l 577 642 q 523 667 557 659 q 438 675 489 675 q 325 640 375 675 q 246 536 275 605 q 218 371 218 467 m 1308 659 l 935 659 l 935 773 l 1486 773 l 1510 709 l 1137 165 l 1097 109 l 1496 109 l 1496 0 l 923 0 l 895 56 l 1308 659 m 1204 1008 l 1361 1159 l 1453 1121 l 1271 896 l 1137 896 l 949 1122 l 1035 1160 l 1204 1008 z "},"e":{"ha":762,"x_min":66,"x_max":696,"o":"m 696 492 q 694 407 696 437 q 688 354 693 377 l 212 354 q 212 340 212 349 q 448 102 224 102 q 551 115 489 102 q 641 144 614 127 l 669 58 q 556 8 632 28 q 408 -11 480 -11 q 222 36 299 -11 q 106 173 146 83 q 66 388 66 262 q 105 591 66 502 q 223 731 145 680 q 411 784 300 782 q 553 752 489 785 q 655 652 616 719 q 696 492 693 586 m 556 453 q 557 485 557 475 q 523 625 557 571 q 403 678 488 678 q 278 625 328 678 q 216 453 228 572 l 556 453 z "},"é":{"ha":762,"x_min":66,"x_max":696,"o":"m 331 954 q 458 1097 412 1043 q 546 1209 505 1151 l 652 1118 q 582 1036 635 1090 q 472 934 528 981 q 392 878 416 886 l 317 939 l 331 954 m 696 492 q 694 407 696 437 q 688 354 693 377 l 212 354 q 212 340 212 349 q 448 102 224 102 q 551 115 489 102 q 641 144 614 127 l 669 58 q 556 8 632 28 q 408 -11 480 -11 q 222 36 299 -11 q 106 173 146 83 q 66 388 66 262 q 105 591 66 502 q 223 731 145 680 q 411 784 300 782 q 553 752 489 785 q 655 652 616 719 q 696 492 693 586 m 556 453 q 557 485 557 475 q 523 625 557 571 q 403 678 488 678 q 278 625 328 678 q 216 453 228 572 l 556 453 z "},"ĕ":{"ha":762,"x_min":66,"x_max":696,"o":"m 696 492 q 694 407 696 437 q 688 354 693 377 l 212 354 q 212 340 212 349 q 448 102 224 102 q 551 115 489 102 q 641 144 614 127 l 669 58 q 556 8 632 28 q 408 -11 480 -11 q 222 36 299 -11 q 106 173 146 83 q 66 388 66 262 q 105 591 66 502 q 223 731 145 680 q 411 784 300 782 q 553 752 489 785 q 655 652 616 719 q 696 492 693 586 m 556 453 q 557 485 557 475 q 523 625 557 571 q 403 678 488 678 q 278 625 328 678 q 216 453 228 572 l 556 453 m 277 1143 q 284 1087 277 1116 q 319 1031 290 1059 q 406 1004 347 1004 q 510 1050 487 1004 q 536 1143 534 1097 l 637 1143 q 638 1122 638 1136 q 608 1007 638 1061 q 525 920 578 953 q 405 887 472 887 q 281 920 334 887 q 200 1006 229 952 q 172 1122 172 1060 q 172 1143 172 1136 l 277 1143 z "},"ě":{"ha":762,"x_min":66,"x_max":696,"o":"m 407 1008 l 564 1159 l 656 1121 l 474 896 l 340 896 l 153 1122 l 238 1160 l 407 1008 m 696 492 q 694 407 696 437 q 688 354 693 377 l 212 354 q 212 340 212 349 q 448 102 224 102 q 551 115 489 102 q 641 144 614 127 l 669 58 q 556 8 632 28 q 408 -11 480 -11 q 222 36 299 -11 q 106 173 146 83 q 66 388 66 262 q 105 591 66 502 q 223 731 145 680 q 411 784 300 782 q 553 752 489 785 q 655 652 616 719 q 696 492 693 586 m 556 453 q 557 485 557 475 q 523 625 557 571 q 403 678 488 678 q 278 625 328 678 q 216 453 228 572 l 556 453 z "},"ê":{"ha":762,"x_min":66,"x_max":696,"o":"m 338 1141 l 473 1141 l 654 916 l 563 878 l 406 1028 l 237 877 l 151 915 l 338 1141 m 696 492 q 694 407 696 437 q 688 354 693 377 l 212 354 q 212 340 212 349 q 448 102 224 102 q 551 115 489 102 q 641 144 614 127 l 669 58 q 556 8 632 28 q 408 -11 480 -11 q 222 36 299 -11 q 106 173 146 83 q 66 388 66 262 q 105 591 66 502 q 223 731 145 680 q 411 784 300 782 q 553 752 489 785 q 655 652 616 719 q 696 492 693 586 m 556 453 q 557 485 557 475 q 523 625 557 571 q 403 678 488 678 q 278 625 328 678 q 216 453 228 572 l 556 453 z "},"ë":{"ha":762,"x_min":66,"x_max":696,"o":"m 153 1013 q 169 1063 153 1040 q 208 1100 184 1086 q 258 1114 233 1114 q 325 1089 302 1114 q 347 1025 347 1065 q 332 973 347 996 q 293 937 317 950 q 242 924 269 924 q 179 948 204 924 q 153 1013 153 972 m 464 1013 q 479 1063 464 1040 q 519 1100 494 1086 q 569 1114 543 1114 q 635 1089 612 1114 q 657 1025 657 1064 q 643 973 657 996 q 604 937 628 950 q 553 924 580 924 q 489 948 515 924 q 464 1013 464 972 m 696 492 q 694 407 696 437 q 688 354 693 377 l 212 354 q 212 340 212 349 q 448 102 224 102 q 551 115 489 102 q 641 144 614 127 l 669 58 q 556 8 632 28 q 408 -11 480 -11 q 222 36 299 -11 q 106 173 146 83 q 66 388 66 262 q 105 591 66 502 q 223 731 145 680 q 411 784 300 782 q 553 752 489 785 q 655 652 616 719 q 696 492 693 586 m 556 453 q 557 485 557 475 q 523 625 557 571 q 403 678 488 678 q 278 625 328 678 q 216 453 228 572 l 556 453 z "},"ė":{"ha":762,"x_min":66,"x_max":696,"o":"m 696 492 q 694 407 696 437 q 688 354 693 377 l 212 354 q 212 340 212 349 q 448 102 224 102 q 551 115 489 102 q 641 144 614 127 l 669 58 q 556 8 632 28 q 408 -11 480 -11 q 222 36 299 -11 q 106 173 146 83 q 66 388 66 262 q 105 591 66 502 q 223 731 145 680 q 411 784 300 782 q 553 752 489 785 q 655 652 616 719 q 696 492 693 586 m 556 453 q 557 485 557 475 q 523 625 557 571 q 403 678 488 678 q 278 625 328 678 q 216 453 228 572 l 556 453 m 302 1005 q 318 1058 302 1034 q 359 1097 334 1082 q 412 1111 385 1111 q 483 1085 458 1111 q 507 1019 507 1059 q 492 965 507 989 q 451 927 476 941 q 397 913 426 913 q 350 925 372 913 q 315 957 328 936 q 302 1005 302 978 z "},"è":{"ha":762,"x_min":66,"x_max":696,"o":"m 696 492 q 694 407 696 437 q 688 354 693 377 l 212 354 q 212 340 212 349 q 448 102 224 102 q 551 115 489 102 q 641 144 614 127 l 669 58 q 556 8 632 28 q 408 -11 480 -11 q 222 36 299 -11 q 106 173 146 83 q 66 388 66 262 q 105 591 66 502 q 223 731 145 680 q 411 784 300 782 q 553 752 489 785 q 655 652 616 719 q 696 492 693 586 m 556 453 q 557 485 557 475 q 523 625 557 571 q 403 678 488 678 q 278 625 328 678 q 216 453 228 572 l 556 453 m 404 878 q 323 935 378 890 q 217 1032 269 980 q 144 1118 165 1084 l 250 1209 q 458 964 316 1124 l 479 939 l 404 878 z "},"ē":{"ha":762,"x_min":66,"x_max":696,"o":"m 696 492 q 694 407 696 437 q 688 354 693 377 l 212 354 q 212 340 212 349 q 448 102 224 102 q 551 115 489 102 q 641 144 614 127 l 669 58 q 556 8 632 28 q 408 -11 480 -11 q 222 36 299 -11 q 106 173 146 83 q 66 388 66 262 q 105 591 66 502 q 223 731 145 680 q 411 784 300 782 q 553 752 489 785 q 655 652 616 719 q 696 492 693 586 m 556 453 q 557 485 557 475 q 523 625 557 571 q 403 678 488 678 q 278 625 328 678 q 216 453 228 572 l 556 453 m 591 1077 l 591 966 l 220 966 l 220 1077 l 591 1077 z "},"ę":{"ha":762,"x_min":66,"x_max":696,"o":"m 696 492 q 694 407 696 437 q 688 354 693 377 l 212 354 q 212 340 212 349 q 448 102 224 102 q 551 115 489 102 q 641 144 614 127 l 669 58 l 659 50 l 659 50 q 576 -19 613 21 q 519 -100 540 -58 q 498 -174 498 -141 q 521 -231 498 -216 q 585 -247 544 -247 q 680 -227 629 -247 l 680 -307 q 609 -337 652 -328 q 519 -347 566 -347 q 398 -309 444 -347 q 352 -201 352 -271 q 369 -132 352 -170 q 416 -61 387 -95 q 482 -5 446 -27 q 408 -11 442 -11 q 222 36 299 -11 q 106 173 146 83 q 66 388 66 262 q 105 591 66 502 q 223 731 145 680 q 411 784 300 782 q 553 752 489 785 q 655 652 616 719 q 696 492 693 586 m 556 453 q 557 485 557 475 q 523 625 557 571 q 403 678 488 678 q 278 625 328 678 q 216 453 228 572 l 556 453 z "},"f":{"ha":550,"x_min":51,"x_max":545,"o":"m 51 661 l 51 743 l 168 773 l 168 840 q 210 1016 168 949 q 315 1112 252 1083 q 448 1141 379 1141 q 504 1136 477 1141 q 545 1126 531 1131 l 545 1008 q 497 1018 523 1015 q 428 1021 472 1021 q 348 983 378 1021 q 317 874 317 945 l 317 773 l 509 773 l 509 661 l 317 661 l 317 0 l 168 0 l 168 661 l 51 661 z "},"ḟ":{"ha":550,"x_min":51,"x_max":545,"o":"m 153 1246 q 169 1299 153 1275 q 210 1338 184 1324 q 262 1352 236 1352 q 333 1326 309 1352 q 358 1261 358 1301 q 342 1206 358 1231 q 302 1168 327 1182 q 248 1155 277 1155 q 201 1166 222 1155 q 166 1198 179 1177 q 153 1246 153 1219 m 51 661 l 51 743 l 168 773 l 168 840 q 210 1016 168 949 q 315 1112 252 1083 q 448 1141 379 1141 q 504 1136 477 1141 q 545 1126 531 1131 l 545 1008 q 497 1018 523 1015 q 428 1021 472 1021 q 348 983 378 1021 q 317 874 317 945 l 317 773 l 509 773 l 509 661 l 317 661 l 317 0 l 168 0 l 168 661 l 51 661 z "},"g":{"ha":825,"x_min":75,"x_max":805,"o":"m 805 660 l 663 660 q 698 526 698 602 q 657 382 698 442 q 546 291 616 322 q 387 260 475 260 q 302 269 340 260 q 271 235 283 256 q 259 192 259 214 q 278 133 259 149 q 347 117 298 117 l 488 117 q 710 57 648 117 q 772 -98 772 -3 q 722 -231 772 -174 q 587 -319 672 -288 q 399 -351 502 -351 q 160 -294 246 -351 q 75 -123 75 -237 q 106 -29 75 -70 q 182 36 138 12 q 123 148 123 71 q 148 229 123 187 q 218 300 174 271 q 120 390 155 334 q 84 517 84 446 q 125 666 84 606 q 236 755 165 726 q 398 784 307 784 q 585 737 509 784 q 650 767 611 755 q 730 779 690 779 l 805 779 l 805 660 m 390 360 q 509 396 469 360 q 549 520 549 432 q 511 642 549 600 q 397 683 473 683 q 277 648 322 683 q 233 524 233 613 q 272 406 233 452 q 390 360 311 360 m 370 0 q 269 5 308 0 q 233 -41 246 -16 q 220 -105 220 -66 q 263 -213 220 -178 q 402 -248 306 -248 q 516 -235 464 -248 q 599 -195 568 -221 q 630 -131 630 -168 q 614 -58 630 -86 q 556 -15 598 -30 q 439 0 515 0 l 370 0 z "},"ğ":{"ha":825,"x_min":75,"x_max":805,"o":"m 805 660 l 663 660 q 698 526 698 602 q 657 382 698 442 q 546 291 616 322 q 387 260 475 260 q 302 269 340 260 q 271 235 283 256 q 259 192 259 214 q 278 133 259 149 q 347 117 298 117 l 488 117 q 710 57 648 117 q 772 -98 772 -3 q 722 -231 772 -174 q 587 -319 672 -288 q 399 -351 502 -351 q 160 -294 246 -351 q 75 -123 75 -237 q 106 -29 75 -70 q 182 36 138 12 q 123 148 123 71 q 148 229 123 187 q 218 300 174 271 q 120 390 155 334 q 84 517 84 446 q 125 666 84 606 q 236 755 165 726 q 398 784 307 784 q 585 737 509 784 q 650 767 611 755 q 730 779 690 779 l 805 779 l 805 660 m 390 360 q 509 396 469 360 q 549 520 549 432 q 511 642 549 600 q 397 683 473 683 q 277 648 322 683 q 233 524 233 613 q 272 406 233 452 q 390 360 311 360 m 370 0 q 269 5 308 0 q 233 -41 246 -16 q 220 -105 220 -66 q 263 -213 220 -178 q 402 -248 306 -248 q 516 -235 464 -248 q 599 -195 568 -221 q 630 -131 630 -168 q 614 -58 630 -86 q 556 -15 598 -30 q 439 0 515 0 l 370 0 m 277 1143 q 284 1087 277 1116 q 319 1031 290 1059 q 406 1004 347 1004 q 510 1050 487 1004 q 536 1143 534 1097 l 637 1143 q 638 1122 638 1136 q 608 1007 638 1061 q 525 920 578 953 q 405 887 472 887 q 281 920 334 887 q 200 1006 229 952 q 172 1122 172 1060 q 172 1143 172 1136 l 277 1143 z "},"ǧ":{"ha":825,"x_min":75,"x_max":805,"o":"m 805 660 l 663 660 q 698 526 698 602 q 657 382 698 442 q 546 291 616 322 q 387 260 475 260 q 302 269 340 260 q 271 235 283 256 q 259 192 259 214 q 278 133 259 149 q 347 117 298 117 l 488 117 q 710 57 648 117 q 772 -98 772 -3 q 722 -231 772 -174 q 587 -319 672 -288 q 399 -351 502 -351 q 160 -294 246 -351 q 75 -123 75 -237 q 106 -29 75 -70 q 182 36 138 12 q 123 148 123 71 q 148 229 123 187 q 218 300 174 271 q 120 390 155 334 q 84 517 84 446 q 125 666 84 606 q 236 755 165 726 q 398 784 307 784 q 585 737 509 784 q 650 767 611 755 q 730 779 690 779 l 805 779 l 805 660 m 390 360 q 509 396 469 360 q 549 520 549 432 q 511 642 549 600 q 397 683 473 683 q 277 648 322 683 q 233 524 233 613 q 272 406 233 452 q 390 360 311 360 m 370 0 q 269 5 308 0 q 233 -41 246 -16 q 220 -105 220 -66 q 263 -213 220 -178 q 402 -248 306 -248 q 516 -235 464 -248 q 599 -195 568 -221 q 630 -131 630 -168 q 614 -58 630 -86 q 556 -15 598 -30 q 439 0 515 0 l 370 0 m 407 1008 l 564 1159 l 656 1121 l 474 896 l 340 896 l 153 1122 l 238 1160 l 407 1008 z "},"ĝ":{"ha":825,"x_min":75,"x_max":805,"o":"m 338 1141 l 473 1141 l 654 916 l 563 878 l 406 1028 l 237 877 l 151 915 l 338 1141 m 805 660 l 663 660 q 698 526 698 602 q 657 382 698 442 q 546 291 616 322 q 387 260 475 260 q 302 269 340 260 q 271 235 283 256 q 259 192 259 214 q 278 133 259 149 q 347 117 298 117 l 488 117 q 710 57 648 117 q 772 -98 772 -3 q 722 -231 772 -174 q 587 -319 672 -288 q 399 -351 502 -351 q 160 -294 246 -351 q 75 -123 75 -237 q 106 -29 75 -70 q 182 36 138 12 q 123 148 123 71 q 148 229 123 187 q 218 300 174 271 q 120 390 155 334 q 84 517 84 446 q 125 666 84 606 q 236 755 165 726 q 398 784 307 784 q 585 737 509 784 q 650 767 611 755 q 730 779 690 779 l 805 779 l 805 660 m 390 360 q 509 396 469 360 q 549 520 549 432 q 511 642 549 600 q 397 683 473 683 q 277 648 322 683 q 233 524 233 613 q 272 406 233 452 q 390 360 311 360 m 370 0 q 269 5 308 0 q 233 -41 246 -16 q 220 -105 220 -66 q 263 -213 220 -178 q 402 -248 306 -248 q 516 -235 464 -248 q 599 -195 568 -221 q 630 -131 630 -168 q 614 -58 630 -86 q 556 -15 598 -30 q 439 0 515 0 l 370 0 z "},"ģ":{"ha":825,"x_min":75,"x_max":805,"o":"m 385 898 q 339 949 358 911 q 319 1042 319 988 q 336 1123 319 1086 q 376 1186 352 1161 q 422 1222 399 1212 l 473 1194 l 473 1177 q 455 1137 463 1164 q 447 1078 447 1109 q 460 1024 447 1050 q 492 994 473 998 l 492 960 l 385 898 m 805 660 l 663 660 q 698 526 698 602 q 657 382 698 442 q 546 291 616 322 q 387 260 475 260 q 302 269 340 260 q 271 235 283 256 q 259 192 259 214 q 278 133 259 149 q 347 117 298 117 l 488 117 q 710 57 648 117 q 772 -98 772 -3 q 722 -231 772 -174 q 587 -319 672 -288 q 399 -351 502 -351 q 160 -294 246 -351 q 75 -123 75 -237 q 106 -29 75 -70 q 182 36 138 12 q 123 148 123 71 q 148 229 123 187 q 218 300 174 271 q 120 390 155 334 q 84 517 84 446 q 125 666 84 606 q 236 755 165 726 q 398 784 307 784 q 585 737 509 784 q 650 767 611 755 q 730 779 690 779 l 805 779 l 805 660 m 390 360 q 509 396 469 360 q 549 520 549 432 q 511 642 549 600 q 397 683 473 683 q 277 648 322 683 q 233 524 233 613 q 272 406 233 452 q 390 360 311 360 m 370 0 q 269 5 308 0 q 233 -41 246 -16 q 220 -105 220 -66 q 263 -213 220 -178 q 402 -248 306 -248 q 516 -235 464 -248 q 599 -195 568 -221 q 630 -131 630 -168 q 614 -58 630 -86 q 556 -15 598 -30 q 439 0 515 0 l 370 0 z "},"ġ":{"ha":825,"x_min":75,"x_max":805,"o":"m 805 660 l 663 660 q 698 526 698 602 q 657 382 698 442 q 546 291 616 322 q 387 260 475 260 q 302 269 340 260 q 271 235 283 256 q 259 192 259 214 q 278 133 259 149 q 347 117 298 117 l 488 117 q 710 57 648 117 q 772 -98 772 -3 q 722 -231 772 -174 q 587 -319 672 -288 q 399 -351 502 -351 q 160 -294 246 -351 q 75 -123 75 -237 q 106 -29 75 -70 q 182 36 138 12 q 123 148 123 71 q 148 229 123 187 q 218 300 174 271 q 120 390 155 334 q 84 517 84 446 q 125 666 84 606 q 236 755 165 726 q 398 784 307 784 q 585 737 509 784 q 650 767 611 755 q 730 779 690 779 l 805 779 l 805 660 m 390 360 q 509 396 469 360 q 549 520 549 432 q 511 642 549 600 q 397 683 473 683 q 277 648 322 683 q 233 524 233 613 q 272 406 233 452 q 390 360 311 360 m 370 0 q 269 5 308 0 q 233 -41 246 -16 q 220 -105 220 -66 q 263 -213 220 -178 q 402 -248 306 -248 q 516 -235 464 -248 q 599 -195 568 -221 q 630 -131 630 -168 q 614 -58 630 -86 q 556 -15 598 -30 q 439 0 515 0 l 370 0 m 302 1005 q 318 1058 302 1034 q 359 1097 334 1082 q 412 1111 385 1111 q 483 1085 458 1111 q 507 1019 507 1059 q 492 965 507 989 q 451 927 476 941 q 397 913 426 913 q 350 925 372 913 q 315 957 328 936 q 302 1005 302 978 z "},"ḡ":{"ha":825,"x_min":75,"x_max":805,"o":"m 805 660 l 663 660 q 698 526 698 602 q 657 382 698 442 q 546 291 616 322 q 387 260 475 260 q 302 269 340 260 q 271 235 283 256 q 259 192 259 214 q 278 133 259 149 q 347 117 298 117 l 488 117 q 710 57 648 117 q 772 -98 772 -3 q 722 -231 772 -174 q 587 -319 672 -288 q 399 -351 502 -351 q 160 -294 246 -351 q 75 -123 75 -237 q 106 -29 75 -70 q 182 36 138 12 q 123 148 123 71 q 148 229 123 187 q 218 300 174 271 q 120 390 155 334 q 84 517 84 446 q 125 666 84 606 q 236 755 165 726 q 398 784 307 784 q 585 737 509 784 q 650 767 611 755 q 730 779 690 779 l 805 779 l 805 660 m 390 360 q 509 396 469 360 q 549 520 549 432 q 511 642 549 600 q 397 683 473 683 q 277 648 322 683 q 233 524 233 613 q 272 406 233 452 q 390 360 311 360 m 370 0 q 269 5 308 0 q 233 -41 246 -16 q 220 -105 220 -66 q 263 -213 220 -178 q 402 -248 306 -248 q 516 -235 464 -248 q 599 -195 568 -221 q 630 -131 630 -168 q 614 -58 630 -86 q 556 -15 598 -30 q 439 0 515 0 l 370 0 m 591 1077 l 591 966 l 220 966 l 220 1077 l 591 1077 z "},"h":{"ha":874,"x_min":119,"x_max":759,"o":"m 532 785 q 662 752 612 785 q 735 651 712 720 q 759 471 759 583 l 759 0 l 610 0 l 610 482 q 596 587 610 548 q 550 645 583 627 q 459 660 517 663 q 366 640 418 659 q 269 589 313 621 l 269 0 l 119 0 l 119 1128 l 269 1128 l 269 806 l 262 697 q 387 759 312 733 q 532 785 462 785 z "},"ħ":{"ha":874,"x_min":24,"x_max":759,"o":"m 532 785 q 662 752 612 785 q 735 651 712 720 q 759 471 759 583 l 759 0 l 610 0 l 610 482 q 596 587 610 548 q 550 645 583 627 q 459 660 517 663 q 366 640 418 659 q 269 589 313 621 l 269 0 l 119 0 l 119 871 l 24 871 l 24 960 l 119 960 l 119 1128 l 269 1128 l 269 960 l 426 960 l 426 871 l 269 871 l 269 806 l 262 697 q 387 759 312 733 q 532 785 462 785 z "},"ĥ":{"ha":874,"x_min":119,"x_max":759,"o":"m 532 785 q 662 752 612 785 q 735 651 712 720 q 759 471 759 583 l 759 0 l 610 0 l 610 482 q 596 587 610 548 q 550 645 583 627 q 459 660 517 663 q 366 640 418 659 q 269 589 313 621 l 269 0 l 119 0 l 119 1128 l 269 1128 l 269 806 l 262 697 q 387 759 312 733 q 532 785 462 785 m 444 1350 l 578 1350 l 755 1147 l 658 1107 l 511 1244 l 361 1107 l 269 1145 l 444 1350 z "},"i":{"ha":411,"x_min":102,"x_max":308,"o":"m 280 772 l 280 0 l 131 0 l 131 772 l 280 772 m 102 1005 q 118 1058 102 1034 q 160 1097 134 1082 q 212 1111 186 1111 q 283 1085 258 1111 q 308 1019 308 1059 q 292 965 308 989 q 252 927 277 941 q 198 913 227 913 q 151 925 172 913 q 116 957 129 936 q 102 1005 102 978 z "},"ı":{"ha":411,"x_min":131,"x_max":280,"o":"m 280 772 l 280 0 l 131 0 l 131 772 l 280 772 z "},"í":{"ha":411,"x_min":117,"x_max":452,"o":"m 132 954 q 259 1097 212 1043 q 347 1209 305 1151 l 452 1118 q 382 1036 436 1090 q 273 934 329 981 q 193 878 216 886 l 117 939 l 132 954 m 280 772 l 280 0 l 131 0 l 131 772 l 280 772 z "},"ĭ":{"ha":411,"x_min":-28,"x_max":439,"o":"m 280 772 l 280 0 l 131 0 l 131 772 l 280 772 m 77 1143 q 84 1087 78 1116 q 119 1031 91 1059 q 206 1004 148 1004 q 311 1050 288 1004 q 336 1143 334 1097 l 438 1143 q 439 1122 439 1136 q 409 1007 439 1061 q 326 920 379 953 q 205 887 273 887 q 82 920 135 887 q 1 1006 29 952 q -28 1122 -28 1060 q -27 1143 -28 1136 l 77 1143 z "},"ǐ":{"ha":411,"x_min":-47,"x_max":456,"o":"m 208 1008 l 365 1159 l 456 1121 l 275 896 l 140 896 l -47 1122 l 39 1160 l 208 1008 m 280 772 l 280 0 l 131 0 l 131 772 l 280 772 z "},"î":{"ha":411,"x_min":-48,"x_max":455,"o":"m 139 1141 l 273 1141 l 455 916 l 363 878 l 206 1028 l 37 877 l -48 915 l 139 1141 m 280 772 l 280 0 l 131 0 l 131 772 l 280 772 z "},"ï":{"ha":411,"x_min":-38,"x_max":450,"o":"m -38 1013 q -23 1063 -38 1040 q 17 1100 -7 1086 q 67 1114 41 1114 q 133 1089 111 1114 q 155 1025 155 1065 q 141 973 155 996 q 102 937 126 950 q 51 924 78 924 q -13 948 13 924 q -38 1013 -38 972 m 256 1013 q 272 1063 256 1040 q 311 1100 287 1086 q 361 1114 336 1114 q 427 1089 405 1114 q 450 1025 450 1064 q 435 973 450 996 q 396 937 420 950 q 345 924 372 924 q 282 948 307 924 q 256 1013 256 972 m 280 772 l 280 0 l 131 0 l 131 772 l 280 772 z "},"ì":{"ha":411,"x_min":-56,"x_max":280,"o":"m 280 772 l 280 0 l 131 0 l 131 772 l 280 772 m 205 878 q 124 935 178 890 q 18 1032 70 980 q -56 1118 -34 1084 l 51 1209 q 258 964 117 1124 l 280 939 l 205 878 z "},"ĳ":{"ha":800,"x_min":102,"x_max":722,"o":"m 280 772 l 280 0 l 131 0 l 131 772 l 280 772 m 102 1005 q 118 1058 102 1034 q 160 1097 134 1082 q 212 1111 186 1111 q 283 1085 258 1111 q 308 1019 308 1059 q 292 965 308 989 q 252 927 277 941 q 198 913 227 913 q 151 925 172 913 q 116 957 129 936 q 102 1005 102 978 m 357 -224 q 394 -235 368 -230 q 437 -239 420 -239 q 519 -189 496 -239 q 542 -33 542 -139 l 542 772 l 691 772 l 691 25 q 631 -257 691 -170 q 452 -344 571 -344 q 397 -341 429 -344 q 357 -335 364 -339 l 357 -224 m 516 1005 q 532 1058 516 1034 q 574 1097 548 1082 q 626 1111 600 1111 q 697 1085 672 1111 q 722 1019 722 1059 q 706 965 722 989 q 665 927 690 941 q 612 913 640 913 q 564 925 586 913 q 529 957 543 936 q 516 1005 516 978 z "},"ī":{"ha":411,"x_min":21,"x_max":392,"o":"m 280 772 l 280 0 l 131 0 l 131 772 l 280 772 m 392 1077 l 392 966 l 21 966 l 21 1077 l 392 1077 z "},"į":{"ha":411,"x_min":16,"x_max":350,"o":"m 200 913 q 153 925 174 913 q 118 957 131 936 q 104 1005 104 978 q 120 1058 104 1034 q 162 1097 136 1082 q 214 1111 188 1111 q 285 1085 260 1111 q 310 1019 310 1059 q 294 965 310 989 q 254 927 279 941 q 200 913 229 913 m 256 -247 q 350 -227 299 -247 l 350 -307 q 282 -338 322 -328 q 196 -347 242 -347 q 103 -329 144 -347 q 39 -276 62 -311 q 16 -195 16 -241 q 55 -87 16 -140 q 150 0 94 -34 l 131 0 l 131 772 l 280 772 l 280 0 l 263 0 q 162 -164 162 -64 q 189 -227 162 -208 q 256 -247 215 -247 z "},"ĩ":{"ha":411,"x_min":-79,"x_max":487,"o":"m 280 772 l 280 0 l 131 0 l 131 772 l 280 772 m -79 985 q -35 1051 -63 1021 q 29 1099 -7 1081 q 104 1118 65 1118 q 171 1104 144 1118 q 229 1063 198 1090 q 268 1034 252 1044 q 304 1025 283 1025 q 373 1042 345 1025 q 429 1091 400 1060 l 487 1042 q 411 948 459 985 q 304 911 363 911 q 234 926 260 911 q 177 967 207 941 q 139 996 155 987 q 103 1005 124 1005 q 36 986 66 1005 q -21 939 6 968 l -79 985 z "},"j":{"ha":389,"x_min":-54,"x_max":311,"o":"m -54 -224 q -17 -235 -43 -230 q 26 -239 9 -239 q 108 -189 85 -239 q 131 -33 131 -139 l 131 772 l 280 772 l 280 25 q 220 -257 280 -170 q 41 -344 160 -344 q -14 -341 18 -344 q -54 -335 -47 -339 l -54 -224 m 105 1005 q 121 1058 105 1034 q 163 1097 137 1082 q 215 1111 189 1111 q 286 1085 261 1111 q 311 1019 311 1059 q 295 965 311 989 q 254 927 279 941 q 201 913 229 913 q 153 925 175 913 q 118 957 132 936 q 105 1005 105 978 z "},"ȷ":{"ha":389,"x_min":-54,"x_max":280,"o":"m -54 -224 q -17 -235 -43 -230 q 26 -239 9 -239 q 108 -189 85 -239 q 131 -33 131 -139 l 131 772 l 280 772 l 280 25 q 220 -257 280 -170 q 41 -344 160 -344 q -14 -341 18 -344 q -54 -335 -47 -339 l -54 -224 z "},"ĵ":{"ha":389,"x_min":-54,"x_max":458,"o":"m -54 -224 q -17 -235 -43 -230 q 26 -239 9 -239 q 108 -189 85 -239 q 131 -33 131 -139 l 131 772 l 280 772 l 280 25 q 220 -257 280 -170 q 41 -344 160 -344 q -14 -341 18 -344 q -54 -335 -47 -339 l -54 -224 m 142 1141 l 276 1141 l 458 916 l 366 878 l 209 1028 l 40 877 l -45 915 l 142 1141 z "},"k":{"ha":789,"x_min":114,"x_max":781,"o":"m 355 368 l 260 267 l 263 151 l 263 0 l 114 0 l 114 1126 l 263 1126 l 263 509 l 260 433 l 569 773 l 745 773 l 453 469 l 781 0 l 611 0 l 355 368 z "},"ķ":{"ha":789,"x_min":114,"x_max":781,"o":"m 353 -334 q 372 -294 364 -321 q 380 -236 380 -267 q 367 -182 380 -208 q 334 -152 354 -156 l 334 -118 l 441 -56 q 488 -107 469 -68 q 507 -199 507 -146 q 491 -281 507 -243 q 451 -344 475 -319 q 404 -380 427 -370 l 353 -352 l 353 -334 m 355 368 l 260 267 l 263 151 l 263 0 l 114 0 l 114 1126 l 263 1126 l 263 509 l 260 433 l 569 773 l 745 773 l 453 469 l 781 0 l 611 0 l 355 368 z "},"ĸ":{"ha":793,"x_min":123,"x_max":792,"o":"m 374 342 l 270 228 l 274 129 l 274 0 l 125 0 l 123 773 l 272 773 l 272 447 l 270 393 l 595 773 l 766 773 l 468 446 l 792 0 l 622 0 l 374 342 z "},"l":{"ha":416,"x_min":134,"x_max":283,"o":"m 283 1128 l 283 0 l 134 0 l 134 1128 l 283 1128 z "},"ĺ":{"ha":428,"x_min":125,"x_max":456,"o":"m 125 1129 q 259 1250 163 1163 q 357 1343 355 1337 l 456 1253 q 325 1144 406 1201 q 188 1067 243 1086 l 125 1129 m 283 1039 l 283 0 l 134 0 l 134 1039 l 283 1039 z "},"ľ":{"ha":536,"x_min":134,"x_max":553,"o":"m 283 1128 l 283 0 l 134 0 l 134 1128 l 283 1128 m 387 743 l 395 771 q 413 844 407 810 q 419 938 419 878 q 407 1017 419 976 q 382 1075 395 1058 l 391 1107 l 511 1144 q 542 1081 532 1125 q 553 981 553 1038 q 528 820 553 896 q 467 701 503 744 l 392 724 l 387 743 z "},"ļ":{"ha":416,"x_min":118,"x_max":291,"o":"m 137 -334 q 156 -294 148 -321 q 163 -236 163 -267 q 151 -182 163 -208 q 118 -152 138 -156 l 118 -118 l 225 -56 q 272 -107 252 -68 q 291 -199 291 -146 q 275 -281 291 -243 q 235 -344 258 -319 q 188 -380 211 -370 l 137 -352 l 137 -334 m 283 1128 l 283 0 l 134 0 l 134 1128 l 283 1128 z "},"ŀ":{"ha":696,"x_min":134,"x_max":665,"o":"m 283 1128 l 283 0 l 134 0 l 134 1128 l 283 1128 m 456 572 q 471 630 456 604 q 512 672 487 656 q 565 688 537 688 q 638 658 612 688 q 665 583 665 627 q 649 524 665 551 q 609 483 634 498 q 555 467 583 467 q 506 481 529 467 q 469 519 483 495 q 456 572 456 543 z "},"ǉ":{"ha":805,"x_min":134,"x_max":726,"o":"m 283 1128 l 283 0 l 134 0 l 134 1128 l 283 1128 m 362 -224 q 399 -235 373 -230 q 441 -239 425 -239 q 524 -189 500 -239 q 547 -33 547 -139 l 547 772 l 696 772 l 696 25 q 636 -257 696 -170 q 456 -344 576 -344 q 401 -341 434 -344 q 362 -335 369 -339 l 362 -224 m 521 1005 q 537 1058 521 1034 q 578 1097 553 1082 q 631 1111 604 1111 q 702 1085 677 1111 q 726 1019 726 1059 q 711 965 726 989 q 670 927 695 941 q 616 913 645 913 q 569 925 591 913 q 534 957 547 936 q 521 1005 521 978 z "},"ł":{"ha":416,"x_min":20,"x_max":404,"o":"m 404 671 l 283 625 l 283 0 l 134 0 l 134 568 l 20 524 l 20 627 l 134 672 l 134 1128 l 283 1128 l 283 732 l 404 781 l 404 671 z "},"m":{"ha":1337,"x_min":119,"x_max":1222,"o":"m 1000 785 q 1128 755 1080 785 q 1199 661 1177 726 q 1222 484 1222 595 l 1222 0 l 1073 0 l 1073 482 q 1062 588 1073 550 q 1021 645 1051 627 q 932 660 990 663 q 838 640 890 659 q 743 591 786 621 q 749 484 749 544 l 749 0 l 600 0 l 600 482 q 588 588 600 550 q 547 645 577 627 q 458 660 516 663 q 365 640 418 659 q 269 589 312 621 l 269 0 l 119 0 l 119 772 l 252 772 l 253 690 q 377 754 305 726 q 519 785 450 783 q 643 764 595 787 q 716 688 691 741 q 847 756 768 727 q 1000 785 926 785 z "},"ṁ":{"ha":1337,"x_min":119,"x_max":1222,"o":"m 1000 785 q 1128 755 1080 785 q 1199 661 1177 726 q 1222 484 1222 595 l 1222 0 l 1073 0 l 1073 482 q 1062 588 1073 550 q 1021 645 1051 627 q 932 660 990 663 q 838 640 890 659 q 743 591 786 621 q 749 484 749 544 l 749 0 l 600 0 l 600 482 q 588 588 600 550 q 547 645 577 627 q 458 660 516 663 q 365 640 418 659 q 269 589 312 621 l 269 0 l 119 0 l 119 772 l 252 772 l 253 690 q 377 754 305 726 q 519 785 450 783 q 643 764 595 787 q 716 688 691 741 q 847 756 768 727 q 1000 785 926 785 m 572 1005 q 588 1058 572 1034 q 630 1097 604 1082 q 682 1111 656 1111 q 753 1085 728 1111 q 778 1019 778 1059 q 762 965 778 989 q 722 927 747 941 q 668 913 696 913 q 621 925 642 913 q 586 957 599 936 q 572 1005 572 978 z "},"n":{"ha":867,"x_min":119,"x_max":752,"o":"m 252 772 l 253 690 q 384 755 306 726 q 534 785 463 785 q 661 755 614 785 q 730 659 709 725 q 752 481 752 593 l 752 0 l 603 0 l 603 482 q 593 586 603 547 q 555 643 583 624 q 477 662 528 662 q 458 661 465 662 q 365 641 418 660 q 269 589 313 621 l 269 0 l 119 0 l 119 772 l 252 772 z "},"ń":{"ha":867,"x_min":119,"x_max":752,"o":"m 408 954 q 535 1097 488 1043 q 623 1209 581 1151 l 728 1118 q 659 1036 712 1090 q 549 934 605 981 q 469 878 492 886 l 393 939 l 408 954 m 252 772 l 253 690 q 384 755 306 726 q 534 785 463 785 q 661 755 614 785 q 730 659 709 725 q 752 481 752 593 l 752 0 l 603 0 l 603 482 q 593 586 603 547 q 555 643 583 624 q 477 662 528 662 q 458 661 465 662 q 365 641 418 660 q 269 589 313 621 l 269 0 l 119 0 l 119 772 l 252 772 z "},"ŉ":{"ha":867,"x_min":119,"x_max":752,"o":"m 384 -334 q 402 -294 395 -321 q 410 -236 410 -267 q 397 -182 410 -208 q 365 -152 385 -156 l 365 -118 l 472 -56 q 518 -107 499 -68 q 538 -199 538 -146 q 522 -281 538 -243 q 481 -344 505 -319 q 435 -380 458 -370 l 384 -352 l 384 -334 m 252 772 l 253 690 q 384 755 306 726 q 534 785 463 785 q 661 755 614 785 q 730 659 709 725 q 752 481 752 593 l 752 0 l 603 0 l 603 482 q 593 586 603 547 q 555 643 583 624 q 477 662 528 662 q 458 661 465 662 q 365 641 418 660 q 269 589 313 621 l 269 0 l 119 0 l 119 772 l 252 772 z "},"ň":{"ha":867,"x_min":119,"x_max":752,"o":"m 484 1008 l 641 1159 l 732 1121 l 551 896 l 416 896 l 229 1122 l 315 1160 l 484 1008 m 252 772 l 253 690 q 384 755 306 726 q 534 785 463 785 q 661 755 614 785 q 730 659 709 725 q 752 481 752 593 l 752 0 l 603 0 l 603 482 q 593 586 603 547 q 555 643 583 624 q 477 662 528 662 q 458 661 465 662 q 365 641 418 660 q 269 589 313 621 l 269 0 l 119 0 l 119 772 l 252 772 z "},"ņ":{"ha":867,"x_min":119,"x_max":752,"o":"m 384 -334 q 402 -294 395 -321 q 410 -236 410 -267 q 397 -182 410 -208 q 365 -152 385 -156 l 365 -118 l 472 -56 q 518 -107 499 -68 q 538 -199 538 -146 q 522 -281 538 -243 q 481 -344 505 -319 q 435 -380 458 -370 l 384 -352 l 384 -334 m 252 772 l 253 690 q 384 755 306 726 q 534 785 463 785 q 661 755 614 785 q 730 659 709 725 q 752 481 752 593 l 752 0 l 603 0 l 603 482 q 593 586 603 547 q 555 643 583 624 q 477 662 528 662 q 458 661 465 662 q 365 641 418 660 q 269 589 313 621 l 269 0 l 119 0 l 119 772 l 252 772 z "},"ṅ":{"ha":867,"x_min":119,"x_max":752,"o":"m 252 772 l 253 690 q 384 755 306 726 q 534 785 463 785 q 661 755 614 785 q 730 659 709 725 q 752 481 752 593 l 752 0 l 603 0 l 603 482 q 593 586 603 547 q 555 643 583 624 q 477 662 528 662 q 458 661 465 662 q 365 641 418 660 q 269 589 313 621 l 269 0 l 119 0 l 119 772 l 252 772 m 378 1005 q 394 1058 378 1034 q 436 1097 410 1082 q 488 1111 462 1111 q 559 1085 534 1111 q 584 1019 584 1059 q 568 965 584 989 q 528 927 553 941 q 474 913 503 913 q 427 925 448 913 q 392 957 405 936 q 378 1005 378 978 z "},"ŋ":{"ha":867,"x_min":119,"x_max":752,"o":"m 252 772 l 252 690 q 378 754 303 725 q 522 785 453 783 q 656 759 607 787 q 729 665 706 730 q 752 484 751 599 l 752 -11 q 698 -259 752 -174 q 537 -344 644 -344 q 477 -341 514 -344 q 433 -334 441 -338 l 433 -231 q 467 -237 442 -235 q 506 -239 491 -239 q 567 -220 546 -239 q 595 -158 587 -201 q 603 -31 603 -114 l 603 482 q 592 588 603 550 q 550 645 581 627 q 462 660 519 663 q 367 640 421 659 q 269 589 312 621 l 269 0 l 119 0 l 119 772 l 252 772 z "},"ǌ":{"ha":1257,"x_min":119,"x_max":1178,"o":"m 252 772 l 253 690 q 384 755 306 726 q 534 785 463 785 q 661 755 614 785 q 730 659 709 725 q 752 481 752 593 l 752 0 l 603 0 l 603 482 q 593 586 603 547 q 555 643 583 624 q 477 662 528 662 q 458 661 465 662 q 365 641 418 660 q 269 589 313 621 l 269 0 l 119 0 l 119 772 l 252 772 m 814 -224 q 850 -235 825 -230 q 893 -239 876 -239 q 975 -189 952 -239 q 998 -33 998 -139 l 998 772 l 1147 772 l 1147 25 q 1087 -257 1147 -170 q 908 -344 1027 -344 q 853 -341 886 -344 q 814 -335 821 -339 l 814 -224 m 972 1005 q 988 1058 972 1034 q 1030 1097 1004 1082 q 1082 1111 1056 1111 q 1153 1085 1128 1111 q 1178 1019 1178 1059 q 1162 965 1178 989 q 1122 927 1147 941 q 1068 913 1097 913 q 1021 925 1042 913 q 986 957 999 936 q 972 1005 972 978 z "},"ñ":{"ha":867,"x_min":119,"x_max":763,"o":"m 252 772 l 253 690 q 384 755 306 726 q 534 785 463 785 q 661 755 614 785 q 730 659 709 725 q 752 481 752 593 l 752 0 l 603 0 l 603 482 q 593 586 603 547 q 555 643 583 624 q 477 662 528 662 q 458 661 465 662 q 365 641 418 660 q 269 589 313 621 l 269 0 l 119 0 l 119 772 l 252 772 m 197 985 q 241 1051 213 1021 q 305 1099 269 1081 q 380 1118 341 1118 q 447 1104 420 1118 q 505 1063 474 1090 q 544 1034 528 1044 q 581 1025 559 1025 q 649 1042 621 1025 q 705 1091 676 1060 l 763 1042 q 687 948 735 985 q 580 911 639 911 q 510 926 536 911 q 453 967 483 941 q 415 996 431 987 q 379 1005 400 1005 q 312 986 342 1005 q 255 939 282 968 l 197 985 z "},"o":{"ha":823,"x_min":65,"x_max":758,"o":"m 65 393 q 111 605 65 517 q 236 739 156 693 q 418 784 316 784 q 611 730 535 784 q 722 585 687 675 q 758 380 758 494 q 712 168 758 256 q 587 34 667 79 q 404 -11 507 -11 q 212 43 288 -11 q 100 189 136 98 q 65 393 65 279 m 606 377 q 585 531 606 464 q 519 638 564 599 q 409 677 475 677 q 266 605 315 677 q 216 401 216 534 q 238 245 216 315 q 304 135 260 176 q 413 95 348 95 q 557 169 507 95 q 606 377 606 243 z "},"ó":{"ha":823,"x_min":65,"x_max":758,"o":"m 344 954 q 471 1097 425 1043 q 559 1209 517 1151 l 665 1118 q 595 1036 648 1090 q 485 934 541 981 q 405 878 429 886 l 330 939 l 344 954 m 65 393 q 111 605 65 517 q 236 739 156 693 q 418 784 316 784 q 611 730 535 784 q 722 585 687 675 q 758 380 758 494 q 712 168 758 256 q 587 34 667 79 q 404 -11 507 -11 q 212 43 288 -11 q 100 189 136 98 q 65 393 65 279 m 606 377 q 585 531 606 464 q 519 638 564 599 q 409 677 475 677 q 266 605 315 677 q 216 401 216 534 q 238 245 216 315 q 304 135 260 176 q 413 95 348 95 q 557 169 507 95 q 606 377 606 243 z "},"ŏ":{"ha":823,"x_min":65,"x_max":758,"o":"m 65 393 q 111 605 65 517 q 236 739 156 693 q 418 784 316 784 q 611 730 535 784 q 722 585 687 675 q 758 380 758 494 q 712 168 758 256 q 587 34 667 79 q 404 -11 507 -11 q 212 43 288 -11 q 100 189 136 98 q 65 393 65 279 m 606 377 q 585 531 606 464 q 519 638 564 599 q 409 677 475 677 q 266 605 315 677 q 216 401 216 534 q 238 245 216 315 q 304 135 260 176 q 413 95 348 95 q 557 169 507 95 q 606 377 606 243 m 290 1143 q 297 1087 290 1116 q 332 1031 303 1059 q 418 1004 360 1004 q 523 1050 500 1004 q 549 1143 547 1097 l 650 1143 q 651 1122 651 1136 q 621 1007 651 1061 q 538 920 591 953 q 418 887 485 887 q 294 920 347 887 q 213 1006 241 952 q 184 1122 184 1060 q 185 1143 184 1136 l 290 1143 z "},"ǒ":{"ha":823,"x_min":65,"x_max":758,"o":"m 65 393 q 111 605 65 517 q 236 739 156 693 q 418 784 316 784 q 611 730 535 784 q 722 585 687 675 q 758 380 758 494 q 712 168 758 256 q 587 34 667 79 q 404 -11 507 -11 q 212 43 288 -11 q 100 189 136 98 q 65 393 65 279 m 606 377 q 585 531 606 464 q 519 638 564 599 q 409 677 475 677 q 266 605 315 677 q 216 401 216 534 q 238 245 216 315 q 304 135 260 176 q 413 95 348 95 q 557 169 507 95 q 606 377 606 243 m 420 1008 l 577 1159 l 669 1121 l 487 896 l 353 896 l 165 1122 l 251 1160 l 420 1008 z "},"ô":{"ha":823,"x_min":65,"x_max":758,"o":"m 351 1141 l 486 1141 l 667 916 l 576 878 l 418 1028 l 250 877 l 164 915 l 351 1141 m 65 393 q 111 605 65 517 q 236 739 156 693 q 418 784 316 784 q 611 730 535 784 q 722 585 687 675 q 758 380 758 494 q 712 168 758 256 q 587 34 667 79 q 404 -11 507 -11 q 212 43 288 -11 q 100 189 136 98 q 65 393 65 279 m 606 377 q 585 531 606 464 q 519 638 564 599 q 409 677 475 677 q 266 605 315 677 q 216 401 216 534 q 238 245 216 315 q 304 135 260 176 q 413 95 348 95 q 557 169 507 95 q 606 377 606 243 z "},"ö":{"ha":823,"x_min":65,"x_max":758,"o":"m 166 1013 q 181 1063 166 1040 q 221 1100 197 1086 q 271 1114 245 1114 q 337 1089 315 1114 q 359 1025 359 1065 q 345 973 359 996 q 306 937 330 950 q 255 924 282 924 q 192 948 217 924 q 166 1013 166 972 m 477 1013 q 492 1063 477 1040 q 532 1100 507 1086 q 582 1114 556 1114 q 648 1089 625 1114 q 670 1025 670 1064 q 655 973 670 996 q 617 937 641 950 q 566 924 593 924 q 502 948 528 924 q 477 1013 477 972 m 65 393 q 111 605 65 517 q 236 739 156 693 q 418 784 316 784 q 611 730 535 784 q 722 585 687 675 q 758 380 758 494 q 712 168 758 256 q 587 34 667 79 q 404 -11 507 -11 q 212 43 288 -11 q 100 189 136 98 q 65 393 65 279 m 606 377 q 585 531 606 464 q 519 638 564 599 q 409 677 475 677 q 266 605 315 677 q 216 401 216 534 q 238 245 216 315 q 304 135 260 176 q 413 95 348 95 q 557 169 507 95 q 606 377 606 243 z "},"ò":{"ha":823,"x_min":65,"x_max":758,"o":"m 65 393 q 111 605 65 517 q 236 739 156 693 q 418 784 316 784 q 611 730 535 784 q 722 585 687 675 q 758 380 758 494 q 712 168 758 256 q 587 34 667 79 q 404 -11 507 -11 q 212 43 288 -11 q 100 189 136 98 q 65 393 65 279 m 606 377 q 585 531 606 464 q 519 638 564 599 q 409 677 475 677 q 266 605 315 677 q 216 401 216 534 q 238 245 216 315 q 304 135 260 176 q 413 95 348 95 q 557 169 507 95 q 606 377 606 243 m 417 878 q 336 935 391 890 q 230 1032 282 980 q 157 1118 178 1084 l 263 1209 q 471 964 329 1124 l 492 939 l 417 878 z "},"ő":{"ha":823,"x_min":65,"x_max":789,"o":"m 340 1238 l 450 1163 q 388 1076 430 1128 q 303 977 347 1023 q 235 913 260 930 l 165 962 l 340 1238 m 684 1232 l 789 1158 q 730 1073 772 1125 q 643 975 688 1021 q 572 913 598 929 l 503 962 l 684 1232 m 65 393 q 111 605 65 517 q 236 739 156 693 q 418 784 316 784 q 611 730 535 784 q 722 585 687 675 q 758 380 758 494 q 712 168 758 256 q 587 34 667 79 q 404 -11 507 -11 q 212 43 288 -11 q 100 189 136 98 q 65 393 65 279 m 606 377 q 585 531 606 464 q 519 638 564 599 q 409 677 475 677 q 266 605 315 677 q 216 401 216 534 q 238 245 216 315 q 304 135 260 176 q 413 95 348 95 q 557 169 507 95 q 606 377 606 243 z "},"ō":{"ha":823,"x_min":65,"x_max":758,"o":"m 604 1077 l 604 966 l 233 966 l 233 1077 l 604 1077 m 65 393 q 111 605 65 517 q 236 739 156 693 q 418 784 316 784 q 611 730 535 784 q 722 585 687 675 q 758 380 758 494 q 712 168 758 256 q 587 34 667 79 q 404 -11 507 -11 q 212 43 288 -11 q 100 189 136 98 q 65 393 65 279 m 606 377 q 585 531 606 464 q 519 638 564 599 q 409 677 475 677 q 266 605 315 677 q 216 401 216 534 q 238 245 216 315 q 304 135 260 176 q 413 95 348 95 q 557 169 507 95 q 606 377 606 243 z "},"ø":{"ha":823,"x_min":65,"x_max":758,"o":"m 581 748 q 714 604 670 702 q 758 380 758 506 q 712 168 758 256 q 587 34 667 79 q 404 -11 507 -11 q 326 -3 364 -11 l 281 -136 l 196 -111 l 242 25 q 109 169 153 71 q 65 393 65 267 q 111 605 65 517 q 236 739 156 693 q 418 784 316 784 q 497 777 458 784 l 543 910 l 627 886 l 581 748 m 216 401 q 234 259 216 323 q 286 154 252 195 l 461 670 q 409 677 439 677 q 266 605 315 677 q 216 401 216 534 m 413 95 q 557 169 507 95 q 606 377 606 243 q 589 518 606 455 q 537 621 572 581 l 361 102 q 413 95 383 95 z "},"ǿ":{"ha":823,"x_min":65,"x_max":758,"o":"m 581 748 q 714 604 670 702 q 758 380 758 506 q 712 168 758 256 q 587 34 667 79 q 404 -11 507 -11 q 326 -3 364 -11 l 281 -136 l 196 -111 l 242 25 q 109 169 153 71 q 65 393 65 267 q 111 605 65 517 q 236 739 156 693 q 418 784 316 784 q 497 777 458 784 l 543 910 l 627 886 l 581 748 m 216 401 q 234 259 216 323 q 286 154 252 195 l 461 670 q 409 677 439 677 q 266 605 315 677 q 216 401 216 534 m 413 95 q 557 169 507 95 q 606 377 606 243 q 589 518 606 455 q 537 621 572 581 l 361 102 q 413 95 383 95 m 260 954 q 388 1097 341 1043 q 475 1209 434 1151 l 581 1118 q 511 1036 565 1090 q 401 934 458 981 q 321 878 345 886 l 246 939 l 260 954 z "},"õ":{"ha":823,"x_min":65,"x_max":758,"o":"m 65 393 q 111 605 65 517 q 236 739 156 693 q 418 784 316 784 q 611 730 535 784 q 722 585 687 675 q 758 380 758 494 q 712 168 758 256 q 587 34 667 79 q 404 -11 507 -11 q 212 43 288 -11 q 100 189 136 98 q 65 393 65 279 m 606 377 q 585 531 606 464 q 519 638 564 599 q 409 677 475 677 q 266 605 315 677 q 216 401 216 534 q 238 245 216 315 q 304 135 260 176 q 413 95 348 95 q 557 169 507 95 q 606 377 606 243 m 134 985 q 177 1051 149 1021 q 241 1099 205 1081 q 317 1118 277 1118 q 384 1104 357 1118 q 441 1063 410 1090 q 480 1034 464 1044 q 517 1025 496 1025 q 585 1042 557 1025 q 641 1091 612 1060 l 699 1042 q 623 948 671 985 q 516 911 575 911 q 446 926 473 911 q 389 967 419 941 q 352 996 367 987 q 315 1005 336 1005 q 249 986 279 1005 q 191 939 218 968 l 134 985 z "},"œ":{"ha":1302,"x_min":65,"x_max":1236,"o":"m 1236 492 q 1235 409 1236 441 q 1229 354 1234 378 l 752 354 q 753 340 753 349 q 987 102 764 102 q 1092 115 1029 102 q 1183 144 1156 127 l 1211 58 q 1097 9 1174 28 q 949 -11 1021 -11 q 789 22 858 -11 q 677 119 720 55 q 559 22 631 55 q 402 -11 488 -11 q 211 43 286 -11 q 100 189 135 98 q 65 393 65 279 q 111 605 65 517 q 236 739 156 693 q 418 784 316 784 q 575 750 509 784 q 682 654 641 715 q 797 750 727 716 q 958 784 867 784 q 1097 750 1035 784 q 1196 651 1159 717 q 1236 492 1234 585 m 411 95 q 556 169 506 95 q 607 377 607 243 q 585 531 607 463 q 519 638 564 599 q 409 677 475 677 q 266 605 315 677 q 216 401 216 534 q 238 245 216 315 q 303 136 259 176 q 411 95 347 95 m 1096 453 q 1097 485 1097 475 q 1062 625 1097 571 q 943 678 1027 678 q 818 625 867 678 q 756 453 768 572 l 1096 453 z "},"p":{"ha":840,"x_min":113,"x_max":774,"o":"m 469 784 q 622 743 553 784 q 732 619 691 702 q 774 415 774 536 q 726 194 774 291 q 590 43 677 97 q 387 -11 502 -11 q 260 9 317 -11 l 262 -94 l 262 -343 l 113 -343 l 113 773 l 248 773 l 248 690 q 336 757 286 730 q 469 784 386 784 m 622 402 q 572 601 622 536 q 427 667 522 667 q 336 648 378 667 q 262 604 294 629 l 262 132 q 316 106 283 114 q 401 98 350 98 q 515 133 465 98 q 593 237 565 168 q 622 402 622 305 z "},"ṗ":{"ha":840,"x_min":113,"x_max":774,"o":"m 469 784 q 622 743 553 784 q 732 619 691 702 q 774 415 774 536 q 726 194 774 291 q 590 43 677 97 q 387 -11 502 -11 q 260 9 317 -11 l 262 -94 l 262 -343 l 113 -343 l 113 773 l 248 773 l 248 690 q 336 757 286 730 q 469 784 386 784 m 622 402 q 572 601 622 536 q 427 667 522 667 q 336 648 378 667 q 262 604 294 629 l 262 132 q 316 106 283 114 q 401 98 350 98 q 515 133 465 98 q 593 237 565 168 q 622 402 622 305 m 372 1005 q 388 1058 372 1034 q 429 1097 404 1082 q 481 1111 455 1111 q 552 1085 528 1111 q 577 1019 577 1059 q 562 965 577 989 q 521 927 546 941 q 467 913 496 913 q 420 925 441 913 q 385 957 398 936 q 372 1005 372 978 z "},"þ":{"ha":840,"x_min":113,"x_max":774,"o":"m 469 784 q 622 743 553 784 q 732 619 691 702 q 774 415 774 536 q 725 194 774 291 q 588 42 677 96 q 384 -12 499 -12 q 253 1 324 -12 l 262 -115 l 262 -344 l 113 -344 l 113 1126 l 262 1126 l 262 806 l 256 699 q 342 760 292 735 q 469 784 392 784 m 622 402 q 572 601 622 536 q 427 667 522 667 q 336 648 378 667 q 262 604 294 629 l 262 125 q 401 98 300 98 q 515 133 465 98 q 593 237 565 168 q 622 402 622 305 z "},"q":{"ha":839,"x_min":66,"x_max":728,"o":"m 728 773 l 728 -343 l 578 -343 l 578 -94 l 583 73 q 496 13 546 37 q 370 -11 446 -11 q 217 30 286 -11 q 107 154 149 71 q 66 358 66 237 q 114 579 66 482 q 250 730 162 676 q 453 784 338 784 q 546 774 501 784 q 621 752 591 765 l 728 773 m 218 371 q 268 172 218 237 q 412 106 317 106 q 505 125 462 106 q 578 170 547 144 l 578 641 q 524 667 558 659 q 438 675 490 675 q 325 640 375 675 q 246 536 275 605 q 218 371 218 467 z "},"r":{"ha":555,"x_min":114,"x_max":534,"o":"m 458 785 q 534 775 513 785 l 534 635 q 497 649 519 644 q 432 654 474 654 q 337 635 380 654 q 263 590 293 616 l 263 0 l 114 0 l 114 772 l 239 772 l 250 686 q 298 730 264 707 q 375 769 332 753 q 458 785 418 785 z "},"ŕ":{"ha":555,"x_min":114,"x_max":579,"o":"m 258 954 q 386 1097 339 1043 q 473 1209 432 1151 l 579 1118 q 509 1036 563 1090 q 399 934 456 981 q 319 878 343 886 l 244 939 l 258 954 m 458 785 q 534 775 513 785 l 534 635 q 497 649 519 644 q 432 654 474 654 q 337 635 380 654 q 263 590 293 616 l 263 0 l 114 0 l 114 772 l 239 772 l 250 686 q 298 730 264 707 q 375 769 332 753 q 458 785 418 785 z "},"ř":{"ha":555,"x_min":80,"x_max":583,"o":"m 334 1008 l 492 1159 l 583 1121 l 401 896 l 267 896 l 80 1122 l 165 1160 l 334 1008 m 458 785 q 534 775 513 785 l 534 635 q 497 649 519 644 q 432 654 474 654 q 337 635 380 654 q 263 590 293 616 l 263 0 l 114 0 l 114 772 l 239 772 l 250 686 q 298 730 264 707 q 375 769 332 753 q 458 785 418 785 z "},"ŗ":{"ha":555,"x_min":106,"x_max":534,"o":"m 125 -334 q 144 -294 136 -321 q 152 -236 152 -267 q 139 -182 152 -208 q 106 -152 126 -156 l 106 -118 l 214 -56 q 260 -107 241 -68 q 279 -199 279 -146 q 263 -281 279 -243 q 223 -344 247 -319 q 176 -380 199 -370 l 125 -352 l 125 -334 m 458 785 q 534 775 513 785 l 534 635 q 497 649 519 644 q 432 654 474 654 q 337 635 380 654 q 263 590 293 616 l 263 0 l 114 0 l 114 772 l 239 772 l 250 686 q 298 730 264 707 q 375 769 332 753 q 458 785 418 785 z "},"s":{"ha":663,"x_min":76,"x_max":595,"o":"m 98 155 q 146 133 111 146 q 227 110 180 120 q 318 100 273 100 q 420 125 385 100 q 456 195 456 150 q 415 268 456 237 q 296 332 375 298 q 137 433 194 375 q 81 581 81 492 q 118 692 81 646 q 218 761 155 738 q 360 784 281 784 q 477 770 422 784 q 556 744 532 757 l 532 631 q 465 661 513 648 q 365 674 416 674 q 256 651 294 674 q 218 588 218 628 q 236 530 218 554 q 285 487 253 505 q 368 448 317 469 q 531 351 467 408 q 595 205 595 294 q 562 88 595 136 q 468 14 529 39 q 322 -11 406 -11 q 176 6 247 -11 q 76 44 105 23 l 98 155 z "},"ś":{"ha":663,"x_min":76,"x_max":595,"o":"m 272 954 q 399 1097 353 1043 q 487 1209 446 1151 l 593 1118 q 523 1036 576 1090 q 413 934 469 981 q 333 878 357 886 l 258 939 l 272 954 m 98 155 q 146 133 111 146 q 227 110 180 120 q 318 100 273 100 q 420 125 385 100 q 456 195 456 150 q 415 268 456 237 q 296 332 375 298 q 137 433 194 375 q 81 581 81 492 q 118 692 81 646 q 218 761 155 738 q 360 784 281 784 q 477 770 422 784 q 556 744 532 757 l 532 631 q 465 661 513 648 q 365 674 416 674 q 256 651 294 674 q 218 588 218 628 q 236 530 218 554 q 285 487 253 505 q 368 448 317 469 q 531 351 467 408 q 595 205 595 294 q 562 88 595 136 q 468 14 529 39 q 322 -11 406 -11 q 176 6 247 -11 q 76 44 105 23 l 98 155 z "},"š":{"ha":663,"x_min":76,"x_max":597,"o":"m 348 1008 l 505 1159 l 597 1121 l 415 896 l 281 896 l 94 1122 l 179 1160 l 348 1008 m 98 155 q 146 133 111 146 q 227 110 180 120 q 318 100 273 100 q 420 125 385 100 q 456 195 456 150 q 415 268 456 237 q 296 332 375 298 q 137 433 194 375 q 81 581 81 492 q 118 692 81 646 q 218 761 155 738 q 360 784 281 784 q 477 770 422 784 q 556 744 532 757 l 532 631 q 465 661 513 648 q 365 674 416 674 q 256 651 294 674 q 218 588 218 628 q 236 530 218 554 q 285 487 253 505 q 368 448 317 469 q 531 351 467 408 q 595 205 595 294 q 562 88 595 136 q 468 14 529 39 q 322 -11 406 -11 q 176 6 247 -11 q 76 44 105 23 l 98 155 z "},"ş":{"ha":663,"x_min":76,"x_max":595,"o":"m 595 205 q 539 60 595 115 q 383 -7 484 5 q 404 -121 404 -50 q 403 -155 404 -132 q 350 -275 396 -236 q 240 -315 304 -315 q 182 -309 212 -315 q 140 -296 152 -304 l 151 -199 q 206 -209 165 -209 q 266 -184 242 -209 q 292 -107 289 -159 q 296 -60 296 -85 q 290 -10 296 -32 q 162 9 222 -6 q 76 44 102 25 l 98 155 q 146 133 111 146 q 227 110 180 120 q 318 100 273 100 q 420 125 385 100 q 456 195 456 150 q 415 268 456 237 q 296 332 375 298 q 137 433 194 375 q 81 581 81 492 q 118 692 81 646 q 218 761 155 738 q 360 784 281 784 q 477 770 422 784 q 556 744 532 757 l 532 631 q 465 661 513 648 q 365 674 416 674 q 256 651 294 674 q 218 588 218 628 q 236 530 218 554 q 285 487 253 505 q 368 448 317 469 q 531 351 467 408 q 595 205 595 294 z "},"ŝ":{"ha":663,"x_min":76,"x_max":595,"o":"m 279 1141 l 414 1141 l 595 916 l 504 878 l 347 1028 l 178 877 l 92 915 l 279 1141 m 98 155 q 146 133 111 146 q 227 110 180 120 q 318 100 273 100 q 420 125 385 100 q 456 195 456 150 q 415 268 456 237 q 296 332 375 298 q 137 433 194 375 q 81 581 81 492 q 118 692 81 646 q 218 761 155 738 q 360 784 281 784 q 477 770 422 784 q 556 744 532 757 l 532 631 q 465 661 513 648 q 365 674 416 674 q 256 651 294 674 q 218 588 218 628 q 236 530 218 554 q 285 487 253 505 q 368 448 317 469 q 531 351 467 408 q 595 205 595 294 q 562 88 595 136 q 468 14 529 39 q 322 -11 406 -11 q 176 6 247 -11 q 76 44 105 23 l 98 155 z "},"ș":{"ha":663,"x_min":76,"x_max":595,"o":"m 273 -334 q 291 -294 283 -321 q 299 -236 299 -267 q 286 -182 299 -208 q 254 -152 273 -156 l 254 -118 l 361 -56 q 407 -107 388 -68 q 427 -199 427 -146 q 410 -281 427 -243 q 370 -344 394 -319 q 323 -380 347 -370 l 273 -352 l 273 -334 m 98 155 q 146 133 111 146 q 227 110 180 120 q 318 100 273 100 q 420 125 385 100 q 456 195 456 150 q 415 268 456 237 q 296 332 375 298 q 137 433 194 375 q 81 581 81 492 q 118 692 81 646 q 218 761 155 738 q 360 784 281 784 q 477 770 422 784 q 556 744 532 757 l 532 631 q 465 661 513 648 q 365 674 416 674 q 256 651 294 674 q 218 588 218 628 q 236 530 218 554 q 285 487 253 505 q 368 448 317 469 q 531 351 467 408 q 595 205 595 294 q 562 88 595 136 q 468 14 529 39 q 322 -11 406 -11 q 176 6 247 -11 q 76 44 105 23 l 98 155 z "},"ṡ":{"ha":663,"x_min":76,"x_max":595,"o":"m 98 155 q 146 133 111 146 q 227 110 180 120 q 318 100 273 100 q 420 125 385 100 q 456 195 456 150 q 415 268 456 237 q 296 332 375 298 q 137 433 194 375 q 81 581 81 492 q 118 692 81 646 q 218 761 155 738 q 360 784 281 784 q 477 770 422 784 q 556 744 532 757 l 532 631 q 465 661 513 648 q 365 674 416 674 q 256 651 294 674 q 218 588 218 628 q 236 530 218 554 q 285 487 253 505 q 368 448 317 469 q 531 351 467 408 q 595 205 595 294 q 562 88 595 136 q 468 14 529 39 q 322 -11 406 -11 q 176 6 247 -11 q 76 44 105 23 l 98 155 m 243 1005 q 259 1058 243 1034 q 300 1097 275 1082 q 353 1111 326 1111 q 424 1085 399 1111 q 448 1019 448 1059 q 433 965 448 989 q 392 927 417 941 q 338 913 367 913 q 291 925 313 913 q 256 957 269 936 q 243 1005 243 978 z "},"ß":{"ha":860,"x_min":24,"x_max":838,"o":"m 592 595 q 605 542 592 566 q 638 499 618 518 q 693 453 659 480 q 768 387 739 416 q 818 314 797 358 q 838 212 838 271 q 800 84 838 134 q 701 12 762 34 q 569 -11 640 -11 q 477 -4 520 -11 q 412 12 433 2 l 412 129 q 478 104 437 115 q 574 94 519 94 q 654 118 622 94 q 687 196 687 142 q 673 254 687 228 q 640 299 660 279 q 586 349 621 319 q 517 413 544 385 q 473 482 491 441 q 454 577 454 523 q 464 633 454 608 q 488 678 474 659 q 527 726 503 698 q 564 772 550 753 q 587 814 578 791 q 596 865 596 838 q 562 940 596 915 q 463 965 528 965 q 319 892 370 965 q 267 643 267 819 l 267 0 l 118 0 l 118 655 l 118 661 l 24 661 l 24 748 l 129 775 q 199 941 148 875 q 323 1039 250 1008 q 488 1071 397 1071 q 618 1049 559 1071 q 710 985 676 1027 q 744 884 744 943 q 731 812 744 844 q 701 757 719 781 q 654 703 683 733 q 607 645 623 669 q 592 595 592 622 z "},"t":{"ha":576,"x_min":54,"x_max":547,"o":"m 155 661 l 54 661 l 54 741 l 79 748 q 125 763 110 757 q 151 779 140 768 q 169 808 162 789 q 199 901 179 833 l 214 949 l 303 949 l 303 773 l 522 773 l 522 661 l 303 661 l 303 269 q 309 160 303 192 q 332 118 315 127 q 389 109 349 109 q 459 118 418 109 q 521 138 501 127 l 547 52 q 451 8 513 28 q 333 -11 389 -11 q 201 32 248 -11 q 155 185 155 74 l 155 661 z "},"ŧ":{"ha":576,"x_min":54,"x_max":547,"o":"m 547 52 q 451 8 513 28 q 333 -11 389 -11 q 201 32 248 -11 q 155 185 155 74 l 155 404 l 55 404 l 55 515 l 155 515 l 155 661 l 54 661 l 54 741 l 79 748 q 125 763 110 757 q 151 779 140 768 q 169 808 162 789 q 199 901 179 833 l 214 949 l 303 949 l 303 773 l 522 773 l 522 661 l 303 661 l 303 515 l 522 515 l 522 404 l 303 404 l 303 269 q 309 160 303 192 q 332 118 315 127 q 389 109 349 109 q 459 118 418 109 q 521 138 501 127 l 547 52 z "},"ť":{"ha":710,"x_min":54,"x_max":711,"o":"m 155 661 l 54 661 l 54 741 l 79 748 q 125 763 110 757 q 151 779 140 768 q 169 808 162 789 q 199 901 179 833 l 214 949 l 303 949 l 303 773 l 522 773 l 522 661 l 303 661 l 303 269 q 309 160 303 192 q 332 118 315 127 q 389 109 349 109 q 459 118 418 109 q 521 138 501 127 l 547 52 q 451 8 513 28 q 333 -11 389 -11 q 201 32 248 -11 q 155 185 155 74 l 155 661 m 545 831 l 553 859 q 571 931 565 897 q 577 1025 577 966 q 565 1104 577 1063 q 540 1162 553 1145 l 549 1194 l 669 1232 q 700 1169 690 1213 q 711 1068 711 1125 q 686 907 711 983 q 625 789 661 831 l 550 812 l 545 831 z "},"ţ":{"ha":576,"x_min":54,"x_max":547,"o":"m 547 52 q 460 11 516 30 q 352 -10 405 -7 q 372 -122 372 -55 q 370 -155 372 -132 q 318 -275 363 -236 q 208 -315 272 -315 q 149 -309 179 -315 q 108 -296 119 -304 l 118 -199 q 174 -209 133 -209 q 233 -184 210 -209 q 260 -107 256 -159 q 263 -60 263 -85 q 254 0 263 -25 q 181 60 207 16 q 155 185 155 104 l 155 661 l 54 661 l 54 741 l 79 748 q 125 763 110 757 q 151 779 140 768 q 169 808 162 789 q 199 901 179 833 l 214 949 l 303 949 l 303 773 l 522 773 l 522 661 l 303 661 l 303 269 q 309 160 303 192 q 332 118 315 127 q 389 109 349 109 q 459 118 418 109 q 521 138 501 127 l 547 52 z "},"ț":{"ha":576,"x_min":54,"x_max":547,"o":"m 240 -334 q 259 -294 251 -321 q 267 -236 267 -267 q 254 -182 267 -208 q 221 -152 241 -156 l 221 -118 l 328 -56 q 375 -107 355 -68 q 394 -199 394 -146 q 378 -281 394 -243 q 338 -344 361 -319 q 291 -380 314 -370 l 240 -352 l 240 -334 m 155 661 l 54 661 l 54 741 l 79 748 q 125 763 110 757 q 151 779 140 768 q 169 808 162 789 q 199 901 179 833 l 214 949 l 303 949 l 303 773 l 522 773 l 522 661 l 303 661 l 303 269 q 309 160 303 192 q 332 118 315 127 q 389 109 349 109 q 459 118 418 109 q 521 138 501 127 l 547 52 q 451 8 513 28 q 333 -11 389 -11 q 201 32 248 -11 q 155 185 155 74 l 155 661 z "},"ṫ":{"ha":576,"x_min":54,"x_max":547,"o":"m 155 661 l 54 661 l 54 741 l 79 748 q 125 763 110 757 q 151 779 140 768 q 169 808 162 789 q 199 901 179 833 l 214 949 l 303 949 l 303 773 l 522 773 l 522 661 l 303 661 l 303 269 q 309 160 303 192 q 332 118 315 127 q 389 109 349 109 q 459 118 418 109 q 521 138 501 127 l 547 52 q 451 8 513 28 q 333 -11 389 -11 q 201 32 248 -11 q 155 185 155 74 l 155 661 m 153 1120 q 169 1173 153 1149 q 210 1212 184 1198 q 262 1226 236 1226 q 333 1200 309 1226 q 358 1135 358 1175 q 342 1080 358 1105 q 302 1042 327 1056 q 248 1029 277 1029 q 201 1040 222 1029 q 166 1072 179 1051 q 153 1120 153 1093 z "},"u":{"ha":847,"x_min":115,"x_max":728,"o":"m 728 773 l 728 -11 l 670 -11 q 628 -7 644 -11 q 604 10 612 -3 q 595 49 595 23 l 595 68 q 474 13 543 36 q 345 -11 405 -11 q 201 29 251 -11 q 133 140 151 69 q 115 321 115 211 l 115 773 l 264 773 l 264 322 q 278 183 264 228 q 321 125 292 139 q 406 112 350 112 q 498 130 447 112 q 578 166 549 147 l 578 773 l 728 773 z "},"ú":{"ha":847,"x_min":115,"x_max":728,"o":"m 356 954 q 483 1097 437 1043 q 571 1209 530 1151 l 677 1118 q 607 1036 661 1090 q 497 934 553 981 q 417 878 441 886 l 342 939 l 356 954 m 728 773 l 728 -11 l 670 -11 q 628 -7 644 -11 q 604 10 612 -3 q 595 49 595 23 l 595 68 q 474 13 543 36 q 345 -11 405 -11 q 201 29 251 -11 q 133 140 151 69 q 115 321 115 211 l 115 773 l 264 773 l 264 322 q 278 183 264 228 q 321 125 292 139 q 406 112 350 112 q 498 130 447 112 q 578 166 549 147 l 578 773 l 728 773 z "},"ŭ":{"ha":847,"x_min":115,"x_max":728,"o":"m 728 773 l 728 -11 l 670 -11 q 628 -7 644 -11 q 604 10 612 -3 q 595 49 595 23 l 595 68 q 474 13 543 36 q 345 -11 405 -11 q 201 29 251 -11 q 133 140 151 69 q 115 321 115 211 l 115 773 l 264 773 l 264 322 q 278 183 264 228 q 321 125 292 139 q 406 112 350 112 q 498 130 447 112 q 578 166 549 147 l 578 773 l 728 773 m 302 1143 q 309 1087 302 1116 q 344 1031 315 1059 q 431 1004 372 1004 q 535 1050 512 1004 q 561 1143 559 1097 l 663 1143 q 663 1122 663 1136 q 633 1007 663 1061 q 550 920 604 953 q 430 887 497 887 q 307 920 359 887 q 225 1006 254 952 q 197 1122 197 1060 q 197 1143 197 1136 l 302 1143 z "},"ǔ":{"ha":847,"x_min":115,"x_max":728,"o":"m 728 773 l 728 -11 l 670 -11 q 628 -7 644 -11 q 604 10 612 -3 q 595 49 595 23 l 595 68 q 474 13 543 36 q 345 -11 405 -11 q 201 29 251 -11 q 133 140 151 69 q 115 321 115 211 l 115 773 l 264 773 l 264 322 q 278 183 264 228 q 321 125 292 139 q 406 112 350 112 q 498 130 447 112 q 578 166 549 147 l 578 773 l 728 773 m 432 1008 l 589 1159 l 681 1121 l 499 896 l 365 896 l 178 1122 l 263 1160 l 432 1008 z "},"û":{"ha":847,"x_min":115,"x_max":728,"o":"m 363 1141 l 498 1141 l 680 916 l 588 878 l 431 1028 l 262 877 l 176 915 l 363 1141 m 728 773 l 728 -11 l 670 -11 q 628 -7 644 -11 q 604 10 612 -3 q 595 49 595 23 l 595 68 q 474 13 543 36 q 345 -11 405 -11 q 201 29 251 -11 q 133 140 151 69 q 115 321 115 211 l 115 773 l 264 773 l 264 322 q 278 183 264 228 q 321 125 292 139 q 406 112 350 112 q 498 130 447 112 q 578 166 549 147 l 578 773 l 728 773 z "},"ü":{"ha":847,"x_min":115,"x_max":728,"o":"m 178 1013 q 194 1063 178 1040 q 233 1100 209 1086 q 283 1114 258 1114 q 350 1089 328 1114 q 372 1025 372 1065 q 357 973 372 996 q 318 937 342 950 q 267 924 294 924 q 204 948 229 924 q 178 1013 178 972 m 489 1013 q 504 1063 489 1040 q 544 1100 519 1086 q 594 1114 568 1114 q 660 1089 637 1114 q 682 1025 682 1064 q 668 973 682 996 q 629 937 653 950 q 578 924 605 924 q 514 948 540 924 q 489 1013 489 972 m 728 773 l 728 -11 l 670 -11 q 628 -7 644 -11 q 604 10 612 -3 q 595 49 595 23 l 595 68 q 474 13 543 36 q 345 -11 405 -11 q 201 29 251 -11 q 133 140 151 69 q 115 321 115 211 l 115 773 l 264 773 l 264 322 q 278 183 264 228 q 321 125 292 139 q 406 112 350 112 q 498 130 447 112 q 578 166 549 147 l 578 773 l 728 773 z "},"ù":{"ha":847,"x_min":115,"x_max":728,"o":"m 728 773 l 728 -11 l 670 -11 q 628 -7 644 -11 q 604 10 612 -3 q 595 49 595 23 l 595 68 q 474 13 543 36 q 345 -11 405 -11 q 201 29 251 -11 q 133 140 151 69 q 115 321 115 211 l 115 773 l 264 773 l 264 322 q 278 183 264 228 q 321 125 292 139 q 406 112 350 112 q 498 130 447 112 q 578 166 549 147 l 578 773 l 728 773 m 429 878 q 349 935 403 890 q 242 1032 294 980 q 169 1118 191 1084 l 275 1209 q 483 964 341 1124 l 505 939 l 429 878 z "},"ű":{"ha":847,"x_min":115,"x_max":802,"o":"m 728 773 l 728 -11 l 670 -11 q 628 -7 644 -11 q 604 10 612 -3 q 595 49 595 23 l 595 68 q 474 13 543 36 q 345 -11 405 -11 q 201 29 251 -11 q 133 140 151 69 q 115 321 115 211 l 115 773 l 264 773 l 264 322 q 278 183 264 228 q 321 125 292 139 q 406 112 350 112 q 498 130 447 112 q 578 166 549 147 l 578 773 l 728 773 m 353 1238 l 463 1163 q 400 1076 442 1128 q 315 977 359 1023 q 247 913 272 930 l 177 962 l 353 1238 m 696 1232 l 802 1158 q 743 1073 785 1125 q 655 975 701 1021 q 584 913 610 929 l 515 962 l 696 1232 z "},"ū":{"ha":847,"x_min":115,"x_max":728,"o":"m 728 773 l 728 -11 l 670 -11 q 628 -7 644 -11 q 604 10 612 -3 q 595 49 595 23 l 595 68 q 474 13 543 36 q 345 -11 405 -11 q 201 29 251 -11 q 133 140 151 69 q 115 321 115 211 l 115 773 l 264 773 l 264 322 q 278 183 264 228 q 321 125 292 139 q 406 112 350 112 q 498 130 447 112 q 578 166 549 147 l 578 773 l 728 773 m 616 1077 l 616 966 l 245 966 l 245 1077 l 616 1077 z "},"ų":{"ha":847,"x_min":115,"x_max":776,"o":"m 682 -247 q 776 -227 725 -247 l 776 -307 q 705 -337 749 -328 q 615 -347 662 -347 q 494 -309 541 -347 q 448 -202 448 -271 q 471 -124 448 -163 q 532 -53 494 -85 q 611 1 569 -20 q 595 49 595 15 l 595 68 q 474 13 543 36 q 345 -11 405 -11 q 201 29 251 -11 q 133 140 151 69 q 115 321 115 211 l 115 773 l 264 773 l 264 322 q 278 183 264 228 q 321 125 292 139 q 406 112 350 112 q 498 130 447 112 q 578 166 549 147 l 578 773 l 728 773 l 728 -11 l 717 -11 q 628 -87 661 -46 q 595 -174 595 -129 q 617 -231 595 -216 q 682 -247 640 -247 z "},"ů":{"ha":847,"x_min":115,"x_max":728,"o":"m 213 1086 q 244 1190 213 1149 q 324 1251 275 1232 q 430 1270 373 1270 q 589 1223 530 1270 q 648 1090 648 1176 q 618 985 648 1028 q 539 922 589 943 q 428 901 489 901 q 315 923 364 901 q 240 988 267 946 q 213 1086 213 1030 m 543 1088 q 510 1160 543 1135 q 427 1186 477 1186 q 350 1163 381 1186 q 319 1090 319 1140 q 349 1015 319 1044 q 431 986 380 986 q 513 1011 483 986 q 543 1088 543 1036 m 728 773 l 728 -11 l 670 -11 q 628 -7 644 -11 q 604 10 612 -3 q 595 49 595 23 l 595 68 q 474 13 543 36 q 345 -11 405 -11 q 201 29 251 -11 q 133 140 151 69 q 115 321 115 211 l 115 773 l 264 773 l 264 322 q 278 183 264 228 q 321 125 292 139 q 406 112 350 112 q 498 130 447 112 q 578 166 549 147 l 578 773 l 728 773 z "},"ũ":{"ha":847,"x_min":115,"x_max":728,"o":"m 728 773 l 728 -11 l 670 -11 q 628 -7 644 -11 q 604 10 612 -3 q 595 49 595 23 l 595 68 q 474 13 543 36 q 345 -11 405 -11 q 201 29 251 -11 q 133 140 151 69 q 115 321 115 211 l 115 773 l 264 773 l 264 322 q 278 183 264 228 q 321 125 292 139 q 406 112 350 112 q 498 130 447 112 q 578 166 549 147 l 578 773 l 728 773 m 146 985 q 189 1051 161 1021 q 253 1099 217 1081 q 329 1118 290 1118 q 396 1104 369 1118 q 453 1063 422 1090 q 492 1034 476 1044 q 529 1025 508 1025 q 597 1042 570 1025 q 653 1091 625 1060 l 711 1042 q 635 948 684 985 q 528 911 587 911 q 458 926 485 911 q 401 967 431 941 q 364 996 379 987 q 328 1005 349 1005 q 261 986 291 1005 q 203 939 231 968 l 146 985 z "},"v":{"ha":755,"x_min":13,"x_max":742,"o":"m 742 773 l 445 -11 l 319 -11 l 13 773 l 174 773 l 327 333 l 384 149 l 436 333 l 583 773 l 742 773 z "},"w":{"ha":1107,"x_min":14,"x_max":1093,"o":"m 1093 773 l 857 -11 l 719 -11 l 581 494 l 555 618 l 528 494 l 392 -11 l 250 -11 l 14 773 l 163 773 l 288 309 l 322 164 l 353 309 l 482 773 l 631 773 l 759 309 l 792 161 l 826 304 l 947 773 l 1093 773 z "},"ẃ":{"ha":1107,"x_min":14,"x_max":1093,"o":"m 484 962 q 611 1104 564 1050 q 699 1217 657 1158 l 804 1125 q 734 1043 788 1098 q 625 941 681 989 q 545 885 568 894 l 469 946 l 484 962 m 1093 773 l 857 -11 l 719 -11 l 581 494 l 555 618 l 528 494 l 392 -11 l 250 -11 l 14 773 l 163 773 l 288 309 l 322 164 l 353 309 l 482 773 l 631 773 l 759 309 l 792 161 l 826 304 l 947 773 l 1093 773 z "},"ŵ":{"ha":1107,"x_min":14,"x_max":1093,"o":"m 491 1148 l 625 1148 l 807 923 l 715 885 l 558 1036 l 389 884 l 304 922 l 491 1148 m 1093 773 l 857 -11 l 719 -11 l 581 494 l 555 618 l 528 494 l 392 -11 l 250 -11 l 14 773 l 163 773 l 288 309 l 322 164 l 353 309 l 482 773 l 631 773 l 759 309 l 792 161 l 826 304 l 947 773 l 1093 773 z "},"ẅ":{"ha":1107,"x_min":14,"x_max":1093,"o":"m 306 1020 q 321 1070 306 1047 q 361 1107 336 1094 q 411 1121 385 1121 q 477 1097 455 1121 q 499 1033 499 1072 q 485 981 499 1004 q 446 945 470 958 q 395 932 422 932 q 331 956 357 932 q 306 1020 306 980 m 616 1020 q 632 1070 616 1047 q 671 1107 647 1094 q 722 1121 696 1121 q 787 1096 765 1121 q 810 1033 810 1072 q 795 981 810 1004 q 756 945 781 958 q 705 932 732 932 q 642 956 667 932 q 616 1020 616 980 m 1093 773 l 857 -11 l 719 -11 l 581 494 l 555 618 l 528 494 l 392 -11 l 250 -11 l 14 773 l 163 773 l 288 309 l 322 164 l 353 309 l 482 773 l 631 773 l 759 309 l 792 161 l 826 304 l 947 773 l 1093 773 z "},"ẁ":{"ha":1107,"x_min":14,"x_max":1093,"o":"m 1093 773 l 857 -11 l 719 -11 l 581 494 l 555 618 l 528 494 l 392 -11 l 250 -11 l 14 773 l 163 773 l 288 309 l 322 164 l 353 309 l 482 773 l 631 773 l 759 309 l 792 161 l 826 304 l 947 773 l 1093 773 m 557 885 q 476 942 530 897 q 370 1040 422 987 q 296 1125 318 1092 l 403 1217 q 610 971 469 1132 l 632 946 l 557 885 z "},"x":{"ha":769,"x_min":32,"x_max":746,"o":"m 746 0 l 573 0 l 404 257 l 380 294 l 361 255 l 204 0 l 34 0 l 306 393 l 32 773 l 201 773 l 371 517 l 388 488 l 402 518 l 572 773 l 740 773 l 465 395 l 746 0 z "},"y":{"ha":757,"x_min":30,"x_max":741,"o":"m 741 773 l 481 -24 q 238 -334 394 -290 q 201 -341 222 -338 q 165 -344 180 -344 q 121 -341 147 -344 q 89 -334 94 -338 l 89 -213 q 120 -218 99 -216 q 154 -220 140 -220 q 225 -202 188 -220 q 298 -135 263 -184 q 354 0 334 -85 l 310 0 l 30 773 l 189 773 l 360 252 l 399 126 l 434 252 l 581 773 l 741 773 z "},"ý":{"ha":757,"x_min":30,"x_max":741,"o":"m 741 773 l 481 -24 q 238 -334 394 -290 q 201 -341 222 -338 q 165 -344 180 -344 q 121 -341 147 -344 q 89 -334 94 -338 l 89 -213 q 120 -218 99 -216 q 154 -220 140 -220 q 225 -202 188 -220 q 298 -135 263 -184 q 354 0 334 -85 l 310 0 l 30 773 l 189 773 l 360 252 l 399 126 l 434 252 l 581 773 l 741 773 m 326 954 q 453 1097 407 1043 q 541 1209 500 1151 l 647 1118 q 577 1036 631 1090 q 467 934 524 981 q 387 878 411 886 l 312 939 l 326 954 z "},"ŷ":{"ha":757,"x_min":30,"x_max":741,"o":"m 741 773 l 481 -24 q 238 -334 394 -290 q 201 -341 222 -338 q 165 -344 180 -344 q 121 -341 147 -344 q 89 -334 94 -338 l 89 -213 q 120 -218 99 -216 q 154 -220 140 -220 q 225 -202 188 -220 q 298 -135 263 -184 q 354 0 334 -85 l 310 0 l 30 773 l 189 773 l 360 252 l 399 126 l 434 252 l 581 773 l 741 773 m 334 1141 l 468 1141 l 650 916 l 558 878 l 401 1028 l 232 877 l 146 915 l 334 1141 z "},"ÿ":{"ha":757,"x_min":30,"x_max":741,"o":"m 741 773 l 481 -24 q 238 -334 394 -290 q 201 -341 222 -338 q 165 -344 180 -344 q 121 -341 147 -344 q 89 -334 94 -338 l 89 -213 q 120 -218 99 -216 q 154 -220 140 -220 q 225 -202 188 -220 q 298 -135 263 -184 q 354 0 334 -85 l 310 0 l 30 773 l 189 773 l 360 252 l 399 126 l 434 252 l 581 773 l 741 773 m 149 1013 q 164 1063 149 1040 q 203 1100 179 1086 q 254 1114 228 1114 q 320 1089 298 1114 q 342 1025 342 1065 q 327 973 342 996 q 289 937 313 950 q 237 924 264 924 q 174 948 199 924 q 149 1013 149 972 m 459 1013 q 474 1063 459 1040 q 514 1100 490 1086 q 564 1114 538 1114 q 630 1089 608 1114 q 652 1025 652 1064 q 638 973 652 996 q 599 937 623 950 q 548 924 575 924 q 485 948 510 924 q 459 1013 459 972 z "},"ẏ":{"ha":757,"x_min":30,"x_max":741,"o":"m 741 773 l 481 -24 q 238 -334 394 -290 q 201 -341 222 -338 q 165 -344 180 -344 q 121 -341 147 -344 q 89 -334 94 -338 l 89 -213 q 120 -218 99 -216 q 154 -220 140 -220 q 225 -202 188 -220 q 298 -135 263 -184 q 354 0 334 -85 l 310 0 l 30 773 l 189 773 l 360 252 l 399 126 l 434 252 l 581 773 l 741 773 m 297 1005 q 313 1058 297 1034 q 355 1097 329 1082 q 407 1111 380 1111 q 478 1085 453 1111 q 503 1019 503 1059 q 487 965 503 989 q 446 927 471 941 q 393 913 421 913 q 345 925 367 913 q 310 957 323 936 q 297 1005 297 978 z "},"ỳ":{"ha":757,"x_min":30,"x_max":741,"o":"m 741 773 l 481 -24 q 238 -334 394 -290 q 201 -341 222 -338 q 165 -344 180 -344 q 121 -341 147 -344 q 89 -334 94 -338 l 89 -213 q 120 -218 99 -216 q 154 -220 140 -220 q 225 -202 188 -220 q 298 -135 263 -184 q 354 0 334 -85 l 310 0 l 30 773 l 189 773 l 360 252 l 399 126 l 434 252 l 581 773 l 741 773 m 399 878 q 319 935 373 890 q 213 1032 264 980 q 139 1118 161 1084 l 245 1209 q 453 964 311 1124 l 475 939 l 399 878 z "},"z":{"ha":720,"x_min":56,"x_max":671,"o":"m 469 659 l 96 659 l 96 773 l 647 773 l 671 709 l 298 165 l 258 109 l 657 109 l 657 0 l 84 0 l 56 56 l 469 659 z "},"ź":{"ha":720,"x_min":56,"x_max":671,"o":"m 289 954 q 416 1097 370 1043 q 504 1209 463 1151 l 610 1118 q 540 1036 593 1090 q 430 934 486 981 q 350 878 374 886 l 275 939 l 289 954 m 469 659 l 96 659 l 96 773 l 647 773 l 671 709 l 298 165 l 258 109 l 657 109 l 657 0 l 84 0 l 56 56 l 469 659 z "},"ž":{"ha":720,"x_min":56,"x_max":671,"o":"m 392 1008 l 549 1159 l 641 1121 l 459 896 l 325 896 l 138 1122 l 223 1160 l 392 1008 m 469 659 l 96 659 l 96 773 l 647 773 l 671 709 l 298 165 l 258 109 l 657 109 l 657 0 l 84 0 l 56 56 l 469 659 z "},"ż":{"ha":720,"x_min":56,"x_max":671,"o":"m 469 659 l 96 659 l 96 773 l 647 773 l 671 709 l 298 165 l 258 109 l 657 109 l 657 0 l 84 0 l 56 56 l 469 659 m 260 1005 q 276 1058 260 1034 q 317 1097 292 1082 q 370 1111 343 1111 q 440 1085 416 1111 q 465 1019 465 1059 q 450 965 465 989 q 409 927 434 941 q 355 913 384 913 q 308 925 330 913 q 273 957 286 936 q 260 1005 260 978 z "},"ﬁ":{"ha":961,"x_min":51,"x_max":858,"o":"m 51 661 l 51 743 l 168 773 l 168 840 q 210 1016 168 949 q 315 1112 252 1083 q 448 1141 379 1141 q 504 1136 477 1141 q 545 1126 531 1131 l 545 1008 q 497 1018 523 1015 q 428 1021 472 1021 q 348 983 378 1021 q 317 874 317 945 l 317 773 l 509 773 l 509 661 l 317 661 l 317 0 l 168 0 l 168 661 l 51 661 m 830 772 l 830 0 l 681 0 l 681 772 l 830 772 m 652 1005 q 668 1058 652 1034 q 710 1097 684 1082 q 762 1111 736 1111 q 833 1085 808 1111 q 858 1019 858 1059 q 842 965 858 989 q 802 927 827 941 q 748 913 777 913 q 701 925 722 913 q 666 957 679 936 q 652 1005 652 978 z "},"ﬂ":{"ha":966,"x_min":51,"x_max":833,"o":"m 51 661 l 51 743 l 168 773 l 168 840 q 210 1016 168 949 q 315 1112 252 1083 q 448 1141 379 1141 q 504 1136 477 1141 q 545 1126 531 1131 l 545 1008 q 497 1018 523 1015 q 428 1021 472 1021 q 348 983 378 1021 q 317 874 317 945 l 317 773 l 509 773 l 509 661 l 317 661 l 317 0 l 168 0 l 168 661 l 51 661 m 833 1128 l 833 0 l 684 0 l 684 1128 l 833 1128 z "},"ª":{"ha":701,"x_min":85,"x_max":594,"o":"m 359 1084 q 534 1039 474 1084 q 594 883 594 993 l 594 466 l 546 466 q 514 466 541 466 q 477 478 488 466 q 467 515 467 490 l 467 524 q 394 478 441 498 q 292 459 347 459 q 184 479 231 459 q 112 536 138 498 q 85 627 85 574 q 117 734 85 693 q 208 798 149 774 q 329 827 262 818 q 460 836 395 836 l 460 879 q 445 945 460 924 q 404 973 431 966 q 329 979 377 979 q 262 970 300 979 q 190 948 224 961 q 141 925 156 935 l 103 1007 q 159 1039 117 1020 q 256 1071 201 1057 q 359 1084 310 1084 m 317 559 q 378 567 348 559 q 429 585 408 574 q 459 602 451 595 l 460 602 l 460 753 q 350 749 390 753 q 277 730 309 746 q 231 693 245 714 q 217 637 217 672 q 245 578 217 598 q 317 559 273 559 z "},"º":{"ha":701,"x_min":75,"x_max":625,"o":"m 361 1084 q 504 1046 445 1084 q 594 937 564 1007 q 625 775 625 867 q 586 596 625 667 q 484 492 547 525 q 347 459 420 459 q 201 498 262 459 q 107 608 140 536 q 75 774 75 679 q 117 951 75 881 q 225 1053 159 1021 q 361 1084 290 1084 m 352 559 q 451 608 418 559 q 484 766 484 657 q 451 926 484 868 q 356 985 418 985 q 254 936 292 985 q 216 781 216 887 q 233 664 216 713 q 279 587 249 614 q 352 559 310 559 z "},"Δ":{"ha":1069,"x_min":37,"x_max":1031,"o":"m 504 1023 l 526 1023 l 1031 18 l 1021 0 l 47 0 l 37 15 l 504 1023 m 521 762 l 231 118 l 827 118 l 521 762 z "},"Ω":{"ha":1223,"x_min":132,"x_max":1099,"o":"m 1099 104 l 1099 0 l 705 0 l 705 102 q 812 210 763 140 q 890 374 861 279 q 920 577 920 469 q 874 782 920 701 q 758 901 829 863 q 607 938 687 938 q 450 901 523 938 q 330 784 376 865 q 283 577 283 703 q 318 377 283 471 q 406 212 353 282 q 515 102 459 142 l 515 0 l 135 0 l 134 104 l 360 104 q 252 223 304 149 q 165 390 199 296 q 132 583 132 484 q 199 840 132 735 q 375 997 267 945 q 606 1048 484 1048 q 846 994 741 1048 q 1011 836 951 941 q 1071 583 1071 730 q 1042 392 1071 484 q 964 226 1013 300 q 856 104 916 153 l 1099 104 z "},"μ":{"ha":922,"x_min":142,"x_max":852,"o":"m 852 59 q 824 32 845 50 q 771 1 802 15 q 707 -12 741 -12 q 646 10 668 -12 q 626 81 623 32 q 581 36 602 55 q 524 3 559 18 q 444 -11 490 -11 q 333 5 377 -11 q 260 60 290 21 l 281 -252 l 142 -252 l 142 773 l 291 773 l 291 271 q 309 174 291 210 q 363 122 327 138 q 458 106 399 106 q 534 124 495 106 q 606 166 572 142 l 606 773 l 755 773 l 755 159 q 760 118 755 129 q 778 107 766 107 q 831 125 800 107 l 852 59 z "},"π":{"ha":1055,"x_min":81,"x_max":985,"o":"m 985 158 q 947 76 978 116 q 868 9 916 35 q 765 -16 820 -16 q 660 25 694 -16 q 626 144 626 66 q 627 169 626 160 l 660 648 l 442 648 l 423 290 q 406 171 419 216 q 371 97 392 125 q 314 35 351 69 q 212 -16 274 -1 l 121 66 q 156 80 132 68 q 203 109 180 92 q 257 168 239 135 q 281 235 275 200 q 293 330 288 271 l 317 648 l 281 648 q 210 632 238 648 q 157 588 181 615 l 81 624 q 93 661 83 636 q 115 702 103 685 q 189 756 143 739 q 304 773 234 773 l 788 773 q 855 785 831 773 q 888 824 879 797 l 984 824 q 928 689 979 731 q 784 648 878 648 l 782 648 l 762 173 q 808 100 758 100 q 865 130 836 100 q 912 191 895 159 l 985 158 z "},"⁄":{"ha":696,"x_min":97,"x_max":598,"o":"m 463 1038 l 598 1038 l 231 0 l 97 0 l 463 1038 z "},"½":{"ha":1681,"x_min":166,"x_max":1548,"o":"m 1548 110 l 1548 -2 l 1041 -2 l 1012 73 q 1159 169 1076 106 q 1303 308 1241 231 q 1366 458 1366 386 q 1332 552 1366 521 q 1240 583 1298 583 q 1139 558 1185 583 q 1053 486 1094 534 l 991 560 q 1055 623 1014 593 q 1150 671 1095 652 q 1265 690 1204 690 q 1403 661 1348 690 q 1485 585 1458 631 q 1511 484 1511 538 q 1437 284 1511 380 q 1238 106 1364 188 l 1548 110 m 333 967 q 269 951 307 962 q 193 932 223 938 l 166 1015 q 253 1050 204 1025 q 344 1103 301 1076 q 405 1145 387 1131 l 476 1128 l 476 450 l 333 450 l 333 967 m 873 1038 l 1009 1038 l 642 0 l 508 0 l 873 1038 z "},"¼":{"ha":1681,"x_min":166,"x_max":1539,"o":"m 1407 159 l 1407 -33 l 1269 -33 l 1270 159 l 931 159 l 896 222 l 1223 772 l 1269 772 l 1358 720 l 1089 308 l 1061 261 l 1270 261 l 1270 263 l 1275 432 l 1407 446 l 1407 261 l 1539 261 l 1539 159 l 1407 159 m 873 1038 l 1008 1038 l 641 0 l 507 0 l 873 1038 m 333 967 q 269 951 307 962 q 193 932 223 938 l 166 1015 q 253 1050 204 1025 q 344 1103 301 1076 q 405 1145 387 1131 l 476 1128 l 476 450 l 333 450 l 333 967 z "},"¾":{"ha":1681,"x_min":78,"x_max":1539,"o":"m 1407 159 l 1407 -33 l 1269 -33 l 1270 159 l 931 159 l 896 222 l 1223 772 l 1269 772 l 1358 720 l 1089 308 l 1061 261 l 1270 261 l 1270 263 l 1275 432 l 1407 446 l 1407 261 l 1539 261 l 1539 159 l 1407 159 m 114 507 q 179 496 155 499 q 241 493 202 493 q 379 525 335 493 q 422 625 422 557 q 382 711 422 678 q 277 747 342 743 l 217 728 l 192 814 q 243 829 212 819 q 297 850 273 840 q 382 963 382 889 q 353 1026 382 1004 q 277 1048 324 1048 q 199 1034 243 1048 q 120 995 155 1019 l 78 1076 q 147 1115 106 1099 q 227 1139 188 1131 q 290 1147 267 1147 q 417 1125 366 1147 q 494 1067 469 1103 q 519 985 519 1031 q 484 880 519 926 q 378 802 448 833 q 480 774 438 800 q 544 710 523 749 q 566 629 566 671 q 533 508 566 561 q 434 423 501 454 q 265 392 366 392 q 199 397 232 392 q 123 411 167 402 l 114 507 m 873 1038 l 1008 1038 l 641 0 l 507 0 l 873 1038 z "},"¹":{"ha":696,"x_min":151,"x_max":460,"o":"m 317 967 q 254 951 292 962 q 178 932 208 938 l 151 1015 q 237 1050 189 1025 q 328 1103 286 1076 q 389 1145 371 1131 l 460 1128 l 460 450 l 317 450 l 317 967 z "},"²":{"ha":810,"x_min":119,"x_max":675,"o":"m 675 563 l 675 451 l 168 451 l 139 526 q 286 622 203 559 q 431 761 368 684 q 493 911 493 839 q 459 1005 493 974 q 367 1036 425 1036 q 267 1011 312 1036 q 180 939 221 987 l 119 1013 q 182 1076 141 1046 q 277 1124 222 1105 q 393 1143 332 1143 q 530 1114 475 1143 q 612 1038 585 1084 q 638 937 638 991 q 565 737 638 833 q 365 559 491 641 l 675 563 z "},"³":{"ha":810,"x_min":178,"x_max":665,"o":"m 214 507 q 278 496 255 499 q 340 493 302 493 q 478 525 435 493 q 522 625 522 557 q 482 711 522 678 q 376 747 442 743 l 317 728 l 292 814 q 342 829 312 819 q 397 850 373 840 q 482 963 482 889 q 453 1026 482 1004 q 377 1048 424 1048 q 299 1034 343 1048 q 220 995 254 1019 l 178 1076 q 247 1115 206 1099 q 327 1139 288 1131 q 390 1147 366 1147 q 517 1125 466 1147 q 593 1067 568 1103 q 618 985 618 1031 q 583 880 618 926 q 477 802 548 833 q 580 774 538 800 q 644 710 623 749 q 665 629 665 671 q 633 508 665 561 q 533 423 601 454 q 365 392 466 392 q 299 397 332 392 q 223 411 267 402 l 214 507 z "},"⁴":{"ha":781,"x_min":73,"x_max":716,"o":"m 584 593 l 584 402 l 446 402 l 446 593 l 108 593 l 73 657 l 399 1207 l 446 1207 l 534 1155 l 266 743 l 237 696 l 446 696 l 446 698 l 452 867 l 584 880 l 584 696 l 715 696 l 716 593 l 584 593 z "},"*":{"ha":819,"x_min":79,"x_max":740,"o":"m 380 732 l 295 650 l 147 551 l 82 663 l 239 747 l 351 783 q 295 800 332 789 q 238 816 258 810 l 79 896 l 142 1008 l 292 909 l 379 833 q 367 889 376 851 q 353 946 357 926 l 340 1126 l 470 1126 l 461 948 l 438 834 q 480 874 452 847 q 523 914 508 901 l 672 1013 l 736 903 l 579 821 l 468 783 l 580 750 l 740 672 l 674 557 l 527 654 l 438 731 l 465 617 l 479 439 l 349 439 l 357 617 l 380 732 z "},"\\":{"ha":579,"x_min":28,"x_max":549,"o":"m 549 -246 l 415 -246 l 28 1084 l 163 1084 l 549 -246 z "},"·":{"ha":408,"x_min":100,"x_max":309,"o":"m 100 487 q 115 545 100 518 q 156 587 131 571 q 209 603 181 603 q 282 572 256 603 q 309 497 309 542 q 293 439 309 465 q 253 397 278 412 q 199 382 227 382 q 150 396 173 382 q 113 434 127 410 q 100 487 100 458 z "},"•":{"ha":580,"x_min":140,"x_max":439,"o":"m 140 483 q 162 564 140 527 q 219 624 183 602 q 297 646 256 646 q 369 627 336 646 q 420 575 401 608 q 439 503 439 543 q 418 421 439 458 q 361 361 397 383 q 283 338 325 338 q 212 358 245 338 q 160 411 179 378 q 140 483 140 444 z "},":":{"ha":408,"x_min":100,"x_max":309,"o":"m 100 90 q 115 148 100 121 q 156 190 131 174 q 209 206 181 206 q 282 176 256 206 q 309 100 309 145 q 293 42 309 68 q 253 0 278 16 q 199 -15 227 -15 q 150 -1 173 -15 q 113 37 127 13 q 100 90 100 61 m 100 630 q 115 688 100 661 q 156 730 131 714 q 209 746 181 746 q 282 715 256 746 q 309 640 309 685 q 293 582 309 608 q 253 540 278 555 q 199 525 227 525 q 150 539 173 525 q 113 577 127 553 q 100 630 100 601 z "},",":{"ha":408,"x_min":102,"x_max":332,"o":"m 102 -259 q 166 -191 140 -240 q 191 -84 191 -142 q 179 -24 191 -56 q 148 28 168 7 q 109 52 129 50 l 109 95 l 203 184 q 277 131 248 168 q 319 51 306 95 q 332 -37 332 6 q 308 -171 332 -109 q 242 -277 283 -233 q 153 -339 201 -321 l 102 -277 l 102 -259 z "},"…":{"ha":1388,"x_min":127,"x_max":1261,"o":"m 127 90 q 142 148 127 121 q 183 190 158 174 q 236 206 208 206 q 310 176 283 206 q 336 100 336 145 q 320 42 336 68 q 280 0 305 16 q 226 -15 254 -15 q 177 -1 200 -15 q 140 37 154 13 q 127 90 127 61 m 590 92 q 606 149 590 122 q 646 191 621 175 q 699 206 671 206 q 772 176 746 206 q 798 100 798 145 q 783 42 798 68 q 742 0 768 16 q 688 -15 717 -15 q 640 -1 663 -15 q 604 37 617 13 q 590 92 590 62 m 1053 92 q 1068 149 1053 122 q 1109 191 1084 175 q 1162 206 1134 206 q 1235 176 1209 206 q 1261 101 1261 146 q 1246 42 1261 69 q 1205 0 1231 16 q 1152 -15 1180 -15 q 1103 -1 1126 -15 q 1066 37 1080 13 q 1053 92 1053 62 z "},"!":{"ha":408,"x_min":100,"x_max":309,"o":"m 292 1207 l 275 343 l 142 343 l 123 1207 l 292 1207 m 100 92 q 115 149 100 122 q 156 191 131 175 q 208 206 181 206 q 282 176 256 206 q 309 101 309 146 q 293 42 309 69 q 253 0 278 16 q 199 -15 227 -15 q 150 -1 172 -15 q 113 37 127 13 q 100 92 100 62 z "},"‼":{"ha":940,"x_min":127,"x_max":808,"o":"m 319 1207 l 303 343 l 170 343 l 151 1207 l 319 1207 m 127 92 q 143 149 127 122 q 184 191 159 175 q 236 206 209 206 q 310 176 283 206 q 336 101 336 146 q 321 42 336 69 q 280 0 306 16 q 227 -15 255 -15 q 177 -1 200 -15 q 141 37 155 13 q 127 92 127 62 m 791 1207 l 775 343 l 642 343 l 623 1207 l 791 1207 m 600 92 q 615 149 600 122 q 656 191 631 175 q 708 206 681 206 q 782 176 755 206 q 808 101 808 146 q 793 42 808 69 q 752 0 778 16 q 699 -15 727 -15 q 649 -1 672 -15 q 613 37 627 13 q 600 92 600 62 z "},"¡":{"ha":408,"x_min":100,"x_max":309,"o":"m 309 820 q 293 763 309 789 q 252 721 277 736 q 200 705 227 705 q 126 735 153 705 q 100 810 100 766 q 115 869 100 842 q 156 911 130 896 q 210 926 181 926 q 259 912 236 926 q 295 874 281 899 q 309 820 309 850 m 117 -296 l 133 568 l 266 568 l 285 -296 l 117 -296 z "},"#":{"ha":1060,"x_min":140,"x_max":935,"o":"m 774 597 l 751 347 l 905 347 l 905 241 l 742 241 l 720 0 l 594 0 l 615 241 l 405 241 l 382 0 l 256 0 l 277 241 l 140 241 l 140 347 l 287 347 l 309 597 l 163 597 l 163 701 l 319 701 l 340 931 l 469 931 l 448 701 l 656 701 l 676 931 l 805 931 l 784 701 l 935 701 l 935 597 l 774 597 m 647 597 l 438 597 l 415 347 l 625 347 l 647 597 z "},".":{"ha":408,"x_min":100,"x_max":309,"o":"m 100 90 q 115 148 100 121 q 156 190 131 174 q 209 206 181 206 q 282 176 256 206 q 309 100 309 145 q 293 42 309 68 q 253 0 278 16 q 199 -15 227 -15 q 150 -1 173 -15 q 113 37 127 13 q 100 90 100 61 z "},"?":{"ha":710,"x_min":82,"x_max":633,"o":"m 186 522 q 206 591 185 559 q 258 648 227 623 q 340 705 289 672 q 408 752 382 733 q 453 794 433 771 q 477 843 472 817 q 486 916 486 883 q 452 1027 486 981 q 355 1098 418 1074 q 205 1122 292 1122 q 82 1110 128 1122 l 82 1219 q 139 1238 95 1228 q 229 1247 182 1247 q 456 1204 365 1247 q 590 1088 547 1161 q 633 927 633 1016 q 625 850 633 889 q 589 759 616 798 q 529 693 562 720 q 446 633 496 667 q 385 591 407 608 q 348 554 363 574 q 330 508 332 533 q 329 481 329 489 q 335 423 329 451 q 356 348 342 395 l 360 335 l 247 335 q 206 415 223 364 q 186 522 189 465 m 226 87 q 241 143 226 117 q 282 185 257 170 q 333 200 307 200 q 405 171 379 200 q 431 98 431 141 q 415 41 431 66 q 375 0 400 15 q 323 -15 351 -15 q 275 -1 298 -15 q 239 36 253 12 q 226 87 226 59 z "},"¿":{"ha":710,"x_min":76,"x_max":627,"o":"m 484 946 q 468 890 484 916 q 428 849 452 864 q 376 833 403 833 q 304 863 330 833 q 279 936 279 892 q 294 993 279 967 q 334 1034 309 1019 q 387 1048 359 1048 q 434 1035 412 1048 q 470 998 456 1021 q 484 946 484 975 m 523 511 q 503 442 524 474 q 451 386 482 410 q 370 328 420 361 q 301 281 327 300 q 257 239 276 262 q 233 191 237 216 q 223 118 223 151 q 257 6 223 52 q 354 -64 291 -40 q 505 -88 418 -88 q 627 -77 581 -88 l 627 -185 q 571 -204 614 -195 q 481 -214 527 -214 q 254 -171 345 -214 q 119 -55 163 -127 q 76 106 76 18 q 84 183 76 144 q 120 275 93 235 q 180 340 147 314 q 264 400 213 366 q 324 442 302 425 q 361 480 346 459 q 379 526 377 500 q 380 552 380 545 q 374 610 380 583 q 353 686 368 638 l 349 699 l 463 699 q 504 619 486 669 q 523 511 521 568 z "},"\"":{"ha":871,"x_min":180,"x_max":690,"o":"m 344 1143 l 322 655 l 202 655 l 180 1143 l 344 1143 m 690 1143 l 669 655 l 549 655 l 526 1143 l 690 1143 z "},"'":{"ha":524,"x_min":180,"x_max":344,"o":"m 344 1143 l 322 655 l 202 655 l 180 1143 l 344 1143 z "},";":{"ha":408,"x_min":100,"x_max":332,"o":"m 102 -259 q 166 -191 140 -240 q 191 -84 191 -142 q 179 -24 191 -56 q 148 28 168 7 q 109 52 129 50 l 109 95 l 203 184 q 277 131 248 168 q 319 51 306 95 q 332 -37 332 6 q 308 -171 332 -109 q 242 -277 283 -233 q 153 -339 201 -321 l 102 -277 l 102 -259 m 100 630 q 115 688 100 661 q 156 730 131 714 q 209 746 181 746 q 282 715 256 746 q 309 640 309 685 q 293 582 309 608 q 253 540 278 555 q 199 525 227 525 q 150 539 173 525 q 113 577 127 553 q 100 630 100 601 z "},"/":{"ha":579,"x_min":28,"x_max":549,"o":"m 549 1084 l 163 -246 l 28 -246 l 415 1084 l 549 1084 z "},"_":{"ha":1147,"x_min":-27,"x_max":1175,"o":"m 1175 -189 l 1175 -282 l -27 -282 l -27 -189 l 1175 -189 z "},"{":{"ha":659,"x_min":51,"x_max":544,"o":"m 363 662 q 334 598 363 626 q 281 563 313 578 q 200 527 249 547 q 336 448 296 490 q 363 388 363 418 l 363 -33 l 544 -33 l 544 -109 q 455 -127 500 -121 q 356 -133 411 -133 q 274 -117 303 -133 q 234 -65 245 -102 q 222 41 222 -28 l 222 387 q 194 426 222 406 q 126 461 166 446 q 51 479 85 475 l 51 575 q 126 592 86 578 q 194 624 167 605 q 222 661 222 642 l 222 1008 q 234 1113 222 1076 q 274 1166 245 1150 q 356 1181 303 1181 q 435 1178 399 1181 q 521 1168 471 1175 l 544 1165 l 544 1082 l 363 1082 l 363 662 z "},"}":{"ha":659,"x_min":115,"x_max":608,"o":"m 437 661 q 465 624 437 642 q 533 592 492 605 q 608 575 573 578 l 608 479 q 533 461 574 475 q 465 426 493 446 q 437 387 437 406 l 437 41 q 426 -65 437 -28 q 385 -117 414 -102 q 303 -133 356 -133 q 204 -127 248 -133 q 115 -109 159 -121 l 115 -33 l 296 -33 l 296 388 q 323 448 296 418 q 459 527 363 490 q 378 563 410 547 q 326 598 346 578 q 296 662 296 626 l 296 1082 l 115 1082 l 115 1165 l 138 1168 q 224 1178 189 1175 q 303 1181 260 1181 q 385 1166 356 1181 q 426 1113 414 1150 q 437 1008 437 1076 l 437 661 z "},"[":{"ha":568,"x_min":125,"x_max":451,"o":"m 125 1008 q 136 1113 125 1077 q 174 1163 146 1148 q 254 1178 201 1178 q 331 1175 298 1178 q 409 1166 364 1173 l 451 1162 l 451 1080 l 269 1080 l 269 -33 l 451 -35 l 451 -113 q 350 -126 389 -122 q 254 -130 311 -130 q 174 -115 201 -130 q 136 -64 146 -100 q 125 41 125 -28 l 125 1008 z "},"]":{"ha":568,"x_min":117,"x_max":442,"o":"m 442 41 q 432 -64 442 -28 q 394 -115 421 -100 q 313 -130 367 -130 q 218 -126 257 -130 q 117 -113 178 -122 l 117 -35 l 298 -33 l 298 1080 l 117 1080 l 117 1162 l 159 1166 q 237 1175 203 1173 q 313 1178 270 1178 q 394 1163 367 1178 q 432 1113 421 1148 q 442 1008 442 1077 l 442 41 z "},"(":{"ha":574,"x_min":81,"x_max":487,"o":"m 81 490 q 139 814 81 667 q 269 1056 197 962 q 385 1173 342 1149 l 487 1123 q 389 1014 447 1092 q 281 801 331 936 q 227 490 231 667 l 226 458 q 273 152 226 285 q 380 -59 321 20 q 487 -173 440 -138 l 385 -224 q 267 -107 337 -193 q 139 131 197 -22 q 81 490 81 283 z "},")":{"ha":574,"x_min":87,"x_max":492,"o":"m 492 477 q 435 153 492 301 q 304 -88 377 5 q 189 -205 232 -182 l 87 -155 q 185 -46 127 -124 q 293 166 243 32 q 347 477 342 301 l 348 510 q 300 815 348 683 q 193 1027 253 948 q 87 1141 134 1106 l 189 1192 q 307 1075 237 1160 q 434 837 376 990 q 492 477 492 684 z "},"—":{"ha":1589,"x_min":163,"x_max":1426,"o":"m 1426 583 l 1426 463 l 163 463 l 163 583 l 1426 583 z "},"–":{"ha":1147,"x_min":163,"x_max":985,"o":"m 985 583 l 985 463 l 163 463 l 163 583 l 985 583 z "},"-":{"ha":916,"x_min":170,"x_max":746,"o":"m 746 583 l 746 463 l 170 463 l 170 583 l 746 583 z "},"«":{"ha":1313,"x_min":166,"x_max":1137,"o":"m 313 417 l 641 178 l 602 71 l 166 352 l 166 477 l 602 768 l 641 658 l 313 417 m 808 417 l 1137 178 l 1098 71 l 662 352 l 662 477 l 1098 768 l 1137 658 l 808 417 z "},"»":{"ha":1313,"x_min":176,"x_max":1146,"o":"m 214 768 l 650 477 l 650 352 l 214 71 l 176 178 l 504 417 l 176 658 l 214 768 m 1146 477 l 1146 352 l 710 71 l 671 178 l 1000 417 l 671 658 l 710 768 l 1146 477 z "},"‹":{"ha":817,"x_min":166,"x_max":641,"o":"m 313 417 l 641 178 l 602 71 l 166 352 l 166 477 l 602 768 l 641 658 l 313 417 z "},"›":{"ha":817,"x_min":176,"x_max":650,"o":"m 650 477 l 650 352 l 214 71 l 176 178 l 504 417 l 176 658 l 214 768 l 650 477 z "},"„":{"ha":698,"x_min":75,"x_max":626,"o":"m 86 -288 q 124 -209 109 -263 q 138 -103 138 -155 q 129 -35 138 -68 q 105 21 119 -3 q 75 53 90 44 l 75 94 l 172 174 q 250 96 221 150 q 278 -47 278 41 q 257 -188 278 -125 q 208 -290 237 -250 q 151 -351 179 -330 l 86 -309 l 86 -288 m 434 -288 q 472 -209 457 -263 q 486 -103 486 -155 q 477 -35 486 -68 q 453 21 467 -3 q 423 53 438 44 l 423 94 l 520 174 q 597 96 569 150 q 626 -47 626 41 q 605 -188 626 -125 q 556 -290 585 -250 q 499 -351 527 -330 l 434 -309 l 434 -288 z "},"“":{"ha":698,"x_min":66,"x_max":633,"o":"m 66 899 q 89 1020 66 964 q 144 1116 112 1077 q 207 1175 177 1156 l 272 1134 l 272 1112 q 224 1033 243 1088 q 206 928 206 979 q 218 863 206 895 q 247 810 229 832 q 283 779 264 787 l 283 737 l 206 651 q 134 701 165 666 q 84 787 102 736 q 66 899 66 838 m 416 899 q 439 1020 416 964 q 494 1116 462 1077 q 557 1175 527 1156 l 622 1134 l 622 1112 q 574 1033 593 1088 q 556 928 556 979 q 568 863 556 895 q 597 810 579 832 q 633 779 614 787 l 633 737 l 556 651 q 484 701 515 666 q 434 787 452 736 q 416 899 416 838 z "},"”":{"ha":698,"x_min":75,"x_max":628,"o":"m 86 714 q 124 793 109 739 q 138 899 138 847 q 129 966 138 934 q 105 1022 119 999 q 75 1055 90 1046 l 75 1096 l 172 1175 q 250 1097 221 1152 q 278 955 278 1043 q 257 814 278 876 q 208 712 237 752 q 151 651 179 671 l 86 692 l 86 714 m 436 714 q 474 793 459 739 q 488 899 488 847 q 479 966 488 934 q 455 1022 469 999 q 425 1055 440 1046 l 425 1096 l 522 1175 q 600 1097 571 1152 q 628 955 628 1043 q 607 814 628 876 q 558 712 587 752 q 501 651 529 671 l 436 692 l 436 714 z "},"‘":{"ha":353,"x_min":66,"x_max":283,"o":"m 66 899 q 89 1020 66 964 q 144 1116 112 1077 q 207 1175 177 1156 l 272 1134 l 272 1112 q 224 1033 243 1088 q 206 928 206 979 q 218 863 206 895 q 247 810 229 832 q 283 779 264 787 l 283 737 l 206 651 q 134 701 165 666 q 84 787 102 736 q 66 899 66 838 z "},"‛":{"ha":353,"x_min":66,"x_max":283,"o":"m 283 1048 q 247 1017 264 1039 q 218 963 229 994 q 206 899 206 932 q 224 793 206 848 q 272 714 243 739 l 272 692 l 207 651 q 144 710 177 671 q 89 806 112 749 q 66 927 66 863 q 84 1039 66 988 q 134 1125 102 1090 q 206 1175 165 1160 l 283 1089 l 283 1048 z "},"’":{"ha":353,"x_min":75,"x_max":278,"o":"m 86 714 q 124 793 109 739 q 138 899 138 847 q 129 966 138 934 q 105 1022 119 999 q 75 1055 90 1046 l 75 1096 l 172 1175 q 250 1097 221 1152 q 278 955 278 1043 q 257 814 278 876 q 208 712 237 752 q 151 651 179 671 l 86 692 l 86 714 z "},"‚":{"ha":353,"x_min":75,"x_max":278,"o":"m 86 -305 q 124 -227 109 -281 q 138 -121 138 -172 q 129 -53 138 -85 q 105 3 119 -20 q 75 35 90 26 l 75 77 l 172 156 q 250 78 221 132 q 278 -64 278 24 q 257 -205 278 -143 q 208 -308 237 -267 q 151 -368 179 -348 l 86 -327 l 86 -305 z "}," ":{"ha":444,"x_min":0,"x_max":0,"o":""},"₵":{"ha":943,"x_min":65,"x_max":816,"o":"m 529 1231 l 629 1231 l 612 1041 q 713 1029 671 1038 q 794 1010 755 1021 l 816 1004 l 793 865 q 769 878 791 866 q 701 900 747 889 q 600 913 655 911 l 529 115 q 557 114 538 114 q 659 123 607 114 q 750 146 710 132 q 808 177 790 161 l 808 43 q 734 16 766 26 q 655 -3 702 5 q 549 -11 608 -11 q 517 -9 538 -11 l 497 -240 l 397 -240 l 419 3 q 230 99 310 30 q 108 274 151 169 q 65 511 65 380 q 125 786 65 669 q 287 968 185 903 q 512 1042 389 1034 l 529 1231 m 500 911 q 351 847 414 898 q 256 713 289 796 q 222 522 222 630 q 277 279 222 381 q 431 137 332 178 l 500 911 z "},"¢":{"ha":802,"x_min":106,"x_max":684,"o":"m 684 62 q 605 17 654 35 q 498 -8 556 -2 l 496 -146 l 394 -146 l 397 -7 q 240 57 306 4 q 140 193 174 109 q 106 378 106 276 q 142 570 106 484 q 247 712 177 656 q 418 780 317 767 l 422 934 l 524 934 l 520 783 q 612 767 572 779 q 670 744 652 756 l 646 626 q 573 658 615 648 q 473 669 531 669 q 364 639 414 669 q 282 546 313 609 q 251 386 251 482 q 279 232 251 296 q 357 135 308 168 q 469 102 407 102 q 573 116 522 102 q 653 147 624 130 l 684 62 z "},"₡":{"ha":901,"x_min":64,"x_max":817,"o":"m 435 1231 l 514 1231 l 501 1041 q 547 1043 525 1043 q 594 1042 579 1043 l 607 1231 l 686 1231 l 673 1036 q 795 1010 731 1028 l 817 1004 l 795 865 q 742 889 768 879 q 665 907 715 900 l 612 117 q 732 140 676 123 q 810 177 787 157 l 810 43 q 712 9 758 22 q 604 -9 667 -4 l 589 -240 l 509 -240 l 524 -10 q 432 1 481 -8 l 416 -240 l 337 -240 l 355 24 q 199 130 264 60 q 99 296 134 199 q 64 511 64 393 q 111 756 64 649 q 238 932 157 863 q 421 1027 319 1000 l 435 1231 m 586 914 q 559 915 577 915 q 492 909 526 915 l 441 134 q 532 115 486 117 l 586 914 m 412 884 q 271 748 321 842 q 222 522 222 654 q 259 317 222 407 q 364 176 296 227 l 412 884 z "},"¤":{"ha":1036,"x_min":135,"x_max":905,"o":"m 819 524 q 764 351 819 429 l 903 212 l 817 125 l 675 268 q 518 224 604 224 q 364 267 437 224 l 221 123 l 135 209 l 275 349 q 233 431 248 387 q 218 524 218 476 q 233 617 218 572 q 274 699 247 661 l 135 838 l 220 924 l 363 781 q 518 824 434 824 q 674 781 602 824 l 819 926 l 905 840 l 764 698 q 804 616 790 661 q 819 524 819 572 m 519 336 q 609 361 568 336 q 674 430 650 387 q 698 524 698 473 q 674 618 698 575 q 609 687 650 661 q 519 712 568 712 q 429 687 470 712 q 363 618 387 661 q 338 524 338 575 q 363 430 338 473 q 429 361 387 387 q 519 336 470 336 z "},"$":{"ha":930,"x_min":157,"x_max":793,"o":"m 793 270 q 718 76 793 146 q 513 -7 644 6 l 512 -161 l 401 -161 l 403 -9 q 255 13 323 -5 q 159 48 187 31 l 195 172 q 304 128 237 146 q 439 109 372 109 q 592 144 539 109 q 644 252 644 178 q 619 336 644 301 q 549 397 593 370 q 416 467 504 425 q 230 599 302 522 q 157 778 157 675 q 234 960 157 897 q 429 1039 310 1024 l 431 1195 l 541 1195 l 540 1042 q 661 1023 610 1038 q 741 989 711 1008 l 710 870 q 620 910 666 897 q 498 924 574 924 q 402 911 447 924 q 330 869 357 897 q 302 798 302 840 q 321 716 302 749 q 382 655 341 683 q 507 585 423 628 q 653 500 594 540 q 752 403 711 460 q 793 270 793 345 z "},"₫":{"ha":903,"x_min":78,"x_max":876,"o":"m 576 1031 l 576 1149 l 727 1149 l 727 1031 l 876 1031 l 876 918 l 727 918 l 727 197 l 616 197 q 600 224 600 197 l 600 272 q 518 219 568 241 q 388 197 469 197 q 247 231 311 197 q 144 332 182 264 q 106 499 106 400 q 147 686 106 608 q 265 805 188 764 q 450 846 342 846 q 578 834 520 846 l 576 918 l 347 918 l 347 1031 l 576 1031 m 576 687 q 568 698 575 688 q 529 715 560 708 q 448 722 498 722 q 335 693 374 722 q 282 617 296 664 q 269 503 269 570 q 289 400 269 441 q 339 341 309 359 q 400 322 369 322 q 513 337 478 322 q 560 365 548 352 q 576 381 572 378 l 576 687 m 827 134 l 827 0 l 78 0 l 78 134 l 827 134 z "},"€":{"ha":1021,"x_min":77,"x_max":930,"o":"m 930 41 q 897 32 914 38 q 876 24 880 25 q 815 2 843 11 q 740 -13 787 -6 q 628 -19 692 -19 q 430 25 515 -19 q 292 152 345 70 q 219 347 239 234 l 77 347 l 77 444 l 209 444 q 208 488 208 473 q 214 599 208 549 l 99 599 l 99 696 l 233 696 q 385 947 275 857 q 656 1043 495 1037 q 686 1044 667 1044 q 786 1036 747 1044 q 867 1014 825 1028 q 908 1002 892 1006 l 872 884 q 782 919 827 908 q 650 930 736 930 q 485 870 553 930 q 388 696 416 810 l 747 696 l 747 599 l 372 599 q 370 532 370 570 q 372 444 370 481 l 724 444 l 724 347 l 383 347 q 467 157 405 224 q 648 90 530 90 q 785 107 719 90 q 889 153 850 125 l 930 41 z "},"ƒ":{"ha":793,"x_min":147,"x_max":717,"o":"m 147 659 l 153 736 l 294 773 l 300 817 q 405 1064 320 986 q 615 1143 490 1143 q 681 1139 656 1143 q 717 1131 707 1135 l 708 1009 q 669 1019 698 1015 q 596 1022 640 1022 q 499 986 537 1022 q 450 860 460 949 l 440 773 l 643 773 l 634 659 l 431 659 l 356 -241 l 210 -241 l 286 659 l 147 659 z "},"₣":{"ha":741,"x_min":-7,"x_max":728,"o":"m 132 290 l 132 1032 l 728 1032 l 728 911 l 291 911 l 291 578 l 619 578 l 619 456 l 291 456 l 291 290 l 461 290 l 461 165 l 291 165 l 291 0 l 132 0 l 132 165 l -7 165 l -7 290 l 132 290 z "},"₲":{"ha":1010,"x_min":66,"x_max":896,"o":"m 470 1195 l 610 1195 l 610 1042 q 697 1033 661 1039 q 777 1016 732 1027 q 837 1002 814 1006 l 830 862 q 710 905 775 890 q 540 920 644 920 q 379 873 450 920 q 269 738 309 826 q 229 529 229 650 q 264 313 229 408 q 370 164 299 218 q 544 109 440 109 q 661 119 604 109 q 745 147 718 129 l 745 398 l 559 407 l 559 520 l 896 520 l 896 63 q 865 57 882 62 q 825 42 849 52 q 721 8 769 21 q 603 -9 673 -4 l 602 -175 l 461 -175 l 463 -5 q 249 84 338 14 q 113 264 159 154 q 66 511 66 374 q 118 780 66 667 q 261 957 170 892 q 470 1038 352 1021 l 470 1195 z "},"₤":{"ha":1018,"x_min":98,"x_max":951,"o":"m 294 670 l 294 708 q 333 884 294 808 q 446 1002 372 960 q 620 1043 519 1043 q 754 1024 699 1043 q 845 976 810 1005 l 772 863 q 701 909 739 892 q 605 925 662 925 q 492 874 536 925 q 449 687 448 823 l 449 670 l 707 670 l 707 576 l 450 576 l 450 488 l 692 488 l 692 395 l 450 395 q 438 236 449 294 q 398 147 427 178 q 479 125 432 141 q 555 103 522 111 q 637 96 588 96 q 804 227 804 96 q 796 274 804 252 q 776 310 788 296 q 753 329 764 325 l 863 385 q 902 350 882 374 q 937 291 923 326 q 951 216 951 256 q 658 -14 951 -14 q 524 1 582 -14 q 403 39 466 15 q 346 59 365 54 q 309 62 326 64 q 249 18 287 37 q 173 -1 210 -1 q 139 6 157 -1 q 110 26 121 13 q 98 56 98 39 q 143 139 98 106 q 275 177 189 172 q 291 237 287 202 q 294 320 294 273 l 294 395 l 142 395 l 142 488 l 294 488 l 294 576 l 157 576 l 157 670 l 294 670 z "},"₺":{"ha":960,"x_min":58,"x_max":886,"o":"m 886 450 q 821 213 886 315 q 642 55 756 111 q 385 0 528 0 l 232 0 l 232 363 l 65 291 l 65 404 l 232 476 l 232 623 l 58 547 l 58 667 l 232 743 l 232 1043 l 385 1043 l 385 810 l 703 949 l 703 829 l 385 690 l 385 543 l 688 673 l 688 560 l 385 429 l 385 125 q 566 161 487 125 q 692 279 646 198 q 739 488 739 360 l 886 488 l 886 450 z "},"₦":{"ha":1265,"x_min":37,"x_max":1255,"o":"m 205 718 l 205 1032 l 349 1032 l 568 718 l 925 718 l 925 1032 l 1071 1032 l 1071 718 l 1255 718 l 1255 618 l 1071 618 l 1071 418 l 1233 418 l 1233 319 l 1071 319 l 1071 0 l 924 0 l 700 319 l 351 319 l 351 0 l 205 0 l 205 319 l 37 319 l 37 418 l 205 418 l 205 618 l 53 618 l 53 718 l 205 718 m 347 718 l 422 718 l 340 840 l 347 718 m 630 418 l 490 618 l 351 618 l 351 418 l 630 418 m 925 418 l 925 618 l 637 618 l 776 418 l 925 418 m 936 182 l 928 319 l 844 319 l 936 182 z "},"₧":{"ha":930,"x_min":9,"x_max":930,"o":"m 132 722 l 132 1032 l 206 1032 q 321 1038 242 1032 q 456 1043 406 1043 q 720 965 627 1043 q 819 722 814 887 l 930 722 l 930 623 l 812 623 q 689 421 788 491 q 423 351 590 351 q 315 353 367 351 l 290 354 l 290 0 l 132 0 l 132 623 l 9 623 l 9 722 l 132 722 m 662 722 q 599 880 658 829 q 429 930 541 930 q 290 918 340 930 l 290 722 l 662 722 m 415 467 q 571 500 509 467 q 654 623 633 534 l 290 623 l 290 473 q 415 467 339 467 z "},"₱":{"ha":934,"x_min":20,"x_max":930,"o":"m 132 797 l 132 1032 l 207 1032 q 321 1038 243 1032 q 457 1043 407 1043 q 697 983 606 1043 q 812 797 789 923 l 930 797 l 930 724 l 819 724 q 820 706 820 718 q 817 648 820 678 l 930 648 l 930 575 l 802 575 q 671 407 767 465 q 423 349 575 349 q 311 351 389 349 l 290 352 l 290 0 l 132 0 l 132 575 l 20 575 l 20 648 l 132 648 l 132 724 l 20 724 l 20 797 l 132 797 m 651 797 q 574 898 631 865 q 427 930 518 930 q 290 918 341 930 l 290 797 l 651 797 m 290 724 l 290 648 l 659 648 q 663 705 663 673 q 663 724 663 718 l 290 724 m 415 465 q 553 489 496 465 q 640 575 611 513 l 290 575 l 290 471 q 415 465 340 465 z "},"₹":{"ha":943,"x_min":116,"x_max":902,"o":"m 689 0 q 646 44 670 0 q 581 181 622 88 q 507 341 536 283 q 445 427 477 399 q 259 418 355 418 q 172 420 210 418 q 116 425 134 422 l 116 521 q 209 518 136 519 q 368 517 283 517 q 470 537 422 517 q 552 595 517 557 q 601 688 587 634 l 116 688 l 116 796 l 610 796 q 601 868 610 841 q 563 912 593 895 q 473 931 534 930 l 116 931 l 116 1032 l 902 1032 l 902 931 l 705 931 q 748 796 743 883 l 880 796 l 880 688 l 740 688 q 669 554 721 610 q 554 467 618 498 q 621 407 591 445 q 673 325 650 368 q 726 213 696 281 q 787 86 761 136 q 847 0 814 37 l 689 0 z "},"₪":{"ha":1480,"x_min":326,"x_max":1182,"o":"m 326 1032 l 736 1032 q 868 1005 822 1032 q 931 917 913 977 q 949 745 949 856 l 949 254 l 825 254 l 825 758 q 818 851 825 817 q 785 907 811 886 q 704 928 758 928 l 439 928 l 439 0 l 326 0 l 326 1032 m 1182 0 l 833 0 q 680 28 739 0 q 593 120 622 57 q 565 288 565 182 l 565 785 l 690 785 l 690 254 q 705 173 690 204 q 760 127 721 142 q 871 112 800 112 l 1068 112 l 1068 1032 l 1182 1032 l 1182 0 z "},"£":{"ha":1039,"x_min":99,"x_max":945,"o":"m 858 382 q 896 348 876 372 q 930 289 916 323 q 945 215 945 254 q 871 42 945 98 q 653 -14 797 -14 q 522 1 578 -14 q 401 39 466 15 q 345 59 364 53 q 308 62 325 64 q 247 18 285 37 q 172 -1 210 -1 q 139 6 157 -1 q 111 25 122 13 q 99 54 99 38 q 144 137 99 104 q 277 175 189 171 q 292 236 288 201 q 296 317 296 271 l 296 513 l 173 513 l 173 616 l 296 616 l 296 709 q 334 885 296 809 q 445 1002 372 960 q 616 1043 517 1043 q 749 1024 694 1043 q 839 976 804 1006 l 768 869 q 696 914 734 898 q 601 930 658 930 q 488 879 532 930 q 444 688 444 827 l 445 616 l 684 616 l 684 513 l 446 513 l 446 489 l 446 437 q 435 245 446 311 q 393 144 425 179 q 447 132 422 140 q 475 122 471 123 q 552 100 519 107 q 635 93 585 93 q 804 226 804 93 q 795 272 804 250 q 775 309 787 294 q 752 328 764 324 l 858 382 z "},"₩":{"ha":1308,"x_min":15,"x_max":1293,"o":"m 139 576 l 15 1032 l 177 1032 l 287 576 l 467 576 l 597 1032 l 714 1032 l 847 576 l 1031 576 l 1135 1032 l 1293 1032 l 1176 576 l 1293 576 l 1293 477 l 1150 477 l 1100 281 l 1293 281 l 1293 181 l 1075 181 l 1026 -10 l 871 -10 l 816 181 l 491 181 l 435 -10 l 298 -10 l 246 181 l 26 181 l 26 281 l 219 281 l 166 477 l 26 477 l 26 576 l 139 576 m 702 576 l 678 659 l 654 786 l 631 658 l 607 576 l 702 576 m 437 477 l 311 477 l 338 368 l 353 281 l 391 281 l 406 368 l 437 477 m 787 281 l 730 477 l 578 477 l 520 281 l 787 281 m 1008 477 l 876 477 l 908 368 l 928 281 l 969 281 l 984 367 l 1008 477 m 372 181 l 371 181 l 372 178 l 372 181 m 952 178 l 953 181 l 951 181 l 952 178 z "},"¥":{"ha":1039,"x_min":111,"x_max":934,"o":"m 624 549 l 840 549 l 840 452 l 596 452 l 596 296 l 840 296 l 840 199 l 596 199 l 596 0 l 447 0 l 447 199 l 186 199 l 186 296 l 447 296 l 447 452 l 186 452 l 186 549 l 414 549 l 111 1032 l 273 1032 l 479 676 l 523 585 l 564 681 l 776 1032 l 934 1032 l 624 549 z "},"Ω":{"ha":1223,"x_min":132,"x_max":1099,"o":"m 1099 104 l 1099 0 l 705 0 l 705 102 q 812 210 763 140 q 890 374 861 279 q 920 577 920 469 q 874 782 920 701 q 758 901 829 863 q 607 938 687 938 q 450 901 523 938 q 330 784 376 865 q 283 577 283 703 q 318 377 283 471 q 406 212 353 282 q 515 102 459 142 l 515 0 l 135 0 l 134 104 l 360 104 q 252 223 304 149 q 165 390 199 296 q 132 583 132 484 q 199 840 132 735 q 375 997 267 945 q 606 1048 484 1048 q 846 994 741 1048 q 1011 836 951 941 q 1071 583 1071 730 q 1042 392 1071 484 q 964 226 1013 300 q 856 104 916 153 l 1099 104 z "},"≈":{"ha":975,"x_min":146,"x_max":828,"o":"m 146 271 q 189 335 159 302 q 264 392 219 369 q 361 414 309 414 q 420 406 393 414 q 468 384 448 397 q 514 351 488 371 q 569 313 546 325 q 621 300 592 300 q 699 321 666 300 q 758 378 731 341 l 828 311 q 785 242 814 273 q 712 192 756 211 q 613 173 668 173 q 554 182 581 173 q 509 203 528 191 q 463 237 490 216 q 408 275 431 262 q 355 288 385 288 q 282 268 311 288 q 224 210 252 248 l 146 271 m 146 582 q 188 647 158 613 q 263 703 218 680 q 360 726 308 726 q 420 717 393 726 q 467 695 447 708 q 513 662 487 682 q 568 624 545 636 q 621 612 591 612 q 698 632 665 612 q 758 689 730 652 l 827 622 q 784 553 813 585 q 711 503 755 522 q 612 484 667 484 q 553 493 580 484 q 508 514 527 502 q 463 548 490 527 q 408 586 431 574 q 355 599 385 599 q 281 579 311 599 q 224 522 252 559 l 146 582 z "},"~":{"ha":975,"x_min":146,"x_max":828,"o":"m 146 514 q 189 579 159 545 q 264 635 219 612 q 361 658 309 658 q 420 649 393 658 q 468 627 448 640 q 514 594 488 614 q 569 556 546 568 q 621 544 592 544 q 699 564 666 544 q 758 621 731 585 l 828 554 q 785 486 814 517 q 712 435 756 454 q 613 416 668 416 q 554 425 581 416 q 509 447 528 434 q 463 480 490 459 q 408 518 431 506 q 355 531 385 531 q 282 511 311 531 q 224 454 252 491 l 146 514 z "},"∙":{"ha":408,"x_min":79,"x_max":330,"o":"m 79 487 q 97 555 79 524 q 146 606 116 587 q 210 625 176 625 q 275 608 248 625 q 316 562 302 591 q 330 497 330 532 q 311 427 330 459 q 262 377 293 395 q 197 359 232 359 q 139 376 166 359 q 95 422 111 393 q 79 487 79 451 z "},"÷":{"ha":945,"x_min":155,"x_max":789,"o":"m 374 792 q 390 847 374 822 q 431 887 406 872 q 485 901 457 901 q 556 874 531 901 q 581 806 581 848 q 566 750 581 775 q 524 712 550 726 q 469 698 498 698 q 421 709 444 698 q 387 743 399 721 q 374 792 374 764 m 789 582 l 789 467 l 155 467 l 155 582 l 789 582 m 373 246 q 389 301 373 276 q 431 341 405 326 q 484 355 456 355 q 555 329 530 355 q 581 261 581 302 q 565 205 581 230 q 524 166 549 180 q 469 153 498 153 q 421 164 443 153 q 386 197 399 176 q 373 246 373 218 z "},"∕":{"ha":579,"x_min":-39,"x_max":618,"o":"m 618 1084 l 92 -246 l -39 -246 l 487 1084 l 618 1084 z "},"=":{"ha":949,"x_min":164,"x_max":785,"o":"m 785 757 l 785 644 l 164 644 l 164 757 l 785 757 m 785 406 l 785 294 l 164 294 l 164 406 l 785 406 z "},">":{"ha":928,"x_min":159,"x_max":814,"o":"m 814 576 l 814 472 l 159 171 l 159 312 l 654 524 l 159 740 l 159 879 l 814 576 z "},"≥":{"ha":928,"x_min":161,"x_max":819,"o":"m 819 576 l 819 471 l 161 179 l 161 317 l 664 524 l 161 732 l 161 869 l 819 576 m 161 110 l 819 110 l 819 0 l 161 0 l 161 110 z "},"∆":{"ha":1069,"x_min":37,"x_max":1031,"o":"m 504 1023 l 526 1023 l 1031 18 l 1021 0 l 47 0 l 37 15 l 504 1023 m 521 762 l 231 118 l 827 118 l 521 762 z "},"∞":{"ha":1223,"x_min":50,"x_max":1173,"o":"m 897 684 q 1050 647 988 684 q 1143 552 1113 610 q 1173 428 1173 494 q 1139 280 1173 342 q 1039 185 1104 218 q 882 153 973 153 q 770 175 819 153 q 685 232 721 197 q 612 317 650 267 q 488 199 560 244 q 328 153 415 153 q 181 188 245 153 q 84 281 118 223 q 50 408 50 340 q 88 561 50 499 q 191 653 126 623 q 335 684 255 684 q 451 661 400 684 q 539 602 502 638 q 616 514 577 566 q 741 636 669 588 q 897 684 813 684 m 350 256 q 450 296 403 256 q 545 407 497 335 q 483 493 507 462 q 424 549 458 525 q 349 572 389 572 q 257 551 294 572 q 202 493 220 529 q 184 416 184 458 q 203 335 184 371 q 258 278 221 299 q 350 256 296 256 m 905 256 q 978 278 948 256 q 1024 337 1008 300 q 1039 416 1039 373 q 1020 494 1039 458 q 963 551 1000 530 q 875 572 926 572 q 776 533 821 572 q 684 422 732 495 q 750 338 719 373 q 820 280 781 304 q 905 256 860 256 z "},"∫":{"ha":707,"x_min":75,"x_max":654,"o":"m 132 -177 q 191 -220 155 -200 q 279 -240 228 -240 q 367 -221 334 -240 q 418 -155 401 -203 q 436 -20 436 -107 q 418 107 436 42 q 374 232 400 172 q 302 383 347 292 q 228 541 256 477 q 180 676 199 605 q 161 816 161 747 q 193 986 161 912 q 291 1101 225 1059 q 452 1143 356 1143 q 573 1122 521 1143 q 654 1057 625 1101 l 578 980 q 528 1017 562 1002 q 448 1031 494 1031 q 297 815 297 1031 q 315 688 297 753 q 359 563 333 623 q 430 414 386 503 q 504 256 476 320 q 552 120 532 192 q 571 -20 571 49 q 507 -263 571 -174 q 298 -351 443 -351 q 165 -327 226 -351 q 75 -268 104 -302 l 132 -177 z "},"<":{"ha":928,"x_min":114,"x_max":769,"o":"m 769 740 l 273 524 l 769 312 l 769 171 l 114 472 l 114 576 l 769 879 l 769 740 z "},"≤":{"ha":928,"x_min":109,"x_max":766,"o":"m 766 732 l 264 524 l 766 317 l 766 179 l 109 471 l 109 576 l 766 869 l 766 732 m 109 110 l 766 110 l 766 0 l 109 0 l 109 110 z "},"¬":{"ha":997,"x_min":163,"x_max":834,"o":"m 834 578 l 834 219 l 699 219 l 699 467 l 163 467 l 163 578 l 834 578 z "},"µ":{"ha":922,"x_min":142,"x_max":852,"o":"m 852 59 q 824 32 845 50 q 771 1 802 15 q 707 -12 741 -12 q 646 10 668 -12 q 626 81 623 32 q 581 36 602 55 q 524 3 559 18 q 444 -11 490 -11 q 333 5 377 -11 q 260 60 290 21 l 281 -252 l 142 -252 l 142 773 l 291 773 l 291 271 q 309 174 291 210 q 363 122 327 138 q 458 106 399 106 q 534 124 495 106 q 606 166 572 142 l 606 773 l 755 773 l 755 159 q 760 118 755 129 q 778 107 766 107 q 831 125 800 107 l 852 59 z "},"−":{"ha":916,"x_min":170,"x_max":746,"o":"m 746 583 l 746 463 l 170 463 l 170 583 l 746 583 z "},"×":{"ha":929,"x_min":159,"x_max":772,"o":"m 159 759 l 247 846 l 465 606 l 684 846 l 772 759 l 543 527 l 772 298 l 684 211 l 465 444 l 247 211 l 159 298 l 388 525 l 159 759 z "},"≠":{"ha":949,"x_min":164,"x_max":785,"o":"m 578 644 l 493 406 l 785 406 l 785 294 l 451 294 l 393 138 l 278 138 l 335 294 l 164 294 l 164 406 l 376 406 l 462 644 l 164 644 l 164 757 l 505 757 l 556 895 l 673 895 l 621 757 l 785 757 l 785 644 l 578 644 z "},"∂":{"ha":927,"x_min":112,"x_max":831,"o":"m 371 1143 q 637 1059 534 1143 q 786 843 741 975 q 831 557 831 711 q 794 264 831 394 q 673 57 758 135 q 454 -20 589 -20 q 285 19 361 -20 q 163 132 209 59 q 113 303 117 205 q 112 332 112 313 q 164 536 112 450 q 304 667 216 623 q 503 712 393 712 q 686 682 603 712 q 586 937 668 842 q 342 1031 505 1031 q 255 1021 300 1031 q 183 995 209 1011 l 134 1080 q 243 1127 176 1111 q 371 1143 309 1143 m 467 90 q 643 228 596 90 q 690 550 690 366 l 690 569 q 601 600 648 591 q 492 608 554 608 q 378 579 433 608 q 289 491 323 550 q 255 347 255 432 q 256 326 255 334 q 310 152 262 215 q 467 90 357 90 z "},"%":{"ha":1331,"x_min":51,"x_max":1280,"o":"m 947 1038 l 507 0 l 378 0 l 819 1038 l 947 1038 m 51 729 q 88 883 51 818 q 186 981 125 947 q 318 1015 247 1015 q 448 978 396 1015 q 526 878 500 941 q 551 734 551 814 q 514 582 551 646 q 417 485 477 518 q 286 451 356 451 q 160 489 214 451 q 79 590 107 526 q 51 729 51 653 m 418 730 q 388 865 418 814 q 302 916 357 916 q 214 867 245 916 q 183 734 183 819 q 197 640 183 682 q 237 574 211 598 q 300 551 264 551 q 387 598 356 551 q 418 730 418 646 m 780 312 q 817 466 780 401 q 915 564 854 530 q 1048 597 977 597 q 1178 561 1126 597 q 1255 460 1230 524 q 1280 317 1280 397 q 1243 165 1280 229 q 1145 68 1206 101 q 1014 35 1084 35 q 889 72 943 35 q 808 173 836 110 q 780 312 780 237 m 1147 313 q 1117 449 1147 398 q 1031 499 1086 499 q 944 451 975 499 q 913 317 913 402 q 926 223 913 264 q 966 157 940 181 q 1029 134 993 134 q 1117 181 1086 134 q 1147 313 1147 229 z "}}}
